<svg width="305" height="228" viewBox="0 0 305 228" fill="none" xmlns="http://www.w3.org/2000/svg">
<path d="M47.0709 205.261C105.11 235.58 199.204 235.58 257.243 205.261C315.283 174.943 315.276 125.783 257.243 95.4648C199.211 65.1463 105.11 65.1463 47.0709 95.4648C-10.9685 125.783 -10.9616 174.956 47.0709 205.261Z" fill="#F5F5F5"/>
<path d="M263.289 181.814C260.045 183.144 256.407 183.144 253.162 181.814C250.392 180.477 250.392 178.351 253.162 176.965C256.406 175.628 260.046 175.628 263.289 176.965C266.088 178.316 266.088 180.498 263.289 181.814Z" fill="#E0E0E0"/>
<path d="M41.1196 177.963C44.4211 179.32 48.1251 179.32 51.4266 177.963C54.2735 176.577 54.2735 174.402 51.4266 173.045C48.1236 171.694 44.4225 171.694 41.1196 173.045C38.2726 174.402 38.2726 176.605 41.1196 177.963Z" fill="#E0E0E0"/>
<path d="M147.56 162.488C149.292 162.71 151.294 162.114 152.16 160.964C153.178 159.614 152.728 157.501 153.22 156.372C153.711 155.243 155.298 155.423 156.039 154.467C156.78 153.511 155.63 151.225 156.039 150.013C156.448 148.801 157.625 147.644 158.158 146.813C158.692 145.982 158.158 144.735 156.337 145.365C154.515 145.996 153.566 148.178 151.8 147.81C150.033 147.443 148.523 148.503 148.496 150.256C148.546 150.941 148.412 151.627 148.108 152.244C147.775 152.784 146.889 153.089 146.487 153.927L147.56 162.488Z" fill="#9269AD"/>
<path opacity="0.2" d="M147.56 162.488C149.292 162.71 151.294 162.114 152.16 160.964C153.178 159.614 152.728 157.501 153.22 156.372C153.711 155.243 155.298 155.423 156.039 154.467C156.78 153.511 155.63 151.225 156.039 150.013C156.448 148.801 157.625 147.644 158.158 146.813C158.692 145.982 158.158 144.735 156.337 145.365C154.515 145.996 153.566 148.178 151.8 147.81C150.033 147.443 148.523 148.503 148.496 150.256C148.546 150.941 148.412 151.627 148.108 152.244C147.775 152.784 146.889 153.089 146.487 153.927L147.56 162.488Z" fill="black"/>
<path d="M157.349 145.864C154.806 147.249 147.907 155.174 147.339 159.385" stroke="white" stroke-width="0.5" stroke-miterlimit="10" stroke-linecap="round"/>
<path d="M55.0322 141.334L85.981 123.463V47.1091L55.0322 64.9802V141.334Z" fill="#37474F"/>
<path d="M55.0322 64.98L21.2642 45.488V121.835L55.0322 141.334V64.98Z" fill="#455A64"/>
<path d="M85.981 47.109L52.2199 27.6171L21.2642 45.4881L55.0322 64.9801L85.981 47.109Z" fill="#37474F"/>
<path d="M33.9062 129.15V116.148L42.6548 121.177V134.172L33.9062 129.15Z" fill="#E0E0E0"/>
<path d="M37.7231 118.344L38.5751 118.836V131.83L37.7231 131.338V118.344Z" fill="#263238"/>
<path d="M51.4924 119.785V112.539L45.7017 109.194V116.439L51.4924 119.785Z" fill="#E0E0E0"/>
<path d="M45.7017 116.439L47.1494 115.608V110.032L45.7017 109.194V116.439Z" fill="#263238"/>
<path d="M51.4924 118.115L47.1494 115.608L45.7017 116.439L51.4924 119.785V118.115Z" fill="#37474F"/>
<path d="M51.4924 133.666V126.421L45.7017 123.082V130.327L51.4924 133.666Z" fill="#E0E0E0"/>
<path d="M45.7017 130.327L47.1494 129.489V123.913L45.7017 123.082V130.327Z" fill="#263238"/>
<path d="M51.4924 131.997L47.1494 129.489L45.7017 130.327L51.4924 133.666V131.997Z" fill="#37474F"/>
<path d="M51.4924 106.194V98.9489L45.7017 95.6102V102.856L51.4924 106.194Z" fill="#E0E0E0"/>
<path d="M45.7017 102.856L47.1494 102.017V96.4414L45.7017 95.6102V102.856Z" fill="#263238"/>
<path d="M51.4924 104.525L47.1494 102.017L45.7017 102.856L51.4924 106.194V104.525Z" fill="#37474F"/>
<path d="M51.4924 92.6041V85.3587L45.7017 82.02V89.2654L51.4924 92.6041Z" fill="#E0E0E0"/>
<path d="M45.7017 89.2654L47.1494 88.4273V82.8512L45.7017 82.02V89.2654Z" fill="#263238"/>
<path d="M51.4924 90.9347L47.1494 88.4272L45.7017 89.2654L51.4924 92.6041V90.9347Z" fill="#37474F"/>
<path d="M51.4924 79.0206V71.7683L45.7017 68.4296V75.675L51.4924 79.0206Z" fill="#E0E0E0"/>
<path d="M45.7017 75.675L47.1494 74.8368V69.2677L45.7017 68.4296V75.675Z" fill="#263238"/>
<path d="M51.4924 77.3444L47.1494 74.8369L45.7017 75.675L51.4924 79.0207V77.3444Z" fill="#37474F"/>
<path d="M30.6018 107.725V100.48L24.811 97.134V104.379L30.6018 107.725Z" fill="#E0E0E0"/>
<path d="M24.811 104.379L26.2587 103.548V97.9722L24.811 97.134V104.379Z" fill="#263238"/>
<path d="M30.6018 106.056L26.2587 103.548L24.811 104.379L30.6018 107.725V106.056Z" fill="#37474F"/>
<path d="M30.6018 121.606V114.361L24.811 111.022V118.261L30.6018 121.606Z" fill="#E0E0E0"/>
<path d="M24.811 118.261L26.2587 117.429V111.853L24.811 111.022V118.261Z" fill="#263238"/>
<path d="M30.6018 119.937L26.2587 117.43L24.811 118.261L30.6018 121.606V119.937Z" fill="#37474F"/>
<path d="M30.6018 94.017V86.7716L24.811 83.4329V90.6783L30.6018 94.017Z" fill="#E0E0E0"/>
<path d="M24.811 90.6783L26.2587 89.8401V84.2641L24.811 83.4329V90.6783Z" fill="#263238"/>
<path d="M30.6018 92.3477L26.2587 89.8402L24.811 90.6784L30.6018 94.0171V92.3477Z" fill="#37474F"/>
<path d="M30.6018 80.316V73.0706L24.811 69.725V76.9704L30.6018 80.316Z" fill="#E0E0E0"/>
<path d="M24.811 76.9704L26.2587 76.1392V70.5631L24.811 69.725V76.9704Z" fill="#263238"/>
<path d="M30.6018 78.6465L26.2587 76.139L24.811 76.9702L30.6018 80.3159V78.6465Z" fill="#37474F"/>
<path d="M30.6018 66.6079V59.3625L24.811 56.0238V63.2692L30.6018 66.6079Z" fill="#FAFAFA"/>
<path d="M24.811 63.2692L26.2587 62.4311V56.855L24.811 56.0238V63.2692Z" fill="#263238"/>
<path d="M30.6018 64.9385L26.2587 62.431L24.811 63.2692L30.6018 66.6079V64.9385Z" fill="#37474F"/>
<path d="M33.9062 60.9071L37.2796 62.8535V111.583L33.9062 109.644V60.9071Z" fill="#FAFAFA"/>
<path d="M33.9062 60.9071L35.3332 61.7314V108.84L33.9062 109.644V60.9071Z" fill="#263238"/>
<path d="M35.3332 108.84L37.2796 109.921V111.583L33.9062 109.644L35.3332 108.84Z" fill="#37474F"/>
<path d="M39.2739 63.9756L42.6542 65.9151V114.652L39.2739 112.705V63.9756Z" fill="#FAFAFA"/>
<path d="M39.2739 63.9756L40.7008 64.7999V111.902L39.2739 112.705V63.9756Z" fill="#263238"/>
<path d="M40.7008 111.902L42.6542 112.983V114.652L39.2739 112.706L40.7008 111.902Z" fill="#37474F"/>
<path d="M58.6133 119.785V112.539L64.3971 109.194V116.439L58.6133 119.785Z" fill="#E0E0E0"/>
<path d="M64.3969 116.439L62.9492 115.608L62.9561 110.032L64.3969 109.194V116.439Z" fill="#455A64"/>
<path d="M58.6133 118.115L62.9494 115.608L64.3971 116.439L58.6133 119.785V118.115Z" fill="#263238"/>
<path d="M67.6113 114.61V107.365L73.4021 104.026V111.272L67.6113 114.61Z" fill="#E0E0E0"/>
<path d="M73.4018 111.272L71.9541 110.434V104.858L73.4018 104.026V111.272Z" fill="#455A64"/>
<path d="M67.6113 112.941L71.9544 110.433L73.4021 111.272L67.6113 114.61V112.941Z" fill="#263238"/>
<path d="M76.6094 109.443V102.197L82.4002 98.8518V106.097L76.6094 109.443Z" fill="#E0E0E0"/>
<path d="M82.3998 106.097L80.9521 105.266V99.6899L82.3998 98.8518V106.097Z" fill="#455A64"/>
<path d="M76.6094 107.767L80.9525 105.266L82.4002 106.097L76.6094 109.443V107.767Z" fill="#263238"/>
<path d="M58.6133 133.666V126.421L64.3971 123.082V130.327L58.6133 133.666Z" fill="#E0E0E0"/>
<path d="M64.3969 130.327L62.9492 129.489L62.9561 123.913L64.3969 123.082V130.327Z" fill="#455A64"/>
<path d="M58.6133 131.997L62.9494 129.489L64.3971 130.327L58.6133 133.666V131.997Z" fill="#263238"/>
<path d="M67.6113 128.499V121.246L73.4021 117.908V125.153L67.6113 128.499Z" fill="#E0E0E0"/>
<path d="M73.4018 125.153L71.9541 124.315V118.746L73.4018 117.908V125.153Z" fill="#455A64"/>
<path d="M67.6113 126.822L71.9544 124.315L73.4021 125.153L67.6113 128.499V126.822Z" fill="#263238"/>
<path d="M76.6094 123.324V116.079L82.4002 112.733V119.979L76.6094 123.324Z" fill="#E0E0E0"/>
<path d="M82.3998 119.979L80.9521 119.147V113.571L82.3998 112.733V119.979Z" fill="#455A64"/>
<path d="M76.6094 121.655L80.9525 119.147L82.4002 119.979L76.6094 123.324V121.655Z" fill="#263238"/>
<path d="M58.6133 106.194V98.9489L64.3971 95.6102V102.856L58.6133 106.194Z" fill="#E0E0E0"/>
<path d="M64.3969 102.856L62.9492 102.017L62.9561 96.4414L64.3969 95.6102V102.856Z" fill="#455A64"/>
<path d="M58.6133 104.525L62.9494 102.017L64.3971 102.856L58.6133 106.194V104.525Z" fill="#263238"/>
<path d="M67.6113 100.964V93.7191L73.4021 90.3804V97.6258L67.6113 100.964Z" fill="#E0E0E0"/>
<path d="M73.4018 97.6258L71.9541 96.7876V91.2116L73.4018 90.3804V97.6258Z" fill="#455A64"/>
<path d="M67.6113 99.2953L71.9544 96.7878L73.4021 97.626L67.6113 100.965V99.2953Z" fill="#263238"/>
<path d="M76.6094 95.7349V88.4895L82.4002 85.1508V92.3962L76.6094 95.7349Z" fill="#E0E0E0"/>
<path d="M82.3998 92.3962L80.9521 91.558V85.982L82.3998 85.1508V92.3962Z" fill="#455A64"/>
<path d="M76.6094 94.0655L80.9525 91.558L82.4002 92.3961L76.6094 95.7348V94.0655Z" fill="#263238"/>
<path d="M58.6133 92.6041V85.3587L64.3971 82.02V89.2654L58.6133 92.6041Z" fill="#E0E0E0"/>
<path d="M64.3969 89.2654L62.9492 88.4273L62.9561 82.8512L64.3969 82.02V89.2654Z" fill="#455A64"/>
<path d="M58.6133 90.9347L62.9494 88.4272L64.3971 89.2654L58.6133 92.6041V90.9347Z" fill="#263238"/>
<path d="M67.6113 87.3189V80.0735L73.4021 76.7279V83.9802L67.6113 87.3189Z" fill="#E0E0E0"/>
<path d="M73.4018 83.9802L71.9541 83.1421V77.566L73.4018 76.7279V83.9802Z" fill="#455A64"/>
<path d="M67.6113 85.6496L71.9544 83.1421L73.4021 83.9802L67.6113 87.3189V85.6496Z" fill="#263238"/>
<path d="M76.6094 82.0338V74.7884L82.4002 71.4427V78.6882L76.6094 82.0338Z" fill="#E0E0E0"/>
<path d="M82.3998 78.6882L80.9521 77.8569V72.2809L82.3998 71.4427V78.6882Z" fill="#455A64"/>
<path d="M76.6094 80.3643L80.9525 77.8568L82.4002 78.688L76.6094 82.0337V80.3643Z" fill="#263238"/>
<path d="M58.6133 79.0206V71.7683L64.3971 68.4296V75.675L58.6133 79.0206Z" fill="#E0E0E0"/>
<path d="M64.3969 75.675L62.9492 74.8368L62.9561 69.2677L64.3969 68.4296V75.675Z" fill="#455A64"/>
<path d="M58.6133 77.3444L62.9494 74.8369L64.3971 75.675L58.6133 79.0207V77.3444Z" fill="#263238"/>
<path d="M67.6113 73.6731V66.4277L73.4021 63.082V70.3274L67.6113 73.6731Z" fill="#E0E0E0"/>
<path d="M73.4018 70.3274L71.9541 69.4962V63.9202L73.4018 63.082V70.3274Z" fill="#455A64"/>
<path d="M67.6113 72.0039L71.9544 69.4965L73.4021 70.3277L67.6113 73.6733V72.0039Z" fill="#263238"/>
<path d="M76.6094 68.3258V61.0804L82.4002 57.7417V64.9871L76.6094 68.3258Z" fill="#E0E0E0"/>
<path d="M82.3998 64.9871L80.9521 64.149V58.5729L82.3998 57.7417V64.9871Z" fill="#455A64"/>
<path d="M76.6094 66.6563L80.9525 64.1488L82.4002 64.9869L76.6094 68.3256V66.6563Z" fill="#263238"/>
<path d="M26.896 45.4881L52.2203 30.8657L80.3499 47.109L55.0326 61.7314L26.896 45.4881Z" fill="#F0F0F0"/>
<path d="M52.2197 30.8657V34.1144L77.5371 48.7368L80.3494 47.109L52.2197 30.8657Z" fill="#455A64"/>
<path d="M52.2203 30.8657L26.896 45.4881L29.7083 47.109L52.2203 34.1144V30.8657Z" fill="#263238"/>
<path d="M250.319 141.334L219.37 123.463V47.1091L250.326 64.9802L250.319 141.334Z" fill="#455A64"/>
<path d="M250.326 64.98L284.087 45.488V121.835L250.319 141.334L250.326 64.98Z" fill="#37474F"/>
<path d="M219.37 47.109L253.138 27.6171L284.087 45.4881L250.326 64.9801L219.37 47.109Z" fill="#37474F"/>
<path d="M271.453 129.15V116.148L262.698 121.177L262.704 134.172L271.453 129.15Z" fill="#E0E0E0"/>
<path d="M267.629 118.344L266.784 118.836V131.83L267.629 131.338V118.344Z" fill="#263238"/>
<path d="M253.859 119.785V112.539L259.649 109.194V116.439L253.859 119.785Z" fill="#E0E0E0"/>
<path d="M259.649 116.439L258.202 115.608V110.032L259.649 109.194V116.439Z" fill="#263238"/>
<path d="M253.859 118.115L258.202 115.608L259.649 116.439L253.859 119.785V118.115Z" fill="#455A64"/>
<path d="M253.859 133.666V126.421L259.649 123.082V130.327L253.859 133.666Z" fill="#E0E0E0"/>
<path d="M259.649 130.327L258.202 129.489V123.913L259.649 123.082V130.327Z" fill="#263238"/>
<path d="M253.859 131.997L258.202 129.489L259.649 130.327L253.859 133.666V131.997Z" fill="#455A64"/>
<path d="M253.859 106.194V98.9489L259.649 95.6102V102.856L253.859 106.194Z" fill="#E0E0E0"/>
<path d="M259.649 102.856L258.202 102.017V96.4414L259.649 95.6102V102.856Z" fill="#263238"/>
<path d="M253.859 104.525L258.202 102.017L259.649 102.856L253.859 106.194V104.525Z" fill="#455A64"/>
<path d="M253.859 92.6041V85.3587L259.649 82.02V89.2654L253.859 92.6041Z" fill="#E0E0E0"/>
<path d="M259.649 89.2654L258.202 88.4273V82.8512L259.649 82.02V89.2654Z" fill="#263238"/>
<path d="M253.859 90.9347L258.202 88.4272L259.649 89.2654L253.859 92.6041V90.9347Z" fill="#455A64"/>
<path d="M253.859 79.0206V71.7683L259.649 68.4296V75.675L253.859 79.0206Z" fill="#E0E0E0"/>
<path d="M259.649 75.675L258.202 74.8368V69.2677L259.649 68.4296V75.675Z" fill="#263238"/>
<path d="M253.859 77.3444L258.202 74.8369L259.649 75.675L253.859 79.0207V77.3444Z" fill="#455A64"/>
<path d="M274.757 107.725V100.48L280.541 97.134V104.379L274.757 107.725Z" fill="#E0E0E0"/>
<path d="M280.54 104.379L279.1 103.548V97.9722L280.54 97.134V104.379Z" fill="#263238"/>
<path d="M274.757 106.056L279.1 103.548L280.541 104.379L274.757 107.725V106.056Z" fill="#455A64"/>
<path d="M274.757 121.606V114.361L280.541 111.022V118.261L274.757 121.606Z" fill="#E0E0E0"/>
<path d="M280.54 118.261L279.1 117.429V111.853L280.54 111.022V118.261Z" fill="#263238"/>
<path d="M274.757 119.937L279.1 117.43L280.541 118.261L274.757 121.606V119.937Z" fill="#455A64"/>
<path d="M274.757 94.017V86.7716L280.541 83.4329V90.6783L274.757 94.017Z" fill="#E0E0E0"/>
<path d="M280.54 90.6783L279.1 89.8401V84.2641L280.54 83.4329V90.6783Z" fill="#263238"/>
<path d="M274.757 92.3477L279.1 89.8402L280.541 90.6784L274.757 94.0171V92.3477Z" fill="#455A64"/>
<path d="M274.757 80.316V73.0706L280.541 69.725V76.9704L274.757 80.316Z" fill="#E0E0E0"/>
<path d="M280.54 76.9704L279.1 76.1392V70.5631L280.54 69.725V76.9704Z" fill="#263238"/>
<path d="M274.757 78.6465L279.1 76.139L280.541 76.9702L274.757 80.3159V78.6465Z" fill="#455A64"/>
<path d="M274.757 66.6079V59.3625L280.541 56.0238V63.2692L274.757 66.6079Z" fill="#FAFAFA"/>
<path d="M280.54 63.2692L279.1 62.4311V56.855L280.54 56.0238V63.2692Z" fill="#263238"/>
<path d="M274.757 64.9385L279.1 62.431L280.541 63.2692L274.757 66.6079V64.9385Z" fill="#455A64"/>
<path d="M271.453 60.9071L268.072 62.8535V111.583L271.453 109.644V60.9071Z" fill="#FAFAFA"/>
<path d="M271.453 60.9071L270.019 61.7314V108.84L271.453 109.644V60.9071Z" fill="#263238"/>
<path d="M270.019 108.84L268.072 109.921V111.583L271.453 109.644L270.019 108.84Z" fill="#455A64"/>
<path d="M266.077 63.9756L262.704 65.9151V114.652L266.077 112.705V63.9756Z" fill="#FAFAFA"/>
<path d="M266.078 63.9756L264.651 64.7999V111.902L266.078 112.705V63.9756Z" fill="#263238"/>
<path d="M264.65 111.902L262.704 112.983V114.652L266.077 112.706L264.65 111.902Z" fill="#455A64"/>
<path d="M246.745 119.785V112.539L240.954 109.194V116.439L246.745 119.785Z" fill="#E0E0E0"/>
<path d="M240.954 116.439L242.402 115.608V110.032L240.954 109.194V116.439Z" fill="#37474F"/>
<path d="M246.745 118.115L242.402 115.608L240.954 116.439L246.745 119.785V118.115Z" fill="#263238"/>
<path d="M237.74 114.61V107.365L231.956 104.026V111.272L237.74 114.61Z" fill="#E0E0E0"/>
<path d="M231.956 111.272L233.397 110.434V104.858L231.956 104.026V111.272Z" fill="#37474F"/>
<path d="M237.74 112.941L233.397 110.433L231.956 111.272L237.74 114.61V112.941Z" fill="#263238"/>
<path d="M228.742 109.443V102.197L222.952 98.8518V106.097L228.742 109.443Z" fill="#E0E0E0"/>
<path d="M222.952 106.097L224.399 105.266V99.6899L222.952 98.8518V106.097Z" fill="#37474F"/>
<path d="M228.742 107.767L224.399 105.266L222.952 106.097L228.742 109.443V107.767Z" fill="#263238"/>
<path d="M246.745 133.666V126.421L240.954 123.082V130.327L246.745 133.666Z" fill="#E0E0E0"/>
<path d="M240.954 130.327L242.402 129.489V123.913L240.954 123.082V130.327Z" fill="#37474F"/>
<path d="M246.745 131.997L242.402 129.489L240.954 130.327L246.745 133.666V131.997Z" fill="#263238"/>
<path d="M237.74 128.499V121.246L231.956 117.908V125.153L237.74 128.499Z" fill="#E0E0E0"/>
<path d="M231.956 125.153L233.397 124.315V118.746L231.956 117.908V125.153Z" fill="#37474F"/>
<path d="M237.74 126.822L233.397 124.315L231.956 125.153L237.74 128.499V126.822Z" fill="#263238"/>
<path d="M228.742 123.324V116.079L222.952 112.733V119.979L228.742 123.324Z" fill="#E0E0E0"/>
<path d="M222.952 119.979L224.399 119.147V113.571L222.952 112.733V119.979Z" fill="#37474F"/>
<path d="M228.742 121.655L224.399 119.147L222.952 119.979L228.742 123.324V121.655Z" fill="#263238"/>
<path d="M246.745 106.194V98.9489L240.954 95.6102V102.856L246.745 106.194Z" fill="#E0E0E0"/>
<path d="M240.954 102.856L242.402 102.017V96.4414L240.954 95.6102V102.856Z" fill="#37474F"/>
<path d="M246.745 104.525L242.402 102.017L240.954 102.856L246.745 106.194V104.525Z" fill="#263238"/>
<path d="M237.74 100.964V93.7191L231.956 90.3804V97.6258L237.74 100.964Z" fill="#E0E0E0"/>
<path d="M231.956 97.6258L233.397 96.7876V91.2116L231.956 90.3804V97.6258Z" fill="#37474F"/>
<path d="M237.74 99.2953L233.397 96.7878L231.956 97.626L237.74 100.965V99.2953Z" fill="#263238"/>
<path d="M228.742 95.7349V88.4895L222.952 85.1508V92.3962L228.742 95.7349Z" fill="#E0E0E0"/>
<path d="M222.952 92.3962L224.399 91.558V85.982L222.952 85.1508V92.3962Z" fill="#37474F"/>
<path d="M228.742 94.0655L224.399 91.558L222.952 92.3961L228.742 95.7348V94.0655Z" fill="#263238"/>
<path d="M246.745 92.6041V85.3587L240.954 82.02V89.2654L246.745 92.6041Z" fill="#E0E0E0"/>
<path d="M240.954 89.2654L242.402 88.4273V82.8512L240.954 82.02V89.2654Z" fill="#37474F"/>
<path d="M246.745 90.9347L242.402 88.4272L240.954 89.2654L246.745 92.6041V90.9347Z" fill="#263238"/>
<path d="M237.74 87.3189V80.0735L231.956 76.7279V83.9802L237.74 87.3189Z" fill="#E0E0E0"/>
<path d="M231.956 83.9802L233.397 83.1421V77.566L231.956 76.7279V83.9802Z" fill="#37474F"/>
<path d="M237.74 85.6496L233.397 83.1421L231.956 83.9802L237.74 87.3189V85.6496Z" fill="#263238"/>
<path d="M228.742 82.0338V74.7884L222.952 71.4427V78.6882L228.742 82.0338Z" fill="#E0E0E0"/>
<path d="M222.952 78.6882L224.399 77.8569V72.2809L222.952 71.4427V78.6882Z" fill="#37474F"/>
<path d="M228.742 80.3643L224.399 77.8568L222.952 78.688L228.742 82.0337V80.3643Z" fill="#263238"/>
<path d="M246.745 79.0206V71.7683L240.954 68.4296V75.675L246.745 79.0206Z" fill="#E0E0E0"/>
<path d="M240.954 75.675L242.402 74.8368V69.2677L240.954 68.4296V75.675Z" fill="#37474F"/>
<path d="M246.745 77.3444L242.402 74.8369L240.954 75.675L246.745 79.0207V77.3444Z" fill="#263238"/>
<path d="M237.74 73.6731V66.4277L231.956 63.082V70.3274L237.74 73.6731Z" fill="#E0E0E0"/>
<path d="M231.956 70.3274L233.397 69.4962V63.9202L231.956 63.082V70.3274Z" fill="#37474F"/>
<path d="M237.74 72.0039L233.397 69.4965L231.956 70.3277L237.74 73.6733V72.0039Z" fill="#263238"/>
<path d="M228.742 68.3258V61.0804L222.952 57.7417V64.9871L228.742 68.3258Z" fill="#E0E0E0"/>
<path d="M222.952 64.9871L224.399 64.149V58.5729L222.952 57.7417V64.9871Z" fill="#37474F"/>
<path d="M228.742 66.6563L224.399 64.1488L222.952 64.9869L228.742 68.3256V66.6563Z" fill="#263238"/>
<path d="M278.463 45.4881L253.138 30.8657L225.002 47.109L250.326 61.7314L278.463 45.4881Z" fill="#F0F0F0"/>
<path d="M253.138 30.8657V34.1144L227.814 48.7368L225.002 47.109L253.138 30.8657Z" fill="#263238"/>
<path d="M253.138 30.8657L278.462 45.4881L275.643 47.109L253.138 34.1144V30.8657Z" fill="#455A64"/>
<path d="M204.415 212.687C200.894 214.134 196.944 214.134 193.422 212.687C190.388 211.239 190.388 208.898 193.422 207.45C196.944 206.002 200.894 206.002 204.415 207.45C207.456 208.898 207.456 211.239 204.415 212.687Z" fill="#E0E0E0"/>
<path d="M90.726 207.914C94.2496 209.362 98.2021 209.362 101.726 207.914C104.76 206.466 104.76 204.125 101.726 202.678C98.2021 201.23 94.2496 201.23 90.726 202.678C87.7059 204.125 87.7059 206.466 90.726 207.914Z" fill="#E0E0E0"/>
<path d="M155.013 207.069L222.355 168.189C222.808 167.949 223.186 167.59 223.45 167.152C223.713 166.713 223.853 166.211 223.853 165.699C223.853 165.187 223.713 164.685 223.45 164.246C223.186 163.807 222.808 163.449 222.355 163.209L155.006 124.329C154.542 124.093 154.028 123.97 153.507 123.97C152.986 123.97 152.472 124.093 152.007 124.329L84.665 163.181C84.2128 163.421 83.8345 163.78 83.5707 164.218C83.3069 164.657 83.1675 165.159 83.1675 165.671C83.1675 166.183 83.3069 166.685 83.5707 167.124C83.8345 167.563 84.2128 167.921 84.665 168.161L152.014 207.041C152.477 207.281 152.989 207.409 153.51 207.413C154.031 207.418 154.546 207.3 155.013 207.069Z" fill="#9269AD"/>
<path d="M155.013 207.069L222.355 168.189C222.808 167.949 223.186 167.59 223.45 167.152C223.713 166.713 223.853 166.211 223.853 165.699C223.853 165.187 223.713 164.685 223.45 164.246C223.186 163.807 222.808 163.449 222.355 163.209L155.006 124.329C154.542 124.093 154.028 123.97 153.507 123.97C152.986 123.97 152.472 124.093 152.007 124.329L84.665 163.181C84.2128 163.421 83.8345 163.78 83.5707 164.218C83.3069 164.657 83.1675 165.159 83.1675 165.671C83.1675 166.183 83.3069 166.685 83.5707 167.124C83.8345 167.563 84.2128 167.921 84.665 168.161L152.014 207.041C152.477 207.281 152.989 207.409 153.51 207.413C154.031 207.418 154.546 207.3 155.013 207.069Z" fill="#9269AD"/>
<path d="M155.013 207.069L222.355 168.189C222.808 167.949 223.186 167.59 223.45 167.152C223.713 166.713 223.853 166.211 223.853 165.699C223.853 165.187 223.713 164.685 223.45 164.246C223.186 163.807 222.808 163.449 222.355 163.209L155.006 124.329C154.542 124.093 154.028 123.97 153.507 123.97C152.986 123.97 152.472 124.093 152.007 124.329L84.665 163.181C84.2128 163.421 83.8345 163.78 83.5707 164.218C83.3069 164.657 83.1675 165.159 83.1675 165.671C83.1675 166.183 83.3069 166.685 83.5707 167.124C83.8345 167.563 84.2128 167.921 84.665 168.161L152.014 207.041C152.477 207.281 152.989 207.409 153.51 207.413C154.031 207.418 154.546 207.3 155.013 207.069Z" fill="#9269AD"/>
<path opacity="0.2" d="M155.013 207.069L222.355 168.189C222.808 167.949 223.186 167.59 223.45 167.152C223.713 166.713 223.853 166.211 223.853 165.699C223.853 165.187 223.713 164.685 223.45 164.246C223.186 163.807 222.808 163.449 222.355 163.209L155.006 124.329C154.542 124.093 154.028 123.97 153.507 123.97C152.986 123.97 152.472 124.093 152.007 124.329L84.665 163.181C84.2128 163.421 83.8345 163.78 83.5707 164.218C83.3069 164.657 83.1675 165.159 83.1675 165.671C83.1675 166.183 83.3069 166.685 83.5707 167.124C83.8345 167.563 84.2128 167.921 84.665 168.161L152.014 207.041C152.477 207.281 152.989 207.409 153.51 207.413C154.031 207.418 154.546 207.3 155.013 207.069Z" fill="black"/>
<path d="M84.6651 164.94L152.014 203.82C152.479 204.056 152.993 204.179 153.514 204.179C154.035 204.179 154.549 204.056 155.013 203.82L222.355 164.94C222.536 164.879 222.694 164.762 222.805 164.607C222.916 164.452 222.976 164.266 222.976 164.075C222.976 163.883 222.916 163.697 222.805 163.542C222.694 163.387 222.536 163.27 222.355 163.209L155.006 124.329C154.542 124.093 154.028 123.97 153.507 123.97C152.986 123.97 152.472 124.093 152.007 124.329L84.6651 163.181C84.4736 163.235 84.305 163.351 84.185 163.509C84.065 163.668 84 163.862 84 164.061C84 164.26 84.065 164.453 84.185 164.612C84.305 164.771 84.4736 164.886 84.6651 164.94Z" fill="#9269AD"/>
<path d="M164.766 190.064L212.595 162.447V47.1091L164.766 74.7262V190.064Z" fill="#37474F"/>
<path d="M153.51 198.189V81.2235L94.4248 47.1091V164.075L153.51 198.189Z" fill="#455A64"/>
<path d="M153.51 149.452L94.4249 115.338V112.089L88.7935 115.338L153.51 152.701V149.452Z" fill="#9269AD"/>
<path opacity="0.5" d="M153.51 149.452L94.4249 115.338V112.089L88.7935 115.338L153.51 152.701V149.452Z" fill="white"/>
<path d="M88.7935 115.338L153.51 152.701V155.949L88.7935 118.586V115.338Z" fill="#9269AD"/>
<path d="M153.511 149.452L164.767 142.955L167.579 144.583L153.511 152.701V149.452Z" fill="#9269AD"/>
<path opacity="0.5" d="M153.511 149.452L164.767 142.955L167.579 144.583L153.511 152.701V149.452Z" fill="white"/>
<path d="M153.511 155.949L167.579 147.831V144.583L153.511 152.701V155.949Z" fill="#9269AD"/>
<path opacity="0.2" d="M153.511 155.949L167.579 147.831V144.583L153.511 152.701V155.949Z" fill="black"/>
<path d="M153.511 81.2234L164.767 74.7261V142.955L153.511 149.452V81.2234Z" fill="#263238"/>
<path d="M153.511 155.949L164.767 149.452V191.692L153.511 198.189V155.949Z" fill="#263238"/>
<path d="M147.886 139.706V123.463L136.63 116.966V133.209L147.886 139.706Z" fill="#9269AD"/>
<path opacity="0.5" d="M147.886 139.706V123.463L136.63 116.966V133.209L147.886 139.706Z" fill="white"/>
<path d="M136.63 133.209L139.443 131.588V118.586L136.63 116.966V133.209Z" fill="#263238"/>
<path d="M147.886 136.457L139.443 131.588L136.63 133.209L147.886 139.706V136.457Z" fill="#263238"/>
<path d="M130.998 129.96V113.717L116.93 105.592V121.835L130.998 129.96Z" fill="#9269AD"/>
<path opacity="0.5" d="M130.998 129.96V113.717L116.93 105.592V121.835L130.998 129.96Z" fill="white"/>
<path d="M119.742 120.214L119.749 107.22L116.93 105.592V121.835L119.742 120.214Z" fill="#263238"/>
<path d="M130.998 126.712V129.96L116.93 121.835L119.742 120.214L130.998 126.712Z" fill="#263238"/>
<path d="M171.797 174.631V158.388L185.866 150.269V166.513L171.797 174.631Z" fill="#9269AD"/>
<path d="M183.053 164.885V151.89L185.865 150.269V166.513L183.053 164.885Z" fill="#263238"/>
<path d="M171.797 171.382V174.631L185.866 166.513L183.053 164.885L171.797 171.382Z" fill="#263238"/>
<path d="M171.797 147.561V131.318L185.866 123.193V139.436L171.797 147.561Z" fill="#9269AD"/>
<path d="M183.053 137.815V124.813L185.865 123.193V139.436L183.053 137.815Z" fill="#263238"/>
<path d="M171.797 144.312V147.561L185.866 139.436L183.053 137.815L171.797 144.312Z" fill="#263238"/>
<path d="M171.797 120.484V104.241L185.866 96.116V112.359L171.797 120.484Z" fill="#9269AD"/>
<path d="M183.053 110.738V97.7438L185.865 96.116V112.359L183.053 110.738Z" fill="#263238"/>
<path d="M171.797 117.236V120.484L185.866 112.359L183.053 110.738L171.797 117.236Z" fill="#263238"/>
<path d="M171.797 93.4076V77.1643L185.866 69.0392V85.2894L171.797 93.4076Z" fill="#9269AD"/>
<path d="M183.053 83.6616V70.667L185.865 69.0392V85.2894L183.053 83.6616Z" fill="#263238"/>
<path d="M171.797 90.1588V93.4075L185.866 85.2893L183.053 83.6615L171.797 90.1588Z" fill="#263238"/>
<path d="M191.802 163.084V146.841L205.877 138.723L205.87 154.966L191.802 163.084Z" fill="#9269AD"/>
<path d="M203.058 153.338V140.344L205.877 138.723L205.87 154.966L203.058 153.338Z" fill="#263238"/>
<path d="M191.802 159.842V163.084L205.87 154.966L203.058 153.338L191.802 159.842Z" fill="#263238"/>
<path d="M191.802 136.014V119.764L205.877 111.646L205.87 127.889L191.802 136.014Z" fill="#9269AD"/>
<path d="M203.058 126.268V113.267L205.877 111.646L205.87 127.889L203.058 126.268Z" fill="#263238"/>
<path d="M191.802 132.766V136.014L205.87 127.889L203.058 126.268L191.802 132.766Z" fill="#263238"/>
<path d="M191.802 108.937V92.6942L205.877 84.5691L205.87 100.819L191.802 108.937Z" fill="#9269AD"/>
<path d="M203.058 99.1915V86.1969L205.877 84.5691L205.87 100.819L203.058 99.1915Z" fill="#263238"/>
<path d="M191.802 105.689V108.938L205.87 100.819L203.058 99.1915L191.802 105.689Z" fill="#263238"/>
<path d="M191.802 81.8606V65.6173L205.877 57.4991L205.87 73.7424L191.802 81.8606Z" fill="#9269AD"/>
<path d="M203.058 72.1146V59.12L205.877 57.4991L205.87 73.7424L203.058 72.1146Z" fill="#263238"/>
<path d="M191.802 78.6119V81.8606L205.87 73.7424L203.058 72.1146L191.802 78.6119Z" fill="#263238"/>
<path d="M111.305 118.586V102.343L100.049 95.8458V112.089L111.305 118.586Z" fill="#9269AD"/>
<path opacity="0.5" d="M111.305 118.586V102.343L100.049 95.8458V112.089L111.305 118.586Z" fill="white"/>
<path d="M102.862 110.468L100.049 112.089V95.8458L102.862 97.4736V110.468Z" fill="#263238"/>
<path d="M111.305 115.338L102.862 110.468L100.049 112.089L111.305 118.586V115.338Z" fill="#263238"/>
<path d="M116.93 149.612C116.93 145.026 120.082 143.121 123.968 145.365C127.854 147.61 130.998 153.144 130.998 157.737V185.194L116.93 177.069V149.612Z" fill="#263238"/>
<path d="M130.999 157.737C130.999 153.144 127.854 147.603 123.968 145.365C122.979 144.739 121.828 144.414 120.657 144.43C120.014 145.503 119.699 146.741 119.749 147.991V175.448L130.999 181.946V157.737Z" fill="#455A64"/>
<path d="M130.999 157.737C130.999 153.144 127.854 147.603 123.968 145.365C122.979 144.739 121.828 144.414 120.657 144.43C120.014 145.503 119.699 146.741 119.749 147.991V175.448L130.999 181.946V157.737Z" fill="#9269AD"/>
<path opacity="0.5" d="M130.999 157.737C130.999 153.144 127.854 147.603 123.968 145.365C122.979 144.739 121.828 144.414 120.657 144.43C120.014 145.503 119.699 146.741 119.749 147.991V175.448L130.999 181.946V157.737Z" fill="white"/>
<path d="M125.998 146.896C125.566 146.489 125.103 146.116 124.612 145.781V153.082L119.764 150.269V151.953L124.612 154.772V175.822L125.998 176.619V155.561L130.999 158.45V157.757C130.999 157.425 130.999 157.065 130.95 156.753L125.998 153.899V146.896Z" fill="#455A64"/>
<path d="M153.511 81.2234V71.4774L91.606 35.7422V45.4882L153.511 81.2234Z" fill="#9269AD"/>
<path opacity="0.5" d="M153.511 81.2234V71.4774L91.606 35.7422V45.4882L153.511 81.2234Z" fill="white"/>
<path d="M153.511 81.2234V71.4774L215.415 35.7422V45.4882L153.511 81.2234Z" fill="#9269AD"/>
<path opacity="0.2" d="M153.511 81.2234V71.4774L215.415 35.7422V45.4882L153.511 81.2234Z" fill="black"/>
<path d="M100.049 63.7817C100.049 59.9581 102.571 58.3095 105.674 60.1036C108.777 61.8976 111.305 66.4554 111.305 70.279V95.8457L100.049 89.3484V63.7817Z" fill="#263238"/>
<path d="M105.675 60.0967C105.005 59.6955 104.25 59.4582 103.472 59.4041C103.044 60.2633 102.834 61.2151 102.862 62.1748V87.7415L111.306 92.5902V70.2722C111.306 66.4486 108.785 61.8908 105.675 60.0967Z" fill="#9269AD"/>
<path opacity="0.5" d="M105.675 60.0967C105.005 59.6955 104.25 59.4582 103.472 59.4041C103.044 60.2633 102.834 61.2151 102.862 62.1748V87.7415L111.306 92.5902V70.2722C111.306 66.4486 108.785 61.8908 105.675 60.0967Z" fill="white"/>
<path d="M100.049 89.3485L102.862 87.7207L111.305 92.5902V95.8458L100.049 89.3485Z" fill="#263238"/>
<path d="M116.93 74.9133C116.93 70.3208 120.082 68.4229 123.968 70.6671C127.854 72.9114 130.998 78.4459 130.998 83.0384V107.22L116.93 99.0946V74.9133Z" fill="#263238"/>
<path d="M130.999 83.0381C130.999 78.4457 127.854 72.9043 123.968 70.6669C122.979 70.0401 121.828 69.7151 120.657 69.7318C120.014 70.8049 119.699 72.0423 119.749 73.2922V97.4666L130.999 103.971V83.0381Z" fill="#9269AD"/>
<path opacity="0.5" d="M130.999 83.0381C130.999 78.4457 127.854 72.9043 123.968 70.6669C122.979 70.0401 121.828 69.7151 120.657 69.7318C120.014 70.8049 119.699 72.0423 119.749 73.2922V97.4666L130.999 103.971V83.0381Z" fill="white"/>
<path d="M119.749 97.4668L116.93 99.0946L130.998 107.22V103.971L119.749 97.4668Z" fill="#263238"/>
<path d="M136.63 84.9084C136.63 81.0848 139.145 79.4363 142.255 81.2303C145.365 83.0243 147.886 87.5821 147.886 91.4057V116.972L136.63 110.475V84.9084Z" fill="#263238"/>
<path d="M142.254 81.2233C141.585 80.8231 140.83 80.5858 140.052 80.5306C139.622 81.3895 139.413 82.3416 139.442 83.3013V108.868L147.886 113.717V91.3988C147.886 87.5752 145.365 83.0174 142.254 81.2233Z" fill="#9269AD"/>
<path opacity="0.5" d="M142.254 81.2233C141.585 80.8231 140.83 80.5858 140.052 80.5306C139.622 81.3895 139.413 82.3416 139.442 83.3013V108.868L147.886 113.717V91.3988C147.886 87.5752 145.365 83.0174 142.254 81.2233Z" fill="white"/>
<path d="M139.443 108.84L136.63 110.468L147.886 116.965V113.717L139.443 108.84Z" fill="#263238"/>
<path d="M136.63 159.6C136.63 155.776 139.145 154.128 142.255 155.922C145.365 157.716 147.886 162.274 147.886 166.097V194.94L136.63 188.443V159.6Z" fill="#263238"/>
<path d="M142.254 155.922C141.584 155.521 140.83 155.284 140.052 155.229C139.623 156.088 139.414 157.04 139.442 158V186.836L147.886 191.685V166.056C147.886 162.274 145.364 157.716 142.254 155.922Z" fill="#9269AD"/>
<path opacity="0.5" d="M142.254 155.922C141.584 155.521 140.83 155.284 140.052 155.229C139.623 156.088 139.414 157.04 139.442 158V186.836L147.886 191.685V166.056C147.886 162.274 145.364 157.716 142.254 155.922Z" fill="white"/>
<path d="M136.63 188.443V178.697L147.886 185.194V194.94L136.63 188.443Z" fill="#37474F"/>
<path d="M136.63 178.697L139.443 177.069L147.879 181.946L147.886 185.194L136.63 178.697Z" fill="#263238"/>
<path d="M100.049 138.48C100.049 134.656 102.571 133.008 105.674 134.802C108.777 136.596 111.305 141.154 111.305 144.977V173.82L100.049 167.337V138.48Z" fill="#263238"/>
<path d="M105.675 134.781C105.004 134.383 104.25 134.146 103.472 134.089C103.044 134.948 102.834 135.9 102.862 136.859V165.702L111.306 170.551V144.922C111.306 141.147 108.785 136.589 105.675 134.781Z" fill="#9269AD"/>
<path opacity="0.5" d="M105.675 134.781C105.004 134.383 104.25 134.146 103.472 134.089C103.044 134.948 102.834 135.9 102.862 136.859V165.702L111.306 170.551V144.922C111.306 141.147 108.785 136.589 105.675 134.781Z" fill="white"/>
<path d="M111.305 173.82V164.074L100.049 157.577V167.323L111.305 173.82Z" fill="#37474F"/>
<path d="M100.049 157.577L102.862 155.949L111.305 160.826V164.074L100.049 157.577Z" fill="#263238"/>
<path d="M116.93 177.069V173.821L130.998 181.946V185.194L116.93 177.069Z" fill="#37474F"/>
<path d="M116.93 173.82L119.749 172.199L130.998 178.697V181.945L116.93 173.82Z" fill="#263238"/>
<path d="M153.511 71.4774L215.415 35.7422L153.511 0L91.606 35.7422L153.511 71.4774Z" fill="#9269AD"/>
<path opacity="0.7" d="M153.511 71.4774L215.415 35.7422L153.511 0L91.606 35.7422L153.511 71.4774Z" fill="white"/>
<path d="M153.51 64.9801L204.158 35.7422L153.51 6.49731L102.861 35.7422L153.51 64.9801Z" fill="#9269AD"/>
<path d="M153.51 6.49731V16.2502L111.305 40.6117L102.861 35.7422L153.51 6.49731Z" fill="#9269AD"/>
<path opacity="0.2" d="M153.51 6.49731V16.2502L111.305 40.6117L102.861 35.7422L153.51 6.49731Z" fill="black"/>
<path d="M153.511 6.49731L204.159 35.7422L195.716 40.6117L153.511 16.2502V6.49731Z" fill="#9269AD"/>
<path opacity="0.5" d="M153.511 6.49731L204.159 35.7422L195.716 40.6117L153.511 16.2502V6.49731Z" fill="white"/>
<path d="M145.067 14.6223L130.999 22.7474L150.698 34.1143L164.767 25.9961L145.067 14.6223Z" fill="#455A64"/>
<path d="M130.999 22.7476V32.4935L150.698 43.8604V34.1144L130.999 22.7476Z" fill="#37474F"/>
<path d="M164.766 25.9961V35.7421L150.698 43.8603V34.1143L164.766 25.9961Z" fill="#263238"/>
<path d="M140.447 20.0738C137.891 21.5492 137.891 23.939 140.447 25.4144C141.879 26.142 143.464 26.5213 145.07 26.5213C146.677 26.5213 148.261 26.142 149.694 25.4144C152.243 23.939 152.243 21.5492 149.694 20.0738C148.261 19.3462 146.677 18.9669 145.07 18.9669C143.464 18.9669 141.879 19.3462 140.447 20.0738Z" fill="#37474F"/>
<path d="M142.906 21.5977C141.707 22.228 141.707 23.2601 142.906 23.8904C143.584 24.2054 144.322 24.3685 145.07 24.3685C145.818 24.3685 146.557 24.2054 147.235 23.8904C148.426 23.2601 148.426 22.228 147.235 21.5977C146.557 21.2828 145.818 21.1196 145.07 21.1196C144.322 21.1196 143.584 21.2828 142.906 21.5977Z" fill="#263238"/>
<path d="M155.048 34.8486L157.861 36.4695V42.9737" stroke="#455A64" stroke-width="2" stroke-linecap="round" stroke-linejoin="round"/>
<path d="M159.135 32.4934L161.947 34.1143V40.6116" stroke="#455A64" stroke-width="2" stroke-linecap="round" stroke-linejoin="round"/>
<path d="M70.8643 130.403V152.791C70.8777 152.95 70.9336 153.103 71.0262 153.233C71.1188 153.364 71.2447 153.467 71.3907 153.532C71.7903 153.734 72.2315 153.838 72.6791 153.838C73.1266 153.838 73.5679 153.734 73.9674 153.532C74.1135 153.467 74.2394 153.364 74.332 153.233C74.4246 153.103 74.4805 152.95 74.4939 152.791V130.417L70.8643 130.403Z" fill="#37474F"/>
<path d="M81.4207 136.915C81.4207 139.233 80.4997 141.456 78.8603 143.096C77.221 144.735 74.9975 145.656 72.6791 145.656C70.3607 145.656 68.1372 144.735 66.4979 143.096C64.8585 141.456 63.9375 139.233 63.9375 136.915C63.9375 127.979 67.8511 118.212 72.6791 118.212C77.5071 118.212 81.4207 127.854 81.4207 136.915Z" fill="#9269AD"/>
<path d="M81.4205 136.915C81.4205 136.686 81.4205 136.457 81.4205 136.222V135.993C81.3529 136.946 80.9814 137.851 80.3607 138.577C78.7052 140.655 75.0548 142.913 71.2866 141.348C64.9556 138.695 64.7824 131.207 66.1885 125.007C64.712 128.806 63.9534 132.846 63.9512 136.921C63.9512 139.24 64.8722 141.463 66.5115 143.103C68.1509 144.742 70.3743 145.663 72.6928 145.663C75.0112 145.663 77.2346 144.742 78.874 143.103C80.5134 141.463 81.4343 139.24 81.4343 136.921L81.4205 136.915Z" fill="#9269AD"/>
<path opacity="0.1" d="M81.4205 136.915C81.4205 136.686 81.4205 136.457 81.4205 136.222V135.993C81.3529 136.946 80.9814 137.851 80.3607 138.577C78.7052 140.655 75.0548 142.913 71.2866 141.348C64.9556 138.695 64.7824 131.207 66.1885 125.007C64.712 128.806 63.9534 132.846 63.9512 136.921C63.9512 139.24 64.8722 141.463 66.5115 143.103C68.1509 144.742 70.3743 145.663 72.6928 145.663C75.0112 145.663 77.2346 144.742 78.874 143.103C80.5134 141.463 81.4343 139.24 81.4343 136.921L81.4205 136.915Z" fill="black"/>
<path d="M6.92334 91.1425V113.523C6.9377 113.686 6.99618 113.843 7.09255 113.976C7.18891 114.109 7.31956 114.213 7.47056 114.278C7.86891 114.479 8.30906 114.584 8.75547 114.584C9.20188 114.584 9.64203 114.479 10.0404 114.278C10.1869 114.213 10.3134 114.109 10.4071 113.979C10.5008 113.849 10.5583 113.696 10.5738 113.537V91.1425H6.92334Z" fill="#37474F"/>
<path d="M17.4797 97.6743C17.5126 98.8425 17.3109 100.005 16.8866 101.094C16.4622 102.183 15.8239 103.176 15.0092 104.014C14.1946 104.852 13.2201 105.518 12.1436 105.973C11.0671 106.428 9.91026 106.662 8.74159 106.662C7.57292 106.662 6.41611 106.428 5.33958 105.973C4.26304 105.518 3.28863 104.852 2.47397 104.014C1.6593 103.176 1.02093 102.183 0.596592 101.094C0.172254 100.005 -0.0294306 98.8425 0.0034636 97.6743C0.0034636 88.7388 3.91709 78.972 8.73813 78.972C13.5592 78.972 17.4797 88.5933 17.4797 97.6743Z" fill="#9269AD"/>
<path d="M297.557 91.1425V113.523C297.541 113.683 297.484 113.835 297.39 113.965C297.296 114.096 297.17 114.199 297.023 114.264C296.625 114.466 296.185 114.57 295.738 114.57C295.292 114.57 294.852 114.466 294.454 114.264C294.307 114.199 294.181 114.096 294.087 113.965C293.993 113.835 293.936 113.683 293.92 113.523V91.1425H297.557Z" fill="#37474F"/>
<path d="M287.001 97.6745C286.968 98.8427 287.169 100.006 287.594 101.095C288.018 102.183 288.656 103.176 289.471 104.014C290.286 104.852 291.26 105.518 292.337 105.973C293.413 106.428 294.57 106.662 295.739 106.662C296.907 106.662 298.064 106.428 299.141 105.973C300.217 105.518 301.192 104.852 302.006 104.014C302.821 103.176 303.459 102.183 303.884 101.095C304.308 100.006 304.51 98.8427 304.477 97.6745C304.477 88.7389 300.563 78.9722 295.742 78.9722C290.921 78.9722 287.001 88.5935 287.001 97.6745Z" fill="#9269AD"/>
<path d="M148.26 154.522H154.335V147.824C154.335 147.425 154.256 147.03 154.103 146.662C153.951 146.293 153.726 145.958 153.444 145.676C153.162 145.395 152.826 145.171 152.457 145.019C152.088 144.867 151.693 144.789 151.294 144.79C150.49 144.79 149.718 145.11 149.149 145.679C148.58 146.248 148.26 147.02 148.26 147.824V154.522Z" fill="#9269AD"/>
<g opacity="0.5">
<path d="M148.26 154.522H154.335V147.824C154.335 147.425 154.256 147.03 154.103 146.662C153.951 146.293 153.726 145.958 153.444 145.676C153.162 145.395 152.826 145.171 152.457 145.019C152.088 144.867 151.693 144.789 151.294 144.79C150.49 144.79 149.718 145.11 149.149 145.679C148.58 146.248 148.26 147.02 148.26 147.824V154.522Z" fill="black"/>
</g>
<path d="M149.07 156.753C149.479 154.717 150.248 152.472 150.206 151.461L149.611 151.496C149.257 151.519 148.922 151.663 148.66 151.902C148.398 152.141 148.226 152.462 148.17 152.812C147.955 154.135 147.63 156.157 147.477 156.968C147.341 158.003 147.109 159.023 146.785 160.016C146.729 160.159 146.623 160.277 146.487 160.348C146.191 160.523 145.925 160.742 145.697 160.999C145.475 161.193 145.302 161.235 145.323 161.304C145.357 161.381 145.418 161.442 145.495 161.476C145.573 161.509 145.659 161.512 145.739 161.484C145.916 161.429 146.086 161.352 146.244 161.255C146.103 161.56 145.911 161.839 145.676 162.08C145.15 162.634 145.101 162.994 146.078 163.077C146.688 163.126 147.2 162.786 147.761 161.484C147.976 161.005 148.156 160.512 148.302 160.009C148.676 158.713 148.911 157.557 149.07 156.753Z" fill="#FFA8A7"/>
<path d="M158.062 174.264C158.29 174.139 158.443 174.437 158.65 174.672C158.831 174.847 158.972 175.057 159.066 175.289C159.059 175.476 159.012 175.659 158.928 175.826C158.845 175.993 158.726 176.141 158.581 176.259C158.234 176.471 157.985 176.812 157.889 177.208C157.862 177.451 157.768 177.683 157.616 177.875C157.464 178.068 157.261 178.213 157.03 178.295C156.761 178.407 156.472 178.465 156.181 178.465C155.89 178.465 155.601 178.407 155.333 178.295C155.007 178.087 155.333 177.852 155.762 177.201C156.358 176.349 156.822 175.739 156.822 174.943L158.062 174.264Z" fill="#263238"/>
<path d="M157.584 173.53L158.069 174.222C158.172 174.371 158.214 174.554 158.184 174.733C158.154 174.911 158.056 175.071 157.909 175.178C157.761 175.268 157.586 175.303 157.415 175.276C157.244 175.25 157.088 175.163 156.974 175.033L156.212 174.195L157.584 173.53Z" fill="#FFA8A7"/>
<path d="M148.26 160.521C148.331 162.356 148.677 164.171 149.285 165.903C149.652 166.898 150.116 167.854 150.671 168.757C150.872 169.103 156.6 174.68 156.6 174.68C156.874 174.657 157.133 174.545 157.337 174.361C157.541 174.177 157.678 173.931 157.729 173.661C157.729 173.661 155.381 169.671 154.868 168.854C154.199 168.059 153.422 167.359 152.562 166.776L152.728 159.614L148.26 160.521Z" fill="#37474F"/>
<path d="M150.259 177.242L149.05 176.967L148.649 178.73L149.858 179.005L150.259 177.242Z" fill="#FFA8A7"/>
<path d="M149.285 159.524L154.439 159.725C154.79 160.487 154.94 161.326 154.875 162.163C154.702 164.677 152.319 169.173 152.319 169.173C152.43 170.19 152.379 171.219 152.167 172.22C151.625 174.054 150.987 175.857 150.255 177.623C150.021 177.659 149.782 177.643 149.555 177.577C149.328 177.512 149.118 177.397 148.939 177.242C148.939 177.242 149.715 170.35 149.923 168.584C150.151 166.672 150.733 163.181 150.733 163.181C150.347 162.8 149.999 162.382 149.694 161.934C149.154 161.25 148.876 160.395 148.911 159.524" fill="#37474F"/>
<path d="M156.406 158.166C156.231 156.39 155.944 154.627 155.547 152.888C155.5 152.601 155.36 152.338 155.148 152.139C154.937 151.94 154.665 151.816 154.377 151.786C152.693 152.694 152.707 153.899 154.141 155.354C154.141 155.354 154.737 157.695 154.924 158.817C155.12 159.842 155.212 160.884 155.201 161.927C155.192 162.08 155.125 162.224 155.014 162.329C154.784 162.584 154.593 162.871 154.446 163.181C154.293 163.43 154.134 163.52 154.176 163.583C154.23 163.647 154.306 163.689 154.39 163.699C154.473 163.709 154.558 163.688 154.626 163.638C154.78 163.534 154.919 163.411 155.041 163.271C154.994 163.601 154.893 163.922 154.744 164.22C154.397 164.913 154.453 165.266 155.436 165.065C156.032 164.94 156.427 164.462 156.586 163.049C156.656 162.528 156.689 162.003 156.683 161.477C156.572 160.154 156.489 158.983 156.406 158.166Z" fill="#FFA8A7"/>
<path d="M148.78 178.136L148.814 177.963C148.69 177.963 148.122 178.891 147.602 179.286C147.083 179.68 146.501 179.978 146.217 180.158C145.933 180.339 146.376 180.948 147.242 180.997C147.752 181.026 148.259 180.908 148.704 180.657C148.946 180.429 149.119 180.048 149.313 179.881C149.507 179.715 149.895 179.577 150.006 179.362C150.078 179.153 150.101 178.93 150.075 178.711C150.075 178.482 150.075 178.233 149.985 178.24V178.371C149.755 178.486 149.5 178.541 149.244 178.531C149.057 178.524 148.676 178.475 148.78 178.136Z" fill="#263238"/>
<path d="M150.075 167.413C150.075 167.413 150.594 163.749 150.733 163.181C150.319 162.954 149.933 162.68 149.583 162.364C149.823 162.705 150.085 163.031 150.366 163.34L150.075 167.413Z" fill="#263238"/>
<path d="M153.185 167.289C152.936 167.934 152.647 168.563 152.319 169.173C152.319 169.173 152.382 170.35 152.375 170.558L152.7 170.842C152.708 170.31 152.66 169.778 152.555 169.256C152.836 168.625 153.048 167.965 153.185 167.289Z" fill="#263238"/>
<path d="M152.562 151.489C153.171 151.558 153.777 151.657 154.377 151.786C152.7 152.964 154.141 155.354 154.141 155.354L153.248 157.827C153.848 158.614 154.335 159.481 154.695 160.403C154.224 160.944 151.426 162.578 148.233 160.521C148.233 160.521 148.42 158.72 148.683 157.363C148.226 155.16 148.094 154.384 148.233 153.864C148.607 152.41 149.466 151.482 150.449 151.426L152.562 151.489Z" fill="#F5F5F5"/>
<path d="M149.284 146.016C148.966 146.204 148.592 147.014 148.592 148.704C148.626 150.138 149.091 150.491 149.326 150.595C149.695 150.672 150.078 150.66 150.441 150.56V151.406C150.441 151.406 149.839 152.098 149.88 152.507C149.922 152.916 150.753 152.992 151.314 152.611C151.725 152.292 152.079 151.905 152.36 151.468V149.494C152.36 149.494 152.623 149.743 153.053 149.362C153.228 149.237 153.347 149.047 153.385 148.835C153.422 148.623 153.375 148.404 153.254 148.226C153.18 148.158 153.092 148.108 152.996 148.081C152.899 148.053 152.798 148.049 152.7 148.069C152.602 148.088 152.51 148.131 152.431 148.193C152.353 148.256 152.29 148.336 152.249 148.427C151.677 148.404 151.119 148.237 150.628 147.942C150.269 147.749 149.96 147.474 149.726 147.14C149.493 146.805 149.342 146.42 149.284 146.016Z" fill="#FFA8A7"/>
<path d="M150.207 148.344C150.207 148.392 150.226 148.437 150.259 148.471C150.293 148.505 150.339 148.524 150.387 148.524C150.434 148.524 150.48 148.505 150.514 148.471C150.548 148.437 150.567 148.392 150.567 148.344C150.569 148.319 150.566 148.295 150.558 148.271C150.55 148.248 150.538 148.226 150.522 148.207C150.506 148.189 150.486 148.173 150.464 148.162C150.442 148.151 150.418 148.145 150.394 148.143C150.368 148.143 150.342 148.148 150.319 148.158C150.295 148.169 150.274 148.184 150.256 148.203C150.239 148.221 150.225 148.244 150.217 148.268C150.208 148.292 150.205 148.318 150.207 148.344Z" fill="#263238"/>
<path d="M150.158 149.563L149.743 149.695C149.75 149.723 149.763 149.749 149.78 149.772C149.798 149.795 149.82 149.814 149.845 149.828C149.87 149.843 149.898 149.852 149.927 149.855C149.956 149.858 149.985 149.855 150.013 149.847C150.069 149.828 150.116 149.788 150.143 149.735C150.17 149.682 150.176 149.62 150.158 149.563Z" fill="#F28F8F"/>
<path d="M148.731 147.79L149.092 147.54C149.077 147.516 149.057 147.495 149.034 147.478C149.011 147.462 148.984 147.45 148.956 147.444C148.928 147.439 148.899 147.438 148.871 147.444C148.843 147.45 148.817 147.462 148.794 147.478C148.769 147.494 148.747 147.515 148.731 147.54C148.714 147.564 148.703 147.592 148.697 147.621C148.691 147.65 148.691 147.68 148.697 147.709C148.703 147.738 148.715 147.765 148.731 147.79Z" fill="#263238"/>
<path d="M148.814 148.212C148.812 148.237 148.815 148.261 148.823 148.285C148.831 148.308 148.843 148.33 148.859 148.349C148.875 148.367 148.895 148.383 148.917 148.394C148.939 148.405 148.963 148.411 148.987 148.413C149.036 148.413 149.082 148.394 149.117 148.361C149.152 148.327 149.172 148.281 149.174 148.233C149.174 148.209 149.17 148.186 149.161 148.164C149.151 148.142 149.138 148.122 149.121 148.106C149.105 148.089 149.085 148.076 149.063 148.067C149.041 148.058 149.018 148.053 148.994 148.053C148.97 148.053 148.947 148.058 148.925 148.067C148.903 148.076 148.884 148.089 148.867 148.106C148.85 148.122 148.837 148.142 148.828 148.164C148.819 148.186 148.814 148.209 148.814 148.233V148.212Z" fill="#263238"/>
<path d="M149.667 148.108L149.639 149.196L149.064 149.022L149.667 148.108Z" fill="#F28F8F"/>
<path d="M150.456 150.56C150.92 150.505 151.841 150.228 152.014 149.868C151.955 150.057 151.839 150.224 151.682 150.346C151.298 150.572 150.885 150.747 150.456 150.865V150.56Z" fill="#F28F8F"/>
<path d="M153.726 156.51L152.465 158.221L153.241 157.827L153.726 156.51Z" fill="#E0E0E0"/>
<path d="M150.541 186.213C150.852 184.49 150.94 182.735 150.805 180.99C150.801 180.949 150.785 180.91 150.758 180.879C150.731 180.848 150.695 180.826 150.655 180.816C150.615 180.807 150.573 180.811 150.535 180.827C150.497 180.843 150.465 180.871 150.444 180.907L149.108 183.386C149.108 183.386 148.948 185.201 148.782 186.441C148.66 187.572 148.428 188.688 148.089 189.773C148.03 189.927 147.917 190.055 147.771 190.133C147.449 190.32 147.158 190.553 146.905 190.826C146.669 191.041 146.475 191.082 146.503 191.158C146.539 191.243 146.605 191.311 146.688 191.348C146.772 191.385 146.867 191.389 146.953 191.359C147.146 191.3 147.33 191.216 147.501 191.11C147.348 191.439 147.142 191.741 146.891 192.003C146.316 192.606 146.268 192.994 147.32 193.084C147.979 193.139 148.54 192.772 149.149 191.352C149.383 190.833 149.58 190.299 149.738 189.752C150.147 188.339 150.368 187.078 150.541 186.213Z" fill="#B16668"/>
<path d="M156.796 205.885C156.796 205.885 156.879 205.885 157.136 206.044C157.427 206.225 157.681 206.46 157.884 206.737C157.911 206.938 157.896 207.142 157.839 207.337C157.781 207.531 157.683 207.712 157.551 207.866C157.291 208.258 157.153 208.718 157.157 209.189C157.134 209.492 157.049 209.787 156.906 210.056C156.763 210.324 156.565 210.56 156.325 210.747C155.896 211.045 155.369 211.35 155.127 211.274C154.885 211.197 154.871 210.9 155.175 209.584C155.43 208.716 155.611 207.829 155.716 206.931L156.796 205.885Z" fill="#263238"/>
<path d="M156.609 205.635L156.893 206.016C156.938 206.074 156.969 206.142 156.985 206.214C157 206.286 157 206.36 156.983 206.432C156.941 206.689 156.808 206.922 156.609 207.09C156.496 207.175 156.356 207.216 156.215 207.208C156.117 207.2 156.022 207.172 155.936 207.126C155.85 207.079 155.775 207.015 155.716 206.937L155.494 206.64L156.609 205.635Z" fill="#B16668"/>
<path d="M149.717 189.212L152.918 192.412H152.828L152.093 198.203C152.674 198.596 153.169 199.102 153.548 199.692C154.157 200.634 156.582 205.635 156.582 205.635C156.582 205.635 156.298 206.75 155.467 206.64C155.467 206.64 154.178 205.033 152.793 203.273C151.276 201.341 149.6 199.249 149.51 198.868C149.046 196.79 149.717 189.212 149.717 189.212Z" fill="#455A64"/>
<path d="M153.61 199.692C154.22 200.634 156.644 205.635 156.644 205.635C156.644 205.635 156.36 206.75 155.529 206.64C155.529 206.64 154.241 205.033 152.855 203.273L153.61 199.692Z" fill="#37474F"/>
<path d="M153.354 209.203C152.996 208.851 152.593 208.549 152.156 208.302C151.944 208.288 151.731 208.288 151.519 208.302C151.328 208.302 151.137 208.281 150.951 208.24C150.568 208.101 150.198 207.932 149.843 207.734C149.692 207.642 149.528 207.572 149.358 207.526C149.06 207.471 148.824 207.464 148.72 207.796C148.688 207.897 148.676 208.003 148.686 208.108C148.682 208.416 148.752 208.721 148.889 208.997C149.026 209.273 149.227 209.512 149.475 209.694C149.704 209.847 150.009 209.964 150.251 210.103C150.62 210.256 150.975 210.441 151.311 210.657C151.81 211.087 152.274 211.509 152.973 211.232C153.113 211.193 153.24 211.118 153.343 211.017C153.445 210.915 153.521 210.789 153.562 210.65C153.659 210.283 153.313 209.59 153.354 209.203Z" fill="#263238"/>
<path d="M149.752 188.713L156.609 189.406C156.796 191.385 156.625 193.382 156.104 195.301C155.549 197.787 154.933 200.399 154.933 200.399C155.229 201.359 155.25 202.384 154.995 203.356C154.462 205.095 153.471 209.715 153.471 209.715C153.156 209.05 152.602 208.529 151.92 208.254C151.92 208.254 152.169 205.822 152.322 204.063C152.474 202.303 152.564 200.835 152.619 199.748C152.709 198.016 152.959 192.384 152.959 192.384H152.869C152.869 192.384 150.174 191.11 149.731 189.184L149.752 188.713Z" fill="#455A64"/>
<path d="M152.918 192.412C152.143 192.052 151.423 191.586 150.777 191.027L152.447 192.585L152.142 197.801L152.918 192.412Z" fill="#37474F"/>
<path d="M152.266 180.228C151.248 180.228 150.029 180.553 149.544 181.488C149.112 182.676 148.821 183.911 148.678 185.167C148.678 185.167 149.059 185.991 150.486 185.894L152.266 180.228Z" fill="#263238"/>
<path d="M158.881 187.743C158.597 184.813 157.537 182.673 157.413 181.939L156.554 185.561C156.838 186.518 157.07 187.489 157.246 188.471C157.457 189.587 157.559 190.722 157.551 191.858C157.538 192.023 157.467 192.177 157.35 192.294C157.096 192.567 156.886 192.878 156.727 193.216C156.561 193.493 156.388 193.583 156.436 193.652C156.494 193.721 156.576 193.766 156.666 193.778C156.756 193.789 156.847 193.767 156.921 193.714C157.089 193.602 157.242 193.469 157.378 193.319C157.331 193.677 157.228 194.025 157.073 194.352C156.699 195.093 156.762 195.488 157.766 195.266C158.417 195.127 158.847 194.615 159.02 193.077C159.093 192.512 159.127 191.943 159.124 191.373C159.082 189.898 158.964 188.623 158.881 187.743Z" fill="#B16668"/>
<path d="M154.351 180.29C155.557 180.581 157.205 180.983 157.683 182.271C158.08 183.518 158.411 184.785 158.674 186.067C158.41 186.322 158.09 186.509 157.739 186.614C157.388 186.719 157.018 186.738 156.658 186.67L156.381 185.693L156.609 189.427C155.667 190.459 151.761 190.722 149.717 189.212C149.717 189.212 150.071 183.67 150.071 182.638C150.051 182.335 150.093 182.03 150.193 181.743C150.294 181.456 150.451 181.192 150.656 180.967C150.861 180.742 151.11 180.56 151.386 180.433C151.663 180.306 151.962 180.236 152.266 180.228L154.351 180.29Z" fill="#37474F"/>
<path d="M156.381 185.693L155.771 183.781L156.436 186.642L156.381 185.693Z" fill="#263238"/>
<path d="M154.801 174.915C154.91 174.903 155.02 174.916 155.123 174.952C155.226 174.988 155.319 175.046 155.397 175.123C155.653 175.386 155.598 175.871 155.397 176.979L154.607 177.069L154.801 174.915Z" fill="#263238"/>
<path d="M150.202 174.596C150.03 174.597 149.86 174.561 149.703 174.492C149.461 174.354 149.398 174.631 149.53 174.866C149.618 175.039 149.749 175.186 149.91 175.292C150.072 175.399 150.258 175.463 150.451 175.476L150.673 174.86L150.202 174.596Z" fill="#263238"/>
<path d="M154.435 177.069C154.553 177.138 154.719 176.917 154.864 176.764C154.921 176.699 154.993 176.649 155.075 176.619C155.156 176.589 155.244 176.581 155.329 176.595C155.415 176.609 155.495 176.644 155.563 176.698C155.631 176.752 155.684 176.823 155.716 176.903C155.952 177.409 155.405 178.081 155.086 178.288C154.997 178.365 154.886 178.412 154.769 178.422C154.652 178.432 154.535 178.405 154.435 178.344L154.352 180.276C154.208 180.585 153.991 180.854 153.719 181.06C153.448 181.265 153.13 181.4 152.793 181.454C151.657 181.613 151.893 180.678 152.267 180.214V179.521C151.985 179.582 151.695 179.596 151.408 179.563C151.079 179.325 150.824 178.998 150.674 178.621C150.189 177.663 150.083 176.557 150.376 175.525C150.778 173.793 152.641 173.737 153.749 174.437C154.857 175.137 154.435 177.069 154.435 177.069Z" fill="#B16668"/>
<path d="M154.435 177.27C154.49 177.27 154.712 176.896 154.864 176.764C155.016 176.633 154.802 174.915 154.802 174.915C154.858 174.737 154.87 174.548 154.837 174.364C154.803 174.181 154.724 174.008 154.608 173.862C154.206 173.446 153.437 173.516 152.869 173.495C152.175 173.5 151.486 173.363 150.847 173.093C150.043 172.74 149.981 172.698 149.884 173.052C149.805 173.343 149.795 173.648 149.854 173.943C149.912 174.239 150.039 174.517 150.223 174.756L150.486 175.185C150.787 175.364 151.128 175.464 151.477 175.476C152.219 175.471 152.956 175.359 153.666 175.143C153.88 175.143 153.929 175.324 154.047 175.905C154.164 176.487 154.234 177.263 154.435 177.27Z" fill="#263238"/>
<path d="M154.802 175.046L155.494 174.665C155.472 174.618 155.441 174.575 155.401 174.54C155.362 174.505 155.316 174.478 155.266 174.461C155.216 174.444 155.164 174.437 155.111 174.442C155.059 174.446 155.008 174.461 154.961 174.485C154.867 174.541 154.799 174.63 154.769 174.734C154.739 174.839 154.751 174.95 154.802 175.046Z" fill="#263238"/>
<path d="M152.266 179.528C152.751 179.435 153.226 179.298 153.686 179.119C153.901 179.008 154.077 178.834 154.192 178.621C154.137 178.834 154.04 179.034 153.908 179.21C153.638 179.556 152.266 179.805 152.266 179.805V179.528Z" fill="#9A4A4D"/>
<path d="M152.225 177.035C152.225 177.091 152.247 177.146 152.288 177.186C152.328 177.227 152.382 177.249 152.439 177.249C152.491 177.24 152.537 177.213 152.57 177.173C152.604 177.133 152.622 177.083 152.622 177.031C152.622 176.979 152.604 176.929 152.57 176.889C152.537 176.849 152.491 176.822 152.439 176.813C152.411 176.813 152.382 176.819 152.356 176.83C152.329 176.841 152.305 176.858 152.285 176.878C152.265 176.899 152.249 176.923 152.239 176.95C152.229 176.977 152.224 177.006 152.225 177.035Z" fill="#263238"/>
<path d="M152.46 176.238L152.911 176.487C152.941 176.424 152.947 176.352 152.926 176.285C152.905 176.219 152.86 176.162 152.8 176.127C152.771 176.111 152.738 176.1 152.705 176.097C152.671 176.094 152.638 176.098 152.606 176.108C152.574 176.118 152.545 176.135 152.519 176.158C152.494 176.18 152.474 176.207 152.46 176.238Z" fill="#263238"/>
<path d="M152.363 178.42L151.878 178.6C151.902 178.665 151.95 178.718 152.012 178.748C152.074 178.777 152.146 178.782 152.211 178.759C152.275 178.733 152.326 178.683 152.355 178.62C152.383 178.557 152.386 178.485 152.363 178.42Z" fill="#9A4A4D"/>
<path d="M150.355 176.411L150.77 176.099C150.751 176.071 150.726 176.047 150.697 176.029C150.668 176.011 150.636 175.999 150.602 175.994C150.568 175.988 150.534 175.99 150.501 175.999C150.468 176.007 150.437 176.023 150.41 176.044C150.356 176.087 150.319 176.148 150.309 176.217C150.299 176.285 150.315 176.354 150.355 176.411Z" fill="#263238"/>
<path d="M150.486 176.972C150.486 177.027 150.508 177.08 150.547 177.119C150.586 177.158 150.639 177.18 150.694 177.18C150.749 177.18 150.802 177.158 150.841 177.119C150.88 177.08 150.902 177.027 150.902 176.972C150.903 176.944 150.898 176.916 150.888 176.889C150.878 176.863 150.863 176.839 150.844 176.818C150.825 176.798 150.802 176.781 150.776 176.769C150.75 176.758 150.722 176.751 150.694 176.75C150.666 176.751 150.638 176.758 150.613 176.769C150.587 176.781 150.564 176.798 150.544 176.818C150.525 176.839 150.51 176.863 150.5 176.889C150.49 176.916 150.486 176.944 150.486 176.972Z" fill="#263238"/>
<path d="M151.477 176.944L151.671 178.198L150.978 178.115L151.477 176.944Z" fill="#9A4A4D"/>
<path d="M152.25 174.672C151.376 174.672 150.537 174.325 149.919 173.707C149.301 173.088 148.953 172.25 148.953 171.375V171.237C148.953 170.502 149.245 169.797 149.765 169.278C150.284 168.758 150.989 168.466 151.724 168.466H152.728C153.463 168.466 154.168 168.758 154.687 169.278C155.207 169.797 155.499 170.502 155.499 171.237V171.375C155.499 172.241 155.158 173.073 154.55 173.69C153.943 174.307 153.116 174.66 152.25 174.672Z" fill="#263238"/>
<path d="M154.695 181.433C154.259 179.223 153.421 176.785 153.462 175.684L154.107 175.725C154.492 175.75 154.857 175.905 155.142 176.164C155.428 176.423 155.617 176.772 155.679 177.152C155.908 178.593 156.261 180.789 156.372 181.689C156.516 182.814 156.764 183.922 157.113 185C157.172 185.155 157.289 185.282 157.438 185.354C157.755 185.545 158.044 185.778 158.297 186.046C158.533 186.261 158.727 186.303 158.699 186.379C158.664 186.463 158.597 186.531 158.514 186.568C158.43 186.606 158.335 186.61 158.249 186.58C158.058 186.518 157.874 186.434 157.702 186.33C157.854 186.66 158.06 186.962 158.311 187.224C158.886 187.826 158.935 188.214 157.882 188.304C157.189 188.36 156.663 187.993 156.053 186.573C155.819 186.054 155.622 185.519 155.464 184.973C155.125 183.56 154.869 182.306 154.695 181.433Z" fill="#B16668"/>
<path d="M153.192 175.649C153.802 175.59 154.417 175.688 154.979 175.933C155.207 176.065 155.397 176.252 155.533 176.477C155.668 176.703 155.745 176.959 155.755 177.221C155.886 177.872 156.101 179.583 156.101 179.583C156.101 179.583 155.741 180.373 154.141 180.048L153.192 175.649Z" fill="#263238"/>
<path d="M148.627 201.112C148.627 201.112 148.544 201.112 148.288 201.271C147.997 201.453 147.743 201.688 147.54 201.964C147.513 202.165 147.528 202.369 147.586 202.564C147.643 202.759 147.741 202.939 147.872 203.093C148.133 203.485 148.27 203.946 148.267 204.416C148.289 204.719 148.375 205.015 148.518 205.283C148.661 205.552 148.859 205.787 149.098 205.975C149.528 206.272 150.061 206.577 150.297 206.501C150.532 206.425 150.553 206.127 150.248 204.811C149.994 203.943 149.813 203.056 149.708 202.158L148.627 201.112Z" fill="#263238"/>
<path d="M148.814 200.863L148.53 201.244C148.485 201.302 148.454 201.37 148.439 201.441C148.423 201.513 148.423 201.588 148.44 201.659C148.482 201.916 148.615 202.15 148.814 202.317C148.928 202.402 149.067 202.444 149.209 202.435C149.306 202.428 149.401 202.4 149.487 202.353C149.573 202.307 149.648 202.243 149.708 202.165L149.929 201.867L148.814 200.863Z" fill="#B16668"/>
<path d="M155.547 184.55L153.892 185.173L152.507 187.639H152.597L153.331 193.43C152.75 193.823 152.255 194.33 151.876 194.919C151.267 195.861 148.842 200.863 148.842 200.863C148.842 200.863 149.126 201.978 149.957 201.867C149.957 201.867 151.246 200.26 152.631 198.501C153.813 197.099 154.909 195.628 155.915 194.095C156.552 191.851 155.547 184.55 155.547 184.55Z" fill="#9269AD"/>
<path d="M151.848 194.92C151.239 195.862 148.814 200.863 148.814 200.863C148.814 200.863 149.098 201.978 149.93 201.867C149.93 201.867 151.218 200.26 152.603 198.501L151.848 194.92Z" fill="#9269AD"/>
<path opacity="0.2" d="M151.848 194.92C151.239 195.862 148.814 200.863 148.814 200.863C148.814 200.863 149.098 201.978 149.93 201.867C149.93 201.867 151.218 200.26 152.603 198.501L151.848 194.92Z" fill="black"/>
<path d="M152.05 204.451C152.448 204.15 152.886 203.905 153.352 203.723C153.565 203.728 153.778 203.747 153.989 203.779C154.178 203.8 154.368 203.8 154.557 203.779C154.956 203.693 155.348 203.574 155.728 203.426C155.89 203.352 156.063 203.305 156.24 203.287C156.538 203.287 156.774 203.287 156.836 203.633C156.853 203.739 156.853 203.846 156.836 203.952C156.803 204.259 156.697 204.554 156.527 204.811C156.357 205.069 156.128 205.283 155.859 205.434C155.617 205.552 155.298 205.635 155.042 205.732C154.654 205.835 154.276 205.972 153.913 206.141C153.366 206.494 152.846 206.833 152.195 206.487C152.062 206.431 151.945 206.342 151.857 206.228C151.768 206.114 151.71 205.979 151.689 205.836C151.599 205.434 152.043 204.818 152.05 204.451Z" fill="#263238"/>
<path d="M155.347 184.245L148.932 184.654C148.475 186.115 148.482 187.425 148.988 190.265C149.353 192.093 149.853 193.892 150.484 195.647C150.192 196.611 150.177 197.639 150.442 198.611C150.969 200.35 151.973 204.748 151.973 204.748C152.44 204.314 152.982 203.969 153.573 203.73C153.573 203.73 153.262 201.077 153.109 199.318C152.957 197.559 152.867 196.09 152.811 195.003C152.721 193.271 152.472 187.639 152.472 187.639H152.562C152.562 187.639 154.91 186.78 155.333 184.869L155.347 184.245Z" fill="#9269AD"/>
<path opacity="0.2" d="M152.479 187.639C153.252 187.278 153.973 186.812 154.619 186.254L152.956 187.812L153.254 193.028L152.479 187.639Z" fill="black"/>
<path d="M146.73 182.964C146.968 181.011 147.324 179.075 147.796 177.166C147.847 176.884 147.984 176.624 148.189 176.423C148.394 176.222 148.656 176.09 148.939 176.044C150.761 177.028 150.747 178.337 149.195 179.909C149.195 179.909 148.544 182.458 148.343 183.698C148.132 184.815 148.03 185.949 148.039 187.085C148.051 187.25 148.123 187.405 148.24 187.522C148.494 187.795 148.704 188.105 148.863 188.443C149.029 188.72 149.202 188.81 149.154 188.879C149.096 188.949 149.014 188.994 148.924 189.005C148.834 189.017 148.743 188.994 148.669 188.942C148.501 188.829 148.348 188.696 148.212 188.547C148.266 188.903 148.376 189.249 148.537 189.572C148.911 190.313 148.849 190.701 147.845 190.486C147.194 190.348 146.764 189.835 146.591 188.297C146.518 187.732 146.483 187.163 146.487 186.593C146.529 185.125 146.646 183.85 146.73 182.964Z" fill="#B16668"/>
<path d="M150.906 175.718L148.939 176.044C150.761 177.325 149.195 179.909 149.195 179.909L150.165 182.604C149.684 183.251 149.273 183.947 148.939 184.682C149.535 185.201 153.095 186.427 155.547 184.578C155.547 184.578 155.409 183.601 155.118 182.126C155.616 179.729 155.755 178.884 155.609 178.323C155.201 176.743 154.266 175.739 153.199 175.677L150.906 175.718Z" fill="#455A64"/>
<path d="M154.474 169.775C154.82 169.983 155.25 170.856 155.208 172.691C155.173 174.25 154.668 174.638 154.412 174.769C154.01 174.85 153.595 174.838 153.199 174.735V175.649C153.199 175.649 153.85 176.411 153.809 176.841C153.767 177.27 152.867 177.374 152.25 176.951C151.804 176.608 151.42 176.191 151.114 175.718V173.571C151.114 173.571 150.837 173.841 150.359 173.433C150.169 173.296 150.04 173.091 150 172.86C149.96 172.629 150.012 172.392 150.145 172.2C150.225 172.129 150.32 172.078 150.423 172.05C150.526 172.022 150.633 172.019 150.738 172.04C150.843 172.06 150.941 172.105 151.025 172.17C151.11 172.235 151.178 172.319 151.225 172.414C151.849 172.389 152.456 172.208 152.992 171.888C153.388 171.678 153.729 171.377 153.987 171.01C154.244 170.642 154.411 170.219 154.474 169.775Z" fill="#B16668"/>
<path d="M153.463 172.304C153.463 172.341 153.452 172.378 153.431 172.41C153.41 172.441 153.381 172.466 153.346 172.481C153.312 172.496 153.273 172.501 153.236 172.494C153.199 172.488 153.164 172.471 153.137 172.445C153.109 172.419 153.09 172.386 153.081 172.349C153.072 172.313 153.074 172.274 153.086 172.238C153.099 172.203 153.122 172.172 153.152 172.149C153.182 172.126 153.218 172.112 153.255 172.11C153.282 172.109 153.308 172.113 153.333 172.122C153.357 172.131 153.38 172.145 153.399 172.164C153.419 172.182 153.434 172.203 153.445 172.227C153.456 172.251 153.462 172.277 153.463 172.304Z" fill="#263238"/>
<path d="M153.518 173.627L153.968 173.765C153.96 173.796 153.946 173.825 153.927 173.85C153.907 173.875 153.883 173.897 153.855 173.912C153.827 173.928 153.796 173.937 153.764 173.941C153.733 173.944 153.701 173.941 153.67 173.931C153.61 173.911 153.56 173.867 153.531 173.81C153.503 173.753 153.498 173.687 153.518 173.627Z" fill="#9A4A4D"/>
<path d="M155.069 171.701L154.674 171.431C154.689 171.403 154.71 171.379 154.736 171.361C154.761 171.342 154.79 171.329 154.821 171.322C154.852 171.316 154.884 171.316 154.914 171.323C154.945 171.329 154.974 171.343 154.999 171.361C155.053 171.398 155.09 171.454 155.103 171.517C155.115 171.58 155.103 171.646 155.069 171.701Z" fill="#263238"/>
<path d="M154.979 172.186C154.985 172.215 154.984 172.244 154.976 172.273C154.969 172.302 154.955 172.328 154.937 172.351C154.918 172.374 154.894 172.392 154.867 172.405C154.841 172.417 154.811 172.424 154.782 172.424C154.752 172.424 154.723 172.417 154.697 172.405C154.67 172.392 154.646 172.374 154.627 172.351C154.608 172.328 154.595 172.302 154.587 172.273C154.58 172.244 154.579 172.215 154.585 172.186C154.583 172.16 154.586 172.133 154.595 172.109C154.603 172.084 154.616 172.061 154.634 172.042C154.651 172.022 154.672 172.007 154.696 171.996C154.72 171.985 154.745 171.979 154.772 171.978C154.799 171.977 154.827 171.982 154.852 171.992C154.878 172.002 154.901 172.017 154.921 172.036C154.94 172.056 154.955 172.079 154.965 172.105C154.976 172.131 154.98 172.158 154.979 172.186Z" fill="#263238"/>
<path d="M154.051 172.047L154.085 173.225L154.702 173.038L154.051 172.047Z" fill="#9A4A4D"/>
<path d="M153.193 174.714C152.687 174.645 151.662 174.347 151.502 173.945C151.564 174.152 151.69 174.334 151.863 174.465C152.279 174.71 152.726 174.899 153.193 175.026V174.714Z" fill="#9A4A4D"/>
<path d="M149.646 181.17L151.017 183.026L150.166 182.604L149.646 181.17Z" fill="#263238"/>
<path d="M150.089 168.127C150.349 168.274 150.558 168.498 150.687 168.767C150.816 169.037 150.859 169.339 150.811 169.634C150.762 169.929 150.625 170.202 150.416 170.417C150.208 170.631 149.939 170.776 149.646 170.833C149.352 170.89 149.048 170.855 148.775 170.734C148.502 170.613 148.273 170.411 148.118 170.155C147.963 169.899 147.891 169.602 147.91 169.304C147.929 169.006 148.039 168.72 148.226 168.487C148.432 168.201 148.74 168.004 149.086 167.938C149.432 167.871 149.791 167.938 150.089 168.127Z" fill="#263238"/>
<path d="M148.932 176.044C148.648 176.113 147.921 176.044 147.547 177.485C147.173 178.925 146.938 180.311 146.938 180.311C147.19 180.6 147.52 180.809 147.889 180.913C148.258 181.018 148.649 181.013 149.016 180.9C149.016 180.9 149.487 179.459 149.791 178.51C150.096 177.561 149.93 176.39 148.932 176.044Z" fill="#263238"/>
<path d="M155.522 152.458C155.233 150.845 155.149 149.202 155.273 147.568C155.275 147.528 155.289 147.49 155.315 147.46C155.34 147.43 155.375 147.408 155.413 147.4C155.452 147.391 155.493 147.395 155.529 147.412C155.565 147.429 155.594 147.457 155.612 147.492L156.866 149.812C156.866 149.812 157.012 151.516 157.171 152.68C157.281 153.738 157.496 154.782 157.815 155.797C157.871 155.942 157.976 156.062 158.113 156.136C158.415 156.313 158.688 156.535 158.923 156.794C159.145 156.995 159.325 157.037 159.304 157.106C159.269 157.184 159.207 157.246 159.129 157.28C159.051 157.315 158.963 157.319 158.882 157.293C158.7 157.237 158.526 157.16 158.362 157.064C158.509 157.37 158.703 157.651 158.937 157.896C159.478 158.464 159.526 158.831 158.536 158.914C157.912 158.969 157.393 158.623 156.818 157.293C156.601 156.805 156.416 156.302 156.264 155.79C155.924 154.453 155.689 153.276 155.522 152.458Z" fill="#FFA8A7"/>
<path d="M153.909 146.855C154.858 146.855 155.987 147.159 156.458 148.032C156.863 149.151 157.135 150.313 157.268 151.496C157.268 151.496 156.908 152.271 155.578 152.188L153.909 146.855Z" fill="#9269AD"/>
<path opacity="0.2" d="M153.909 146.855C154.858 146.855 155.987 147.159 156.458 148.032C156.863 149.151 157.135 150.313 157.268 151.496C157.268 151.496 156.908 152.271 155.578 152.188L153.909 146.855Z" fill="black"/>
<path d="M146.324 170.239C146.088 170.122 145.936 170.419 145.721 170.662C145.535 170.836 145.392 171.052 145.306 171.292C145.311 171.481 145.356 171.667 145.44 171.837C145.524 172.007 145.643 172.157 145.791 172.276C145.964 172.383 146.114 172.523 146.233 172.688C146.352 172.853 146.437 173.04 146.483 173.239C146.508 173.488 146.604 173.725 146.76 173.922C146.916 174.118 147.126 174.266 147.363 174.347C147.635 174.461 147.927 174.519 148.222 174.519C148.517 174.519 148.809 174.461 149.081 174.347C149.413 174.132 149.081 173.897 148.644 173.232C148.042 172.366 147.571 171.742 147.571 170.932L146.324 170.239Z" fill="#263238"/>
<path d="M146.809 169.533L146.31 170.26C146.257 170.335 146.219 170.419 146.199 170.508C146.178 170.597 146.176 170.689 146.191 170.78C146.207 170.87 146.24 170.956 146.289 171.033C146.338 171.111 146.401 171.177 146.476 171.23C146.627 171.32 146.805 171.354 146.979 171.326C147.152 171.298 147.31 171.21 147.425 171.077L148.208 170.232L146.809 169.533Z" fill="#FFA8A7"/>
<path d="M155.965 155.271C155.965 156.206 155.73 159.967 155.086 161.629C154.441 163.292 154.074 164.331 153.873 164.677C153.673 165.023 147.84 170.703 147.84 170.703C147.562 170.68 147.3 170.566 147.092 170.38C146.885 170.194 146.744 169.945 146.69 169.671C146.69 169.671 149.08 165.605 149.6 164.774C150.282 163.966 151.072 163.255 151.948 162.661L151.782 155.381L155.965 155.271Z" fill="#37474F"/>
<path d="M154.685 175.105L155.915 174.826L155.507 173.029L154.278 173.308L154.685 175.105Z" fill="#FFA8A7"/>
<path d="M155.966 155.271H150.051C149.924 156.136 149.849 157.008 149.829 157.882C149.78 160.445 152.17 165.1 152.17 165.1C152.052 166.135 152.103 167.184 152.322 168.203C152.873 170.069 153.523 171.905 154.269 173.703C154.507 173.738 154.749 173.722 154.98 173.655C155.21 173.588 155.424 173.472 155.606 173.315C155.606 173.315 154.816 166.298 154.601 164.497C154.373 162.551 153.784 158.997 153.784 158.997C154.174 158.607 154.529 158.183 154.844 157.73C155.391 157.001 155.774 156.162 155.966 155.271Z" fill="#37474F"/>
<path d="M147.702 153.892C147.972 151.156 148.963 149.147 149.087 148.455L149.898 151.849C149.615 152.747 149.384 153.66 149.205 154.585C149.005 155.63 148.908 156.693 148.914 157.757C148.928 157.91 148.997 158.053 149.108 158.159C149.351 158.415 149.552 158.707 149.704 159.025C149.863 159.281 150.022 159.371 149.981 159.427C149.926 159.493 149.849 159.536 149.764 159.547C149.68 159.559 149.594 159.538 149.524 159.489C149.367 159.381 149.223 159.255 149.094 159.115C149.143 159.45 149.246 159.775 149.399 160.078C149.752 160.77 149.697 161.144 148.706 160.937C148.097 160.805 147.695 160.327 147.536 158.859C147.465 158.328 147.433 157.794 147.439 157.259C147.515 155.922 147.626 154.723 147.702 153.892Z" fill="#FFA8A7"/>
<path d="M151.955 146.91C150.819 147.187 149.274 147.54 148.824 148.766C148.455 149.937 148.146 151.125 147.896 152.327C148.144 152.564 148.445 152.739 148.773 152.838C149.102 152.936 149.449 152.956 149.787 152.895L150.05 151.974V155.271C150.937 156.24 154.026 156.691 155.966 155.271V149.113C155.984 148.826 155.945 148.539 155.849 148.269C155.754 147.998 155.605 147.75 155.41 147.539C155.216 147.327 154.981 147.158 154.719 147.04C154.457 146.923 154.175 146.86 153.888 146.855L151.955 146.91Z" fill="#9269AD"/>
<path opacity="0.2" d="M150.051 151.973L150.619 150.186L150.051 152.777V151.973Z" fill="black"/>
<path d="M156.174 142.768C156.178 143.119 156.077 143.464 155.885 143.758C155.693 144.053 155.417 144.283 155.094 144.421C154.77 144.558 154.413 144.596 154.068 144.53C153.722 144.464 153.404 144.297 153.154 144.05C152.904 143.803 152.733 143.487 152.663 143.142C152.593 142.798 152.627 142.44 152.76 142.115C152.894 141.79 153.121 141.511 153.413 141.316C153.705 141.12 154.049 141.015 154.401 141.015C154.867 141.015 155.315 141.199 155.647 141.527C155.979 141.855 156.168 142.301 156.174 142.768Z" fill="#263238"/>
<path d="M151.525 141.874C151.424 141.864 151.323 141.876 151.227 141.91C151.131 141.943 151.044 141.997 150.971 142.068C150.729 142.318 150.784 142.761 150.971 143.807L151.712 143.897L151.525 141.874Z" fill="#263238"/>
<path d="M151.873 143.897C151.769 143.959 151.609 143.751 151.471 143.606C151.417 143.546 151.349 143.5 151.273 143.473C151.197 143.447 151.116 143.439 151.036 143.453C150.957 143.466 150.882 143.499 150.819 143.549C150.755 143.598 150.706 143.663 150.674 143.738C150.453 144.209 150.958 144.839 151.263 145.047C151.345 145.12 151.449 145.165 151.559 145.175C151.668 145.185 151.778 145.16 151.873 145.102L151.956 146.91C152.088 147.2 152.29 147.453 152.544 147.646C152.798 147.84 153.095 147.967 153.41 148.018C154.477 148.164 154.255 147.284 153.909 146.855V146.197C154.175 146.254 154.449 146.268 154.719 146.238C155.027 146.012 155.267 145.705 155.412 145.351C155.865 144.453 155.966 143.418 155.696 142.449C155.315 140.828 153.57 140.78 152.531 141.431C151.492 142.082 151.873 143.897 151.873 143.897Z" fill="#FFA8A7"/>
<path d="M151.873 144.077C151.824 144.077 151.609 143.73 151.471 143.606C151.332 143.481 151.526 141.874 151.526 141.874C151.475 141.707 151.465 141.53 151.498 141.359C151.531 141.188 151.604 141.027 151.713 140.89C152.087 140.496 152.815 140.565 153.341 140.544C154.136 140.504 154.932 140.522 155.724 140.6C155.857 140.596 155.987 140.646 156.084 140.738C156.116 140.792 156.137 140.851 156.144 140.914C156.151 140.976 156.145 141.039 156.126 141.098C156.052 141.446 155.868 141.761 155.601 141.996C155.334 142.23 154.998 142.372 154.643 142.4C153.939 142.398 153.239 142.293 152.565 142.089C152.364 142.089 152.323 142.255 152.212 142.781C152.101 143.308 152.06 144.077 151.873 144.077Z" fill="#263238"/>
<path d="M151.533 141.992L150.84 141.639C150.861 141.595 150.891 141.555 150.928 141.523C150.965 141.491 151.008 141.466 151.054 141.45C151.101 141.435 151.15 141.429 151.199 141.433C151.247 141.437 151.295 141.45 151.339 141.472C151.433 141.516 151.506 141.595 151.542 141.692C151.578 141.79 151.575 141.897 151.533 141.992Z" fill="#263238"/>
<path d="M153.902 146.197C153.45 146.11 153.007 145.982 152.579 145.816C152.374 145.712 152.207 145.547 152.101 145.345C152.152 145.546 152.244 145.735 152.371 145.899C152.62 146.224 153.902 146.46 153.902 146.46V146.197Z" fill="#F28F8F"/>
<path d="M153.936 143.855C153.941 143.884 153.94 143.914 153.933 143.943C153.926 143.971 153.912 143.998 153.893 144.021C153.874 144.043 153.851 144.062 153.824 144.074C153.797 144.087 153.768 144.093 153.738 144.093C153.709 144.093 153.68 144.087 153.653 144.074C153.626 144.062 153.603 144.043 153.584 144.021C153.565 143.998 153.551 143.971 153.544 143.943C153.537 143.914 153.536 143.884 153.541 143.855C153.536 143.826 153.537 143.796 153.544 143.768C153.551 143.739 153.565 143.713 153.584 143.69C153.603 143.667 153.626 143.649 153.653 143.636C153.68 143.624 153.709 143.617 153.738 143.617C153.768 143.617 153.797 143.624 153.824 143.636C153.851 143.649 153.874 143.667 153.893 143.69C153.912 143.713 153.926 143.739 153.933 143.768C153.94 143.796 153.941 143.826 153.936 143.855Z" fill="#263238"/>
<path d="M153.729 143.093L153.306 143.329C153.276 143.271 153.269 143.203 153.287 143.14C153.305 143.077 153.347 143.023 153.403 142.989C153.431 142.974 153.462 142.965 153.494 142.961C153.526 142.958 153.558 142.962 153.589 142.971C153.619 142.981 153.647 142.997 153.671 143.018C153.695 143.039 153.715 143.065 153.729 143.093Z" fill="#263238"/>
<path d="M153.819 145.171L154.269 145.338C154.259 145.368 154.243 145.397 154.222 145.421C154.2 145.445 154.174 145.465 154.145 145.479C154.116 145.494 154.085 145.502 154.052 145.504C154.02 145.505 153.988 145.501 153.957 145.49C153.927 145.478 153.899 145.461 153.876 145.439C153.853 145.416 153.834 145.39 153.821 145.36C153.808 145.33 153.801 145.298 153.801 145.266C153.8 145.233 153.807 145.201 153.819 145.171Z" fill="#F28F8F"/>
<path d="M155.696 143.281L155.308 142.983C155.326 142.956 155.349 142.933 155.376 142.916C155.404 142.898 155.434 142.887 155.466 142.881C155.498 142.876 155.53 142.878 155.561 142.885C155.593 142.893 155.622 142.908 155.648 142.927C155.697 142.97 155.729 143.03 155.738 143.095C155.747 143.16 155.732 143.226 155.696 143.281Z" fill="#263238"/>
<path d="M155.592 143.786C155.598 143.815 155.597 143.845 155.589 143.874C155.582 143.902 155.568 143.929 155.549 143.952C155.53 143.974 155.507 143.993 155.48 144.005C155.453 144.018 155.424 144.024 155.395 144.024C155.365 144.024 155.336 144.018 155.309 144.005C155.283 143.993 155.259 143.974 155.24 143.952C155.221 143.929 155.208 143.902 155.2 143.874C155.193 143.845 155.192 143.815 155.197 143.786C155.192 143.757 155.193 143.727 155.2 143.699C155.208 143.67 155.221 143.643 155.24 143.621C155.259 143.598 155.283 143.58 155.309 143.567C155.336 143.555 155.365 143.548 155.395 143.548C155.424 143.548 155.453 143.555 155.48 143.567C155.507 143.58 155.53 143.598 155.549 143.621C155.568 143.643 155.582 143.67 155.589 143.699C155.597 143.727 155.598 143.757 155.592 143.786Z" fill="#263238"/>
<path d="M154.65 143.779L154.463 144.95L155.114 144.873L154.65 143.779Z" fill="#F28F8F"/>
<path d="M155.771 174.222L155.73 174.042C155.861 174.042 156.422 174.984 156.963 175.386C157.503 175.788 158.085 176.079 158.348 176.28C158.611 176.48 158.189 177.083 157.302 177.132C156.785 177.162 156.27 177.042 155.82 176.785C155.57 176.557 155.39 176.169 155.196 175.996C155.002 175.822 154.608 175.684 154.504 175.469C154.42 175.249 154.394 175.01 154.428 174.776C154.428 174.548 154.428 174.292 154.518 174.299V174.43C154.749 174.547 155.006 174.604 155.266 174.596C155.487 174.617 155.875 174.569 155.771 174.222Z" fill="#263238"/>
<path d="M154.449 163.306C154.449 163.306 153.923 159.579 153.756 158.997C154.178 158.77 154.569 158.491 154.92 158.166C154.676 158.515 154.41 158.849 154.123 159.163L154.449 163.306Z" fill="#263238"/>
<path d="M151.284 163.181C151.539 163.839 151.835 164.479 152.171 165.1C152.171 165.1 152.102 166.298 152.115 166.54L151.783 166.824C151.775 166.283 151.824 165.742 151.928 165.21C151.641 164.559 151.425 163.879 151.284 163.181Z" fill="#263238"/>
</svg>
