<svg width="149" height="111" viewBox="0 0 149 111" fill="none" xmlns="http://www.w3.org/2000/svg">
<path d="M22.9568 99.9297C51.2127 114.69 97.0211 114.69 125.277 99.9297C153.533 85.1694 153.53 61.2367 125.277 46.4764C97.0245 31.7162 51.2127 31.7162 22.9568 46.4764C-5.29914 61.2367 -5.29576 85.1762 22.9568 99.9297Z" fill="#F5F5F5"/>
<path d="M125.799 88.5148C124.22 89.1624 122.449 89.1624 120.869 88.5148C119.52 87.8639 119.52 86.8286 120.869 86.1542C122.448 85.5033 124.22 85.5033 125.799 86.1542C127.162 86.8118 127.162 87.874 125.799 88.5148Z" fill="#E0E0E0"/>
<path d="M17.6386 86.6403C19.2459 87.3013 21.0492 87.3013 22.6565 86.6403C24.0425 85.9658 24.0425 84.907 22.6565 84.246C21.0485 83.5886 19.2466 83.5886 17.6386 84.246C16.2526 84.907 16.2526 85.9793 17.6386 86.6403Z" fill="#E0E0E0"/>
<path d="M102.71 79.1063C103.553 79.2142 104.528 78.9242 104.949 78.3644C105.445 77.7068 105.226 76.6783 105.465 76.1286C105.705 75.5789 106.477 75.6666 106.838 75.2012C107.199 74.7359 106.639 73.623 106.838 73.0329C107.037 72.4427 107.61 71.8796 107.87 71.4749C108.129 71.0703 107.87 70.4633 106.983 70.7701C106.096 71.077 105.634 72.1393 104.774 71.9605C103.914 71.7818 103.179 72.2977 103.165 73.1509C103.19 73.4846 103.125 73.8187 102.977 74.1187C102.815 74.3818 102.383 74.5302 102.188 74.9382L102.71 79.1063Z" fill="#9269AD"/>
<path opacity="0.2" d="M102.71 79.1063C103.553 79.2142 104.528 78.9242 104.949 78.3644C105.445 77.7068 105.226 76.6783 105.465 76.1286C105.705 75.5789 106.477 75.6666 106.838 75.2012C107.199 74.7359 106.639 73.623 106.838 73.0329C107.037 72.4427 107.61 71.8796 107.87 71.4749C108.129 71.0703 107.87 70.4633 106.983 70.7701C106.096 71.077 105.634 72.1393 104.774 71.9605C103.914 71.7818 103.179 72.2977 103.165 73.1509C103.19 73.4846 103.125 73.8187 102.977 74.1187C102.815 74.3818 102.383 74.5302 102.188 74.9382L102.71 79.1063Z" fill="black"/>
<path d="M107.475 71.0137C106.238 71.6881 102.879 75.5459 102.603 77.5963" stroke="white" stroke-width="0.5" stroke-miterlimit="10" stroke-linecap="round"/>
<path d="M26.1738 68.807L41.241 60.1067V22.9346L26.1738 31.6349V68.807Z" fill="#37474F"/>
<path d="M26.1735 31.635L9.73389 22.1455V59.3143L26.1735 68.8071V31.635Z" fill="#455A64"/>
<path d="M41.2406 22.9338L24.8044 13.4443L9.73389 22.1447L26.1735 31.6342L41.2406 22.9338Z" fill="#37474F"/>
<path d="M15.8887 62.8746V56.5449L20.1478 58.9932V65.3195L15.8887 62.8746Z" fill="#E0E0E0"/>
<path d="M17.7461 57.6143L18.1609 57.8537V64.18L17.7461 63.9406V57.6143Z" fill="#263238"/>
<path d="M24.4505 58.3163V54.7889L21.6313 53.1602V56.6875L24.4505 58.3163Z" fill="#E0E0E0"/>
<path d="M21.6313 56.6875L22.3361 56.2828V53.5682L21.6313 53.1602V56.6875Z" fill="#263238"/>
<path d="M24.4505 57.503L22.3361 56.2822L21.6313 56.6869L24.4505 58.3157V57.503Z" fill="#37474F"/>
<path d="M24.4505 65.0747V61.5473L21.6313 59.9219V63.4492L24.4505 65.0747Z" fill="#E0E0E0"/>
<path d="M21.6313 63.4492L22.3361 63.0412V60.3265L21.6313 59.9219V63.4492Z" fill="#263238"/>
<path d="M24.4505 64.2608L22.3361 63.04L21.6313 63.4481L24.4505 65.0735V64.2608Z" fill="#37474F"/>
<path d="M24.4505 51.6996V48.1723L21.6313 46.5469V50.0742L24.4505 51.6996Z" fill="#E0E0E0"/>
<path d="M21.6313 50.0742L22.3361 49.6662V46.9515L21.6313 46.5469V50.0742Z" fill="#263238"/>
<path d="M24.4505 50.8877L22.3361 49.667L21.6313 50.075L24.4505 51.7004V50.8877Z" fill="#37474F"/>
<path d="M24.4505 45.0834V41.5561L21.6313 39.9307V43.458L24.4505 45.0834Z" fill="#E0E0E0"/>
<path d="M21.6313 43.458L22.3361 43.05V40.3353L21.6313 39.9307V43.458Z" fill="#263238"/>
<path d="M24.4505 44.2706L22.3361 43.0498L21.6313 43.4578L24.4505 45.0833V44.2706Z" fill="#37474F"/>
<path d="M24.4505 38.4696V34.9389L21.6313 33.3135V36.8408L24.4505 38.4696Z" fill="#E0E0E0"/>
<path d="M21.6313 36.8408L22.3361 36.4328V33.7215L21.6313 33.3135V36.8408Z" fill="#263238"/>
<path d="M24.4505 37.6543L22.3361 36.4336L21.6313 36.8416L24.4505 38.4704V37.6543Z" fill="#37474F"/>
<path d="M14.2796 52.4452V48.9179L11.4604 47.2891V50.8164L14.2796 52.4452Z" fill="#E0E0E0"/>
<path d="M11.4604 50.8164L12.1652 50.4118V47.6971L11.4604 47.2891V50.8164Z" fill="#263238"/>
<path d="M14.2796 51.6319L12.1652 50.4111L11.4604 50.8158L14.2796 52.4446V51.6319Z" fill="#37474F"/>
<path d="M14.2796 59.2036V55.6762L11.4604 54.0508V57.5748L14.2796 59.2036Z" fill="#E0E0E0"/>
<path d="M11.4604 57.5748L12.1652 57.1701V54.4554L11.4604 54.0508V57.5748Z" fill="#263238"/>
<path d="M14.2796 58.3907L12.1652 57.1699L11.4604 57.5746L14.2796 59.2034V58.3907Z" fill="#37474F"/>
<path d="M14.2796 45.7709V42.2436L11.4604 40.6182V44.1455L14.2796 45.7709Z" fill="#E0E0E0"/>
<path d="M11.4604 44.1455L12.1652 43.7375V41.0228L11.4604 40.6182V44.1455Z" fill="#263238"/>
<path d="M14.2796 44.9581L12.1652 43.7373L11.4604 44.1453L14.2796 45.7708V44.9581Z" fill="#37474F"/>
<path d="M14.2796 39.1005V35.5731L11.4604 33.9443V37.4717L14.2796 39.1005Z" fill="#E0E0E0"/>
<path d="M11.4604 37.4717L12.1652 37.067V34.3524L11.4604 33.9443V37.4717Z" fill="#263238"/>
<path d="M14.2796 38.2891L12.1652 37.0684L11.4604 37.473L14.2796 39.1018V38.2891Z" fill="#37474F"/>
<path d="M14.2796 32.4282V28.9008L11.4604 27.2754V30.8027L14.2796 32.4282Z" fill="#FAFAFA"/>
<path d="M11.4604 30.8027L12.1652 30.3947V27.6801L11.4604 27.2754V30.8027Z" fill="#263238"/>
<path d="M14.2796 31.6143L12.1652 30.3936L11.4604 30.8016L14.2796 32.427V31.6143Z" fill="#37474F"/>
<path d="M15.8887 29.6514L17.5309 30.599V54.3226L15.8887 53.3784V29.6514Z" fill="#FAFAFA"/>
<path d="M15.8887 29.6514L16.5834 30.0527V52.9872L15.8887 53.3784V29.6514Z" fill="#263238"/>
<path d="M16.5834 52.9883L17.5309 53.5143V54.3237L15.8887 53.3795L16.5834 52.9883Z" fill="#37474F"/>
<path d="M18.502 31.1465L20.1476 32.0907V55.8177L18.502 54.8701V31.1465Z" fill="#FAFAFA"/>
<path d="M18.502 31.1465L19.1966 31.5478V54.479L18.502 54.8701V31.1465Z" fill="#263238"/>
<path d="M19.1966 54.4785L20.1476 55.0046V55.8173L18.502 54.8697L19.1966 54.4785Z" fill="#37474F"/>
<path d="M27.9175 58.3163V54.7889L30.7333 53.1602V56.6875L27.9175 58.3163Z" fill="#E0E0E0"/>
<path d="M30.7326 56.6875L30.0278 56.2828L30.0312 53.5682L30.7326 53.1602V56.6875Z" fill="#455A64"/>
<path d="M27.9175 57.503L30.0285 56.2822L30.7333 56.6869L27.9175 58.3157V57.503Z" fill="#263238"/>
<path d="M32.2974 55.7963V52.269L35.1166 50.6436V54.1709L32.2974 55.7963Z" fill="#E0E0E0"/>
<path d="M35.1169 54.1709L34.4121 53.7629V51.0482L35.1169 50.6436V54.1709Z" fill="#455A64"/>
<path d="M32.2974 54.9844L34.4118 53.7637L35.1166 54.1717L32.2974 55.7971V54.9844Z" fill="#263238"/>
<path d="M36.6782 53.2811V49.7538L39.4974 48.125V51.6524L36.6782 53.2811Z" fill="#E0E0E0"/>
<path d="M39.4973 51.6524L38.7925 51.2477V48.533L39.4973 48.125V51.6524Z" fill="#455A64"/>
<path d="M36.6782 52.4644L38.7926 51.2471L39.4974 51.6517L36.6782 53.2805V52.4644Z" fill="#263238"/>
<path d="M27.9175 65.0747V61.5473L30.7333 59.9219V63.4492L27.9175 65.0747Z" fill="#E0E0E0"/>
<path d="M30.7326 63.4492L30.0278 63.0412L30.0312 60.3265L30.7326 59.9219V63.4492Z" fill="#455A64"/>
<path d="M27.9175 64.2608L30.0285 63.04L30.7333 63.4481L27.9175 65.0735V64.2608Z" fill="#263238"/>
<path d="M32.2974 62.5575V59.0268L35.1166 57.4014V60.9287L32.2974 62.5575Z" fill="#E0E0E0"/>
<path d="M35.1169 60.9287L34.4121 60.5207V57.8094L35.1169 57.4014V60.9287Z" fill="#455A64"/>
<path d="M32.2974 61.7422L34.4118 60.5215L35.1166 60.9295L32.2974 62.5583V61.7422Z" fill="#263238"/>
<path d="M36.6782 60.039V56.5116L39.4974 54.8828V58.4102L36.6782 60.039Z" fill="#E0E0E0"/>
<path d="M39.4973 58.4102L38.7925 58.0055V55.2909L39.4973 54.8828V58.4102Z" fill="#455A64"/>
<path d="M36.6782 59.2266L38.7926 58.0059L39.4974 58.4105L36.6782 60.0393V59.2266Z" fill="#263238"/>
<path d="M27.9175 51.6996V48.1723L30.7333 46.5469V50.0742L27.9175 51.6996Z" fill="#E0E0E0"/>
<path d="M30.7326 50.0742L30.0278 49.6662L30.0312 46.9515L30.7326 46.5469V50.0742Z" fill="#455A64"/>
<path d="M27.9175 50.8877L30.0285 49.667L30.7333 50.075L27.9175 51.7004V50.8877Z" fill="#263238"/>
<path d="M32.2974 49.1537V45.6264L35.1166 44.001V47.5283L32.2974 49.1537Z" fill="#E0E0E0"/>
<path d="M35.1169 47.5283L34.4121 47.1203V44.4056L35.1169 44.001V47.5283Z" fill="#455A64"/>
<path d="M32.2974 48.3409L34.4118 47.1201L35.1166 47.5282L32.2974 49.1536V48.3409Z" fill="#263238"/>
<path d="M36.6782 46.6069V43.0795L39.4974 41.4541V44.9815L36.6782 46.6069Z" fill="#E0E0E0"/>
<path d="M39.4973 44.9815L38.7925 44.5734V41.8588L39.4973 41.4541V44.9815Z" fill="#455A64"/>
<path d="M36.6782 45.794L38.7926 44.5732L39.4974 44.9813L36.6782 46.6067V45.794Z" fill="#263238"/>
<path d="M27.9175 45.0834V41.5561L30.7333 39.9307V43.458L27.9175 45.0834Z" fill="#E0E0E0"/>
<path d="M30.7326 43.458L30.0278 43.05L30.0312 40.3353L30.7326 39.9307V43.458Z" fill="#455A64"/>
<path d="M27.9175 44.2706L30.0285 43.0498L30.7333 43.4578L27.9175 45.0833V44.2706Z" fill="#263238"/>
<path d="M32.2974 42.5097V38.9823L35.1166 37.3535V40.8842L32.2974 42.5097Z" fill="#E0E0E0"/>
<path d="M35.1169 40.8842L34.4121 40.4762V37.7616L35.1169 37.3535V40.8842Z" fill="#455A64"/>
<path d="M32.2974 41.6973L34.4118 40.4766L35.1166 40.8846L32.2974 42.51V41.6973Z" fill="#263238"/>
<path d="M36.6782 39.9374V36.41L39.4974 34.7812V38.3086L36.6782 39.9374Z" fill="#E0E0E0"/>
<path d="M39.4973 38.3086L38.7925 37.9039V35.1893L39.4973 34.7812V38.3086Z" fill="#455A64"/>
<path d="M36.6782 39.125L38.7926 37.9043L39.4974 38.309L36.6782 39.9378V39.125Z" fill="#263238"/>
<path d="M27.9175 38.4696V34.9389L30.7333 33.3135V36.8408L27.9175 38.4696Z" fill="#E0E0E0"/>
<path d="M30.7326 36.8408L30.0278 36.4328L30.0312 33.7215L30.7326 33.3135V36.8408Z" fill="#455A64"/>
<path d="M27.9175 37.6543L30.0285 36.4336L30.7333 36.8416L27.9175 38.4704V37.6543Z" fill="#263238"/>
<path d="M32.2974 35.8671V32.3397L35.1166 30.7109V34.2383L32.2974 35.8671Z" fill="#E0E0E0"/>
<path d="M35.1169 34.2383L34.4121 33.8336V31.119L35.1169 30.7109V34.2383Z" fill="#455A64"/>
<path d="M32.2974 35.0547L34.4118 33.834L35.1166 34.2387L32.2974 35.8674V35.0547Z" fill="#263238"/>
<path d="M36.6782 33.2641V29.7367L39.4974 28.1113V31.6387L36.6782 33.2641Z" fill="#E0E0E0"/>
<path d="M39.4973 31.6387L38.7925 31.2306V28.516L39.4973 28.1113V31.6387Z" fill="#455A64"/>
<path d="M36.6782 32.4512L38.7926 31.2305L39.4974 31.6385L36.6782 33.2639V32.4512Z" fill="#263238"/>
<path d="M12.4756 22.1461L24.8045 15.0273L38.4991 22.9352L26.1736 30.054L12.4756 22.1461Z" fill="#F0F0F0"/>
<path d="M24.8047 15.0273V16.6089L37.1302 23.7277L38.4993 22.9352L24.8047 15.0273Z" fill="#455A64"/>
<path d="M24.8045 15.0273L12.4756 22.1461L13.8447 22.9352L24.8045 16.6089V15.0273Z" fill="#263238"/>
<path d="M121.247 68.807L106.18 60.1067V22.9346L121.251 31.6349L121.247 68.807Z" fill="#455A64"/>
<path d="M121.25 31.635L137.687 22.1455V59.3143L121.247 68.8071L121.25 31.635Z" fill="#37474F"/>
<path d="M106.18 22.9338L122.62 13.4443L137.687 22.1447L121.251 31.6342L106.18 22.9338Z" fill="#37474F"/>
<path d="M131.536 62.8746V56.5449L127.273 58.9932L127.277 65.3195L131.536 62.8746Z" fill="#E0E0E0"/>
<path d="M129.675 57.6143L129.263 57.8537V64.18L129.675 63.9406V57.6143Z" fill="#263238"/>
<path d="M122.97 58.3163V54.7889L125.789 53.1602V56.6875L122.97 58.3163Z" fill="#E0E0E0"/>
<path d="M125.789 56.6875L125.084 56.2828V53.5682L125.789 53.1602V56.6875Z" fill="#263238"/>
<path d="M122.97 57.503L125.085 56.2822L125.789 56.6869L122.97 58.3157V57.503Z" fill="#455A64"/>
<path d="M122.97 65.0747V61.5473L125.789 59.9219V63.4492L122.97 65.0747Z" fill="#E0E0E0"/>
<path d="M125.789 63.4492L125.084 63.0412V60.3265L125.789 59.9219V63.4492Z" fill="#263238"/>
<path d="M122.97 64.2608L125.085 63.04L125.789 63.4481L122.97 65.0735V64.2608Z" fill="#455A64"/>
<path d="M122.97 51.6996V48.1723L125.789 46.5469V50.0742L122.97 51.6996Z" fill="#E0E0E0"/>
<path d="M125.789 50.0742L125.084 49.6662V46.9515L125.789 46.5469V50.0742Z" fill="#263238"/>
<path d="M122.97 50.8877L125.085 49.667L125.789 50.075L122.97 51.7004V50.8877Z" fill="#455A64"/>
<path d="M122.97 45.0834V41.5561L125.789 39.9307V43.458L122.97 45.0834Z" fill="#E0E0E0"/>
<path d="M125.789 43.458L125.084 43.05V40.3353L125.789 39.9307V43.458Z" fill="#263238"/>
<path d="M122.97 44.2706L125.085 43.0498L125.789 43.4578L122.97 45.0833V44.2706Z" fill="#455A64"/>
<path d="M122.97 38.4696V34.9389L125.789 33.3135V36.8408L122.97 38.4696Z" fill="#E0E0E0"/>
<path d="M125.789 36.8408L125.084 36.4328V33.7215L125.789 33.3135V36.8408Z" fill="#263238"/>
<path d="M122.97 37.6543L125.085 36.4336L125.789 36.8416L122.97 38.4704V37.6543Z" fill="#455A64"/>
<path d="M133.145 52.4452V48.9179L135.96 47.2891V50.8164L133.145 52.4452Z" fill="#E0E0E0"/>
<path d="M135.96 50.8164L135.259 50.4118V47.6971L135.96 47.2891V50.8164Z" fill="#263238"/>
<path d="M133.145 51.6319L135.259 50.4111L135.96 50.8158L133.145 52.4446V51.6319Z" fill="#455A64"/>
<path d="M133.145 59.2036V55.6762L135.96 54.0508V57.5748L133.145 59.2036Z" fill="#E0E0E0"/>
<path d="M135.96 57.5748L135.259 57.1701V54.4554L135.96 54.0508V57.5748Z" fill="#263238"/>
<path d="M133.145 58.3907L135.259 57.1699L135.96 57.5746L133.145 59.2034V58.3907Z" fill="#455A64"/>
<path d="M133.145 45.7709V42.2436L135.96 40.6182V44.1455L133.145 45.7709Z" fill="#E0E0E0"/>
<path d="M135.96 44.1455L135.259 43.7375V41.0228L135.96 40.6182V44.1455Z" fill="#263238"/>
<path d="M133.145 44.9581L135.259 43.7373L135.96 44.1453L133.145 45.7708V44.9581Z" fill="#455A64"/>
<path d="M133.145 39.1005V35.5731L135.96 33.9443V37.4717L133.145 39.1005Z" fill="#E0E0E0"/>
<path d="M135.96 37.4717L135.259 37.067V34.3524L135.96 33.9443V37.4717Z" fill="#263238"/>
<path d="M133.145 38.2891L135.259 37.0684L135.96 37.473L133.145 39.1018V38.2891Z" fill="#455A64"/>
<path d="M133.145 32.4282V28.9008L135.96 27.2754V30.8027L133.145 32.4282Z" fill="#FAFAFA"/>
<path d="M135.96 30.8027L135.259 30.3947V27.6801L135.96 27.2754V30.8027Z" fill="#263238"/>
<path d="M133.145 31.6143L135.259 30.3936L135.96 30.8016L133.145 32.427V31.6143Z" fill="#455A64"/>
<path d="M131.535 29.6514L129.89 30.599V54.3226L131.535 53.3784V29.6514Z" fill="#FAFAFA"/>
<path d="M131.535 29.6514L130.837 30.0527V52.9872L131.535 53.3784V29.6514Z" fill="#263238"/>
<path d="M130.837 52.9883L129.89 53.5143V54.3237L131.535 53.3795L130.837 52.9883Z" fill="#455A64"/>
<path d="M128.919 31.1465L127.276 32.0907V55.8177L128.919 54.8701V31.1465Z" fill="#FAFAFA"/>
<path d="M128.919 31.1465L128.224 31.5478V54.479L128.919 54.8701V31.1465Z" fill="#263238"/>
<path d="M128.224 54.4785L127.276 55.0046V55.8173L128.919 54.8697L128.224 54.4785Z" fill="#455A64"/>
<path d="M119.507 58.3163V54.7889L116.688 53.1602V56.6875L119.507 58.3163Z" fill="#E0E0E0"/>
<path d="M116.688 56.6875L117.393 56.2828V53.5682L116.688 53.1602V56.6875Z" fill="#37474F"/>
<path d="M119.507 57.503L117.393 56.2822L116.688 56.6869L119.507 58.3157V57.503Z" fill="#263238"/>
<path d="M115.123 55.7963V52.269L112.307 50.6436V54.1709L115.123 55.7963Z" fill="#E0E0E0"/>
<path d="M112.307 54.1709L113.009 53.7629V51.0482L112.307 50.6436V54.1709Z" fill="#37474F"/>
<path d="M115.123 54.9844L113.009 53.7637L112.307 54.1717L115.123 55.7971V54.9844Z" fill="#263238"/>
<path d="M110.743 53.2811V49.7538L107.923 48.125V51.6524L110.743 53.2811Z" fill="#E0E0E0"/>
<path d="M107.923 51.6524L108.628 51.2477V48.533L107.923 48.125V51.6524Z" fill="#37474F"/>
<path d="M110.743 52.4644L108.628 51.2471L107.923 51.6517L110.743 53.2805V52.4644Z" fill="#263238"/>
<path d="M119.507 65.0747V61.5473L116.688 59.9219V63.4492L119.507 65.0747Z" fill="#E0E0E0"/>
<path d="M116.688 63.4492L117.393 63.0412V60.3265L116.688 59.9219V63.4492Z" fill="#37474F"/>
<path d="M119.507 64.2608L117.393 63.04L116.688 63.4481L119.507 65.0735V64.2608Z" fill="#263238"/>
<path d="M115.123 62.5575V59.0268L112.307 57.4014V60.9287L115.123 62.5575Z" fill="#E0E0E0"/>
<path d="M112.307 60.9287L113.009 60.5207V57.8094L112.307 57.4014V60.9287Z" fill="#37474F"/>
<path d="M115.123 61.7422L113.009 60.5215L112.307 60.9295L115.123 62.5583V61.7422Z" fill="#263238"/>
<path d="M110.743 60.039V56.5116L107.923 54.8828V58.4102L110.743 60.039Z" fill="#E0E0E0"/>
<path d="M107.923 58.4102L108.628 58.0055V55.2909L107.923 54.8828V58.4102Z" fill="#37474F"/>
<path d="M110.743 59.2266L108.628 58.0059L107.923 58.4105L110.743 60.0393V59.2266Z" fill="#263238"/>
<path d="M119.507 51.6996V48.1723L116.688 46.5469V50.0742L119.507 51.6996Z" fill="#E0E0E0"/>
<path d="M116.688 50.0742L117.393 49.6662V46.9515L116.688 46.5469V50.0742Z" fill="#37474F"/>
<path d="M119.507 50.8877L117.393 49.667L116.688 50.075L119.507 51.7004V50.8877Z" fill="#263238"/>
<path d="M115.123 49.1537V45.6264L112.307 44.001V47.5283L115.123 49.1537Z" fill="#E0E0E0"/>
<path d="M112.307 47.5283L113.009 47.1203V44.4056L112.307 44.001V47.5283Z" fill="#37474F"/>
<path d="M115.123 48.3409L113.009 47.1201L112.307 47.5282L115.123 49.1536V48.3409Z" fill="#263238"/>
<path d="M110.743 46.6069V43.0795L107.923 41.4541V44.9815L110.743 46.6069Z" fill="#E0E0E0"/>
<path d="M107.923 44.9815L108.628 44.5734V41.8588L107.923 41.4541V44.9815Z" fill="#37474F"/>
<path d="M110.743 45.794L108.628 44.5732L107.923 44.9813L110.743 46.6067V45.794Z" fill="#263238"/>
<path d="M119.507 45.0834V41.5561L116.688 39.9307V43.458L119.507 45.0834Z" fill="#E0E0E0"/>
<path d="M116.688 43.458L117.393 43.05V40.3353L116.688 39.9307V43.458Z" fill="#37474F"/>
<path d="M119.507 44.2706L117.393 43.0498L116.688 43.4578L119.507 45.0833V44.2706Z" fill="#263238"/>
<path d="M115.123 42.5097V38.9823L112.307 37.3535V40.8842L115.123 42.5097Z" fill="#E0E0E0"/>
<path d="M112.307 40.8842L113.009 40.4762V37.7616L112.307 37.3535V40.8842Z" fill="#37474F"/>
<path d="M115.123 41.6973L113.009 40.4766L112.307 40.8846L115.123 42.51V41.6973Z" fill="#263238"/>
<path d="M110.743 39.9374V36.41L107.923 34.7812V38.3086L110.743 39.9374Z" fill="#E0E0E0"/>
<path d="M107.923 38.3086L108.628 37.9039V35.1893L107.923 34.7812V38.3086Z" fill="#37474F"/>
<path d="M110.743 39.125L108.628 37.9043L107.923 38.309L110.743 39.9378V39.125Z" fill="#263238"/>
<path d="M119.507 38.4696V34.9389L116.688 33.3135V36.8408L119.507 38.4696Z" fill="#E0E0E0"/>
<path d="M116.688 36.8408L117.393 36.4328V33.7215L116.688 33.3135V36.8408Z" fill="#37474F"/>
<path d="M119.507 37.6543L117.393 36.4336L116.688 36.8416L119.507 38.4704V37.6543Z" fill="#263238"/>
<path d="M115.123 35.8671V32.3397L112.307 30.7109V34.2383L115.123 35.8671Z" fill="#E0E0E0"/>
<path d="M112.307 34.2383L113.009 33.8336V31.119L112.307 30.7109V34.2383Z" fill="#37474F"/>
<path d="M115.123 35.0547L113.009 33.834L112.307 34.2387L115.123 35.8674V35.0547Z" fill="#263238"/>
<path d="M110.743 33.2641V29.7367L107.923 28.1113V31.6387L110.743 33.2641Z" fill="#E0E0E0"/>
<path d="M107.923 31.6387L108.628 31.2306V28.516L107.923 28.1113V31.6387Z" fill="#37474F"/>
<path d="M110.743 32.4512L108.628 31.2305L107.923 31.6385L110.743 33.2639V32.4512Z" fill="#263238"/>
<path d="M134.948 22.1461L122.619 15.0273L108.921 22.9352L121.25 30.054L134.948 22.1461Z" fill="#F0F0F0"/>
<path d="M122.619 15.0273V16.6089L110.291 23.7277L108.921 22.9352L122.619 15.0273Z" fill="#263238"/>
<path d="M122.619 15.0273L134.948 22.1461L133.576 22.9352L122.619 16.6089V15.0273Z" fill="#455A64"/>
<path d="M98.899 103.545C97.1847 104.249 95.2615 104.249 93.5472 103.545C92.0702 102.84 92.0702 101.7 93.5472 100.995C95.2615 100.291 97.1847 100.291 98.899 100.995C100.379 101.7 100.379 102.84 98.899 103.545Z" fill="#E0E0E0"/>
<path d="M43.551 101.221C45.2664 101.926 47.1906 101.926 48.9061 101.221C50.3831 100.516 50.3831 99.3761 48.9061 98.6713C47.1906 97.9663 45.2664 97.9663 43.551 98.6713C42.0807 99.3761 42.0807 100.516 43.551 101.221Z" fill="#E0E0E0"/>
<path d="M74.8485 100.809L107.633 81.8809C107.854 81.7641 108.038 81.5895 108.166 81.3759C108.295 81.1623 108.362 80.9178 108.362 80.6686C108.362 80.4194 108.295 80.1748 108.166 79.9613C108.038 79.7477 107.854 79.5731 107.633 79.4563L74.8452 60.5279C74.6189 60.4133 74.3687 60.3535 74.1151 60.3535C73.8614 60.3535 73.6113 60.4133 73.385 60.5279L40.6001 79.4428C40.38 79.5596 40.1958 79.7342 40.0674 79.9478C39.939 80.1614 39.8711 80.4059 39.8711 80.6551C39.8711 80.9043 39.939 81.1488 40.0674 81.3624C40.1958 81.576 40.38 81.7506 40.6001 81.8674L73.3883 100.796C73.6136 100.913 73.8631 100.975 74.1168 100.977C74.3705 100.979 74.6212 100.922 74.8485 100.809Z" fill="#9269AD"/>
<path d="M74.8485 100.809L107.633 81.8809C107.854 81.7641 108.038 81.5895 108.166 81.3759C108.295 81.1623 108.362 80.9178 108.362 80.6686C108.362 80.4194 108.295 80.1748 108.166 79.9613C108.038 79.7477 107.854 79.5731 107.633 79.4563L74.8452 60.5279C74.6189 60.4133 74.3687 60.3535 74.1151 60.3535C73.8614 60.3535 73.6113 60.4133 73.385 60.5279L40.6001 79.4428C40.38 79.5596 40.1958 79.7342 40.0674 79.9478C39.939 80.1614 39.8711 80.4059 39.8711 80.6551C39.8711 80.9043 39.939 81.1488 40.0674 81.3624C40.1958 81.576 40.38 81.7506 40.6001 81.8674L73.3883 100.796C73.6136 100.913 73.8631 100.975 74.1168 100.977C74.3705 100.979 74.6212 100.922 74.8485 100.809Z" fill="#9269AD"/>
<path d="M74.8485 100.809L107.633 81.8809C107.854 81.7641 108.038 81.5895 108.166 81.3759C108.295 81.1623 108.362 80.9178 108.362 80.6686C108.362 80.4194 108.295 80.1748 108.166 79.9613C108.038 79.7477 107.854 79.5731 107.633 79.4563L74.8452 60.5279C74.6189 60.4133 74.3687 60.3535 74.1151 60.3535C73.8614 60.3535 73.6113 60.4133 73.385 60.5279L40.6001 79.4428C40.38 79.5596 40.1958 79.7342 40.0674 79.9478C39.939 80.1614 39.8711 80.4059 39.8711 80.6551C39.8711 80.9043 39.939 81.1488 40.0674 81.3624C40.1958 81.576 40.38 81.7506 40.6001 81.8674L73.3883 100.796C73.6136 100.913 73.8631 100.975 74.1168 100.977C74.3705 100.979 74.6212 100.922 74.8485 100.809Z" fill="#9269AD"/>
<path opacity="0.2" d="M74.8485 100.809L107.633 81.8809C107.854 81.7641 108.038 81.5895 108.166 81.3759C108.295 81.1623 108.362 80.9178 108.362 80.6686C108.362 80.4194 108.295 80.1748 108.166 79.9613C108.038 79.7477 107.854 79.5731 107.633 79.4563L74.8452 60.5279C74.6189 60.4133 74.3687 60.3535 74.1151 60.3535C73.8614 60.3535 73.6113 60.4133 73.385 60.5279L40.6001 79.4428C40.38 79.5596 40.1958 79.7342 40.0674 79.9478C39.939 80.1614 39.8711 80.4059 39.8711 80.6551C39.8711 80.9043 39.939 81.1488 40.0674 81.3624C40.1958 81.576 40.38 81.7506 40.6001 81.8674L73.3883 100.796C73.6136 100.913 73.8631 100.975 74.1168 100.977C74.3705 100.979 74.6212 100.922 74.8485 100.809Z" fill="black"/>
<path d="M40.6002 80.2993L73.3884 99.2277C73.6147 99.3423 73.8648 99.4021 74.1185 99.4021C74.3721 99.4021 74.6222 99.3423 74.8485 99.2277L107.633 80.2993C107.721 80.2694 107.798 80.2127 107.852 80.1371C107.906 80.0615 107.935 79.9708 107.935 79.8778C107.935 79.7848 107.906 79.6941 107.852 79.6185C107.798 79.5429 107.721 79.4862 107.633 79.4563L74.8452 60.5279C74.6189 60.4133 74.3688 60.3535 74.1151 60.3535C73.8614 60.3535 73.6113 60.4133 73.385 60.5279L40.6002 79.4428C40.5069 79.4692 40.4249 79.5253 40.3664 79.6026C40.308 79.6799 40.2764 79.7742 40.2764 79.871C40.2764 79.9679 40.308 80.0622 40.3664 80.1395C40.4249 80.2168 40.5069 80.2729 40.6002 80.2993Z" fill="#9269AD"/>
<path d="M79.5962 92.5307L102.881 79.0856V22.9346L79.5962 36.3797V92.5307Z" fill="#37474F"/>
<path d="M74.1167 96.4863V39.5428L45.3516 22.9346V79.8781L74.1167 96.4863Z" fill="#455A64"/>
<path d="M74.1166 72.7592L45.3515 56.1509V54.5693L42.6099 56.1509L74.1166 74.3407V72.7592Z" fill="#9269AD"/>
<path opacity="0.5" d="M74.1166 72.7592L45.3515 56.1509V54.5693L42.6099 56.1509L74.1166 74.3407V72.7592Z" fill="white"/>
<path d="M42.6099 56.1504L74.1166 74.3402V75.9218L42.6099 57.732V56.1504Z" fill="#9269AD"/>
<path d="M74.1167 72.7598L79.5966 69.5967L80.9657 70.3892L74.1167 74.3414V72.7598Z" fill="#9269AD"/>
<path opacity="0.5" d="M74.1167 72.7598L79.5966 69.5967L80.9657 70.3892L74.1167 74.3414V72.7598Z" fill="white"/>
<path d="M74.1167 75.9225L80.9657 71.9702V70.3887L74.1167 74.3409V75.9225Z" fill="#9269AD"/>
<path opacity="0.2" d="M74.1167 75.9225L80.9657 71.9702V70.3887L74.1167 74.3409V75.9225Z" fill="black"/>
<path d="M74.1167 39.5421L79.5966 36.3789V69.5954L74.1167 72.7585V39.5421Z" fill="#263238"/>
<path d="M74.1167 75.9229L79.5966 72.7598V93.3236L74.1167 96.4868V75.9229Z" fill="#263238"/>
<path d="M71.3783 68.0144V60.1065L65.8984 56.9434V64.8512L71.3783 68.0144Z" fill="#9269AD"/>
<path opacity="0.5" d="M71.3783 68.0144V60.1065L65.8984 56.9434V64.8512L71.3783 68.0144Z" fill="white"/>
<path d="M65.8984 64.8512L67.2676 64.0621V57.7325L65.8984 56.9434V64.8512Z" fill="#263238"/>
<path d="M71.3783 66.4322L67.2676 64.0615L65.8984 64.8506L71.3783 68.0138V66.4322Z" fill="#263238"/>
<path d="M63.1566 63.2698V55.3619L56.3076 51.4062V59.3141L63.1566 63.2698Z" fill="#9269AD"/>
<path opacity="0.5" d="M63.1566 63.2698V55.3619L56.3076 51.4062V59.3141L63.1566 63.2698Z" fill="white"/>
<path d="M57.6767 58.525L57.6801 52.1987L56.3076 51.4062V59.3141L57.6767 58.525Z" fill="#263238"/>
<path d="M63.1566 61.6876V63.2691L56.3076 59.3135L57.6767 58.5244L63.1566 61.6876Z" fill="#263238"/>
<path d="M83.019 85.0174V77.1095L89.868 73.1572V81.0651L83.019 85.0174Z" fill="#9269AD"/>
<path d="M88.499 80.2726V73.9463L89.8681 73.1572V81.0651L88.499 80.2726Z" fill="#263238"/>
<path d="M83.019 83.4356V85.0172L89.868 81.0649L88.4989 80.2725L83.019 83.4356Z" fill="#263238"/>
<path d="M83.019 71.8381V63.9302L89.868 59.9746V67.8825L83.019 71.8381Z" fill="#9269AD"/>
<path d="M88.499 67.0934V60.7637L89.8681 59.9746V67.8825L88.499 67.0934Z" fill="#263238"/>
<path d="M83.019 70.2569V71.8385L89.868 67.8829L88.4989 67.0938L83.019 70.2569Z" fill="#263238"/>
<path d="M83.019 58.6565V50.7486L89.868 46.793V54.7009L83.019 58.6565Z" fill="#9269AD"/>
<path d="M88.499 53.9118V47.5854L89.8681 46.793V54.7009L88.499 53.9118Z" fill="#263238"/>
<path d="M83.019 57.0753V58.6568L89.868 54.7012L88.4989 53.9121L83.019 57.0753Z" fill="#263238"/>
<path d="M83.019 45.4739V37.566L89.868 33.6104V41.5216L83.019 45.4739Z" fill="#9269AD"/>
<path d="M88.499 40.7291V34.4028L89.8681 33.6104V41.5216L88.499 40.7291Z" fill="#263238"/>
<path d="M83.019 43.8936V45.4752L89.868 41.5229L88.4989 40.7305L83.019 43.8936Z" fill="#263238"/>
<path d="M92.7588 79.3963V71.4884L99.6112 67.5361L99.6078 75.444L92.7588 79.3963Z" fill="#9269AD"/>
<path d="M98.2383 74.6515V68.3252L99.6108 67.5361L99.6074 75.444L98.2383 74.6515Z" fill="#263238"/>
<path d="M92.7588 77.8179V79.3961L99.6078 75.4438L98.2387 74.6514L92.7588 77.8179Z" fill="#263238"/>
<path d="M92.7588 66.217V58.3058L99.6112 54.3535L99.6078 62.2614L92.7588 66.217Z" fill="#9269AD"/>
<path d="M98.2383 61.4723V55.1426L99.6108 54.3535L99.6074 62.2614L98.2383 61.4723Z" fill="#263238"/>
<path d="M92.7588 64.6358V66.2174L99.6078 62.2618L98.2387 61.4727L92.7588 64.6358Z" fill="#263238"/>
<path d="M92.7588 53.0354V45.1275L99.6112 41.1719L99.6078 49.0831L92.7588 53.0354Z" fill="#9269AD"/>
<path d="M98.2383 48.2907V41.9644L99.6108 41.1719L99.6074 49.0831L98.2383 48.2907Z" fill="#263238"/>
<path d="M92.7588 51.4532V53.0348L99.6078 49.0825L98.2387 48.29L92.7588 51.4532Z" fill="#263238"/>
<path d="M92.7588 39.8533V31.9454L99.6112 27.9932L99.6078 35.9011L92.7588 39.8533Z" fill="#9269AD"/>
<path d="M98.2383 35.1086V28.7823L99.6108 27.9932L99.6074 35.9011L98.2383 35.1086Z" fill="#263238"/>
<path d="M92.7588 38.2716V39.8531L99.6078 35.9009L98.2387 35.1084L92.7588 38.2716Z" fill="#263238"/>
<path d="M53.5692 57.7331V49.8253L48.0894 46.6621V54.57L53.5692 57.7331Z" fill="#9269AD"/>
<path opacity="0.5" d="M53.5692 57.7331V49.8253L48.0894 46.6621V54.57L53.5692 57.7331Z" fill="white"/>
<path d="M49.4585 53.7809L48.0894 54.57V46.6621L49.4585 47.4546V53.7809Z" fill="#263238"/>
<path d="M53.5692 56.151L49.4585 53.7803L48.0894 54.5694L53.5692 57.7325V56.151Z" fill="#263238"/>
<path d="M56.3076 72.8362C56.3076 70.6038 57.842 69.6765 59.7338 70.7691C61.6256 71.8617 63.1566 74.5561 63.1566 76.7919V90.1594L56.3076 86.2038V72.8362Z" fill="#263238"/>
<path d="M63.1573 76.7928C63.1573 74.557 61.6263 71.8592 59.7345 70.77C59.2528 70.4648 58.6927 70.3066 58.1226 70.3148C57.8096 70.8372 57.6561 71.4396 57.6808 72.0481V85.4156L63.1573 88.5788V76.7928Z" fill="#455A64"/>
<path d="M63.1573 76.7928C63.1573 74.557 61.6263 71.8592 59.7345 70.77C59.2528 70.4648 58.6927 70.3066 58.1226 70.3148C57.8096 70.8372 57.6561 71.4396 57.6808 72.0481V85.4156L63.1573 88.5788V76.7928Z" fill="#9269AD"/>
<path opacity="0.5" d="M63.1573 76.7928C63.1573 74.557 61.6263 71.8592 59.7345 70.77C59.2528 70.4648 58.6927 70.3066 58.1226 70.3148C57.8096 70.8372 57.6561 71.4396 57.6808 72.0481V85.4156L63.1573 88.5788V76.7928Z" fill="white"/>
<path d="M60.722 71.5146C60.5117 71.3163 60.2862 71.1348 60.0476 70.9717V74.526L57.687 73.1569V73.9763L60.0476 75.3488V85.597L60.722 85.9849V75.7333L63.1568 77.1395V76.8023C63.1568 76.6404 63.1568 76.465 63.1332 76.3133L60.722 74.9239V71.5146Z" fill="#455A64"/>
<path d="M74.1166 39.5434V34.7987L43.979 17.4014V22.1461L74.1166 39.5434Z" fill="#9269AD"/>
<path opacity="0.5" d="M74.1166 39.5434V34.7987L43.979 17.4014V22.1461L74.1166 39.5434Z" fill="white"/>
<path d="M74.1167 39.5434V34.7987L104.254 17.4014V22.1461L74.1167 39.5434Z" fill="#9269AD"/>
<path opacity="0.2" d="M74.1167 39.5434V34.7987L104.254 17.4014V22.1461L74.1167 39.5434Z" fill="black"/>
<path d="M48.0894 31.051C48.0894 29.1896 49.3168 28.387 50.8276 29.2604C52.3384 30.1338 53.5692 32.3527 53.5692 34.2142V46.6611L48.0894 43.4979V31.051Z" fill="#263238"/>
<path d="M50.8279 29.2581C50.502 29.0628 50.1345 28.9472 49.7555 28.9209C49.5469 29.3392 49.445 29.8026 49.4587 30.2698V42.7167L53.5695 45.0773V34.2119C53.5695 32.3505 52.342 30.1315 50.8279 29.2581Z" fill="#9269AD"/>
<path opacity="0.5" d="M50.8279 29.2581C50.502 29.0628 50.1345 28.9472 49.7555 28.9209C49.5469 29.3392 49.445 29.8026 49.4587 30.2698V42.7167L53.5695 45.0773V34.2119C53.5695 32.3505 52.342 30.1315 50.8279 29.2581Z" fill="white"/>
<path d="M48.0894 43.4985L49.4585 42.7061L53.5692 45.0767V46.6617L48.0894 43.4985Z" fill="#263238"/>
<path d="M56.3076 36.4706C56.3076 34.2348 57.842 33.3108 59.7338 34.4034C61.6256 35.496 63.1566 38.1905 63.1566 40.4262V52.1987L56.3076 48.2431V36.4706Z" fill="#263238"/>
<path d="M63.1573 40.4266C63.1573 38.1908 61.6263 35.493 59.7345 34.4038C59.2528 34.0986 58.6927 33.9404 58.1226 33.9485C57.8096 34.471 57.6561 35.0734 57.6808 35.6819V47.451L63.1573 50.6175V40.4266Z" fill="#9269AD"/>
<path opacity="0.5" d="M63.1573 40.4266C63.1573 38.1908 61.6263 35.493 59.7345 34.4038C59.2528 34.0986 58.6927 33.9404 58.1226 33.9485C57.8096 34.471 57.6561 35.0734 57.6808 35.6819V47.451L63.1573 50.6175V40.4266Z" fill="white"/>
<path d="M57.6801 47.4512L56.3076 48.2436L63.1566 52.1993V50.6177L57.6801 47.4512Z" fill="#263238"/>
<path d="M65.8984 41.3372C65.8984 39.4757 67.1226 38.6731 68.6367 39.5465C70.1508 40.4199 71.3783 42.6389 71.3783 44.5003V56.9472L65.8984 53.7841V41.3372Z" fill="#263238"/>
<path d="M68.6371 39.5423C68.3109 39.3474 67.9436 39.2319 67.5647 39.2051C67.3556 39.6232 67.2536 40.0867 67.2679 40.554V53.0009L71.3787 55.3614V44.4961C71.3787 42.6346 70.1512 40.4157 68.6371 39.5423Z" fill="#9269AD"/>
<path opacity="0.5" d="M68.6371 39.5423C68.3109 39.3474 67.9436 39.2319 67.5647 39.2051C67.3556 39.6232 67.2536 40.0867 67.2679 40.554V53.0009L71.3787 55.3614V44.4961C71.3787 42.6346 70.1512 40.4157 68.6371 39.5423Z" fill="white"/>
<path d="M67.2676 52.9883L65.8984 53.7808L71.3783 56.9439V55.3623L67.2676 52.9883Z" fill="#263238"/>
<path d="M65.8984 77.6995C65.8984 75.838 67.1226 75.0354 68.6367 75.9088C70.1508 76.7822 71.3783 79.0012 71.3783 80.8626V94.9046L65.8984 91.7415V77.6995Z" fill="#263238"/>
<path d="M68.637 75.9085C68.3109 75.7136 67.9435 75.5981 67.5646 75.5713C67.356 75.9896 67.2541 76.453 67.2678 76.9202V90.9588L71.3786 93.3193V80.8421C71.3786 79.0009 70.1511 76.7819 68.637 75.9085Z" fill="#9269AD"/>
<path opacity="0.5" d="M68.637 75.9085C68.3109 75.7136 67.9435 75.5981 67.5646 75.5713C67.356 75.9896 67.2541 76.453 67.2678 76.9202V90.9588L71.3786 93.3193V80.8421C71.3786 79.0009 70.1511 76.7819 68.637 75.9085Z" fill="white"/>
<path d="M65.8984 91.7408V86.9961L71.3783 90.1592V94.904L65.8984 91.7408Z" fill="#37474F"/>
<path d="M65.8984 86.9966L67.2676 86.2041L71.3749 88.5782L71.3783 90.1597L65.8984 86.9966Z" fill="#263238"/>
<path d="M48.0894 67.4182C48.0894 65.5568 49.3168 64.7542 50.8276 65.6276C52.3384 66.501 53.5692 68.7199 53.5692 70.5814V84.6233L48.0894 81.4669V67.4182Z" fill="#263238"/>
<path d="M50.8279 65.6175C50.5013 65.4237 50.1342 65.3082 49.7555 65.2803C49.5469 65.6986 49.445 66.162 49.4587 66.6292V80.6711L53.5695 83.0317V70.5544C53.5695 68.7166 52.342 66.4976 50.8279 65.6175Z" fill="#9269AD"/>
<path opacity="0.5" d="M50.8279 65.6175C50.5013 65.4237 50.1342 65.3082 49.7555 65.2803C49.5469 65.6986 49.445 66.162 49.4587 66.6292V80.6711L53.5695 83.0317V70.5544C53.5695 68.7166 52.342 66.4976 50.8279 65.6175Z" fill="white"/>
<path d="M53.5692 84.6227V79.878L48.0894 76.7148V81.4596L53.5692 84.6227Z" fill="#37474F"/>
<path d="M48.0894 76.7153L49.4585 75.9229L53.5692 78.2969V79.8785L48.0894 76.7153Z" fill="#263238"/>
<path d="M56.3076 86.2036V84.6221L63.1566 88.5777V90.1593L56.3076 86.2036Z" fill="#37474F"/>
<path d="M56.3076 84.6231L57.6801 83.834L63.1566 86.9971V88.5787L56.3076 84.6231Z" fill="#263238"/>
<path d="M74.1166 34.7981L104.254 17.4007L74.1166 0L43.979 17.4007L74.1166 34.7981Z" fill="#9269AD"/>
<path opacity="0.7" d="M74.1166 34.7981L104.254 17.4007L74.1166 0L43.979 17.4007L74.1166 34.7981Z" fill="white"/>
<path d="M74.1163 31.6348L98.774 17.4007L74.1163 3.16309L49.4585 17.4007L74.1163 31.6348Z" fill="#9269AD"/>
<path d="M74.1163 3.16309V7.91119L53.5692 19.7713L49.4585 17.4007L74.1163 3.16309Z" fill="#9269AD"/>
<path opacity="0.2" d="M74.1163 3.16309V7.91119L53.5692 19.7713L49.4585 17.4007L74.1163 3.16309Z" fill="black"/>
<path d="M74.1167 3.16309L98.7745 17.4007L94.6637 19.7713L74.1167 7.91119V3.16309Z" fill="#9269AD"/>
<path opacity="0.5" d="M74.1167 3.16309L98.7745 17.4007L94.6637 19.7713L74.1167 7.91119V3.16309Z" fill="white"/>
<path d="M70.0062 7.11816L63.1572 11.0738L72.7479 16.6076L79.5969 12.6554L70.0062 7.11816Z" fill="#455A64"/>
<path d="M63.1572 11.0742V15.8189L72.7479 21.3528V16.6081L63.1572 11.0742Z" fill="#37474F"/>
<path d="M79.5966 12.6553V17.4L72.7476 21.3523V16.6075L79.5966 12.6553Z" fill="#263238"/>
<path d="M67.7565 9.77228C66.5122 10.4906 66.5122 11.654 67.7565 12.3723C68.454 12.7265 69.2252 12.9112 70.0075 12.9112C70.7897 12.9112 71.561 12.7265 72.2584 12.3723C73.4994 11.654 73.4994 10.4906 72.2584 9.77228C71.561 9.41803 70.7897 9.2334 70.0075 9.2334C69.2252 9.2334 68.454 9.41803 67.7565 9.77228Z" fill="#37474F"/>
<path d="M68.9537 10.514C68.3703 10.8209 68.3703 11.3233 68.9537 11.6302C69.2838 11.7835 69.6435 11.8629 70.0075 11.8629C70.3715 11.8629 70.7311 11.7835 71.0613 11.6302C71.6413 11.3233 71.6413 10.8209 71.0613 10.514C70.7311 10.3607 70.3715 10.2812 70.0075 10.2812C69.6435 10.2812 69.2838 10.3607 68.9537 10.514Z" fill="#263238"/>
<path d="M74.8652 16.9658L76.2344 17.7549V20.9215" stroke="#455A64" stroke-width="2" stroke-linecap="round" stroke-linejoin="round"/>
<path d="M76.855 15.8184L78.2241 16.6075V19.7706" stroke="#455A64" stroke-width="2" stroke-linecap="round" stroke-linejoin="round"/>
<path d="M34.4995 63.4844V74.3834C34.506 74.461 34.5333 74.5354 34.5783 74.5989C34.6234 74.6623 34.6847 74.7126 34.7558 74.7443C34.9503 74.8424 35.1652 74.8935 35.383 74.8935C35.6009 74.8935 35.8157 74.8424 36.0103 74.7443C36.0814 74.7126 36.1427 74.6623 36.1877 74.5989C36.2328 74.5354 36.26 74.461 36.2666 74.3834V63.4911L34.4995 63.4844Z" fill="#37474F"/>
<path d="M39.639 66.6548C39.639 67.7835 39.1906 68.866 38.3925 69.6641C37.5944 70.4622 36.5119 70.9106 35.3832 70.9106C34.2545 70.9106 33.172 70.4622 32.3739 69.6641C31.5758 68.866 31.1274 67.7835 31.1274 66.6548C31.1274 62.3047 33.0328 57.5498 35.3832 57.5498C37.7336 57.5498 39.639 62.244 39.639 66.6548Z" fill="#9269AD"/>
<path d="M39.639 66.6553C39.639 66.544 39.639 66.4327 39.639 66.318V66.2068C39.6061 66.6704 39.4253 67.1113 39.1231 67.4646C38.3171 68.4763 36.54 69.5756 34.7055 68.8135C31.6233 67.5219 31.5389 63.8765 32.2235 60.8584C31.5047 62.7078 31.1354 64.6745 31.1343 66.6586C31.1343 67.7873 31.5827 68.8698 32.3808 69.6679C33.1789 70.466 34.2613 70.9144 35.39 70.9144C36.5187 70.9144 37.6012 70.466 38.3993 69.6679C39.1974 68.8698 39.6458 67.7873 39.6458 66.6586L39.639 66.6553Z" fill="#9269AD"/>
<path opacity="0.1" d="M39.639 66.6553C39.639 66.544 39.639 66.4327 39.639 66.318V66.2068C39.6061 66.6704 39.4253 67.1113 39.1231 67.4646C38.3171 68.4763 36.54 69.5756 34.7055 68.8135C31.6233 67.5219 31.5389 63.8765 32.2235 60.8584C31.5047 62.7078 31.1354 64.6745 31.1343 66.6586C31.1343 67.7873 31.5827 68.8698 32.3808 69.6679C33.1789 70.466 34.2613 70.9144 35.39 70.9144C36.5187 70.9144 37.6012 70.466 38.3993 69.6679C39.1974 68.8698 39.6458 67.7873 39.6458 66.6586L39.639 66.6553Z" fill="black"/>
<path d="M3.37061 44.3721V55.2678C3.37759 55.3474 3.40607 55.4236 3.45298 55.4884C3.4999 55.5531 3.5635 55.6039 3.63701 55.6353C3.83095 55.7334 4.04523 55.7845 4.26256 55.7845C4.47989 55.7845 4.69418 55.7334 4.88811 55.6353C4.95942 55.6035 5.02102 55.5533 5.06664 55.49C5.11225 55.4266 5.14025 55.3522 5.14777 55.2745V44.3721H3.37061Z" fill="#37474F"/>
<path d="M8.50983 47.5513C8.52584 48.12 8.42765 48.6862 8.22107 49.2163C8.01449 49.7465 7.7037 50.2298 7.30709 50.6377C6.91048 51.0457 6.4361 51.3699 5.912 51.5914C5.38789 51.8128 4.82471 51.9269 4.25576 51.9269C3.6868 51.9269 3.12362 51.8128 2.59952 51.5914C2.07542 51.3699 1.60104 51.0457 1.20443 50.6377C0.807816 50.2298 0.497029 49.7465 0.290445 49.2163C0.0838603 48.6862 -0.014328 48.12 0.00168622 47.5513C0.00168622 43.2011 1.907 38.4463 4.25407 38.4463C6.60115 38.4463 8.50983 43.1303 8.50983 47.5513Z" fill="#9269AD"/>
<path d="M144.863 44.3721V55.2678C144.855 55.3455 144.827 55.4198 144.782 55.4832C144.736 55.5466 144.674 55.5968 144.603 55.6286C144.409 55.7267 144.195 55.7778 143.977 55.7778C143.76 55.7778 143.546 55.7267 143.352 55.6286C143.281 55.5968 143.219 55.5466 143.173 55.4832C143.128 55.4198 143.1 55.3455 143.092 55.2678V44.3721H144.863Z" fill="#37474F"/>
<path d="M139.723 47.5513C139.707 48.12 139.805 48.6862 140.012 49.2163C140.218 49.7465 140.529 50.2298 140.926 50.6377C141.322 51.0457 141.797 51.3699 142.321 51.5914C142.845 51.8128 143.408 51.9269 143.977 51.9269C144.546 51.9269 145.109 51.8128 145.633 51.5914C146.157 51.3699 146.632 51.0457 147.028 50.6377C147.425 50.2298 147.736 49.7465 147.942 49.2163C148.149 48.6862 148.247 48.12 148.231 47.5513C148.231 43.2011 146.326 38.4463 143.979 38.4463C141.632 38.4463 139.723 43.1303 139.723 47.5513Z" fill="#9269AD"/>
<path d="M121.329 75.2282H124.286V71.9673C124.286 71.773 124.248 71.5807 124.173 71.4012C124.099 71.2218 123.99 71.0589 123.852 70.9217C123.715 70.7845 123.552 70.6757 123.372 70.6017C123.192 70.5277 123 70.4898 122.806 70.4902C122.414 70.4902 122.038 70.6459 121.761 70.9229C121.484 71.1998 121.329 71.5755 121.329 71.9673V75.2282Z" fill="#9269AD"/>
<g opacity="0.5">
<path d="M121.329 75.2282H124.286V71.9673C124.286 71.773 124.248 71.5807 124.173 71.4012C124.099 71.2218 123.99 71.0589 123.852 70.9217C123.715 70.7845 123.552 70.6757 123.372 70.6017C123.192 70.5277 123 70.4898 122.806 70.4902C122.414 70.4902 122.038 70.6459 121.761 70.9229C121.484 71.1998 121.329 71.5755 121.329 71.9673V75.2282Z" fill="black"/>
</g>
<path d="M121.723 76.3147C121.922 75.3232 122.296 74.2306 122.276 73.7383L121.986 73.7551C121.814 73.7668 121.651 73.8364 121.523 73.9528C121.396 74.0692 121.312 74.2254 121.285 74.3959C121.18 75.04 121.022 76.0247 120.947 76.4192C120.881 76.9232 120.768 77.4199 120.61 77.903C120.583 77.9727 120.531 78.0302 120.465 78.0649C120.321 78.1499 120.192 78.2569 120.081 78.3819C119.973 78.4763 119.889 78.4965 119.899 78.5302C119.915 78.5677 119.945 78.5976 119.983 78.6138C120.02 78.6301 120.062 78.6316 120.101 78.6179C120.187 78.5912 120.27 78.5538 120.347 78.5066C120.278 78.655 120.185 78.7907 120.071 78.9079C119.814 79.1777 119.791 79.3531 120.266 79.3935C120.563 79.4171 120.812 79.2519 121.086 78.6179C121.19 78.3849 121.278 78.1449 121.349 77.8996C121.531 77.269 121.645 76.7059 121.723 76.3147Z" fill="#FFA8A7"/>
<path d="M126.1 84.8395C126.211 84.7788 126.286 84.9238 126.387 85.0385C126.474 85.1233 126.543 85.2255 126.589 85.3386C126.586 85.4295 126.563 85.5187 126.522 85.6001C126.481 85.6815 126.424 85.7533 126.353 85.8107C126.184 85.9143 126.063 86.0803 126.016 86.2727C126.003 86.3914 125.957 86.504 125.883 86.5977C125.809 86.6913 125.71 86.7622 125.598 86.8021C125.467 86.8568 125.326 86.8849 125.185 86.8849C125.043 86.8849 124.902 86.8568 124.771 86.8021C124.613 86.701 124.771 86.5863 124.981 86.2693C125.271 85.8545 125.496 85.5578 125.496 85.17L126.1 84.8395Z" fill="#263238"/>
<path d="M125.867 84.4814L126.103 84.8187C126.154 84.891 126.174 84.9802 126.16 85.0672C126.145 85.1542 126.097 85.232 126.026 85.284C125.954 85.3278 125.869 85.3447 125.785 85.3318C125.702 85.3188 125.626 85.2768 125.571 85.2132L125.2 84.8052L125.867 84.4814Z" fill="#FFA8A7"/>
<path d="M121.329 78.1488C121.363 79.0422 121.531 79.9255 121.828 80.769C122.006 81.2533 122.232 81.7187 122.502 82.1584C122.6 82.327 125.389 85.0416 125.389 85.0416C125.522 85.0306 125.648 84.9762 125.747 84.8866C125.847 84.797 125.914 84.6774 125.938 84.5459C125.938 84.5459 124.795 82.6035 124.546 82.2056C124.22 81.8184 123.842 81.478 123.423 81.1939L123.504 77.707L121.329 78.1488Z" fill="#37474F"/>
<path d="M122.302 86.2891L121.713 86.1553L121.518 87.0135L122.107 87.1473L122.302 86.2891Z" fill="#FFA8A7"/>
<path d="M121.828 77.6631L124.337 77.7609C124.507 78.132 124.58 78.5406 124.549 78.9479C124.465 80.172 123.305 82.3606 123.305 82.3606C123.359 82.856 123.334 83.3569 123.23 83.8444C122.967 84.7369 122.656 85.6149 122.3 86.4747C122.186 86.492 122.07 86.4844 121.959 86.4524C121.848 86.4203 121.746 86.3647 121.659 86.2893C121.659 86.2893 122.037 82.9339 122.138 82.074C122.249 81.1432 122.532 79.4436 122.532 79.4436C122.345 79.2581 122.175 79.0548 122.027 78.8366C121.763 78.5035 121.628 78.0872 121.646 77.6631" fill="#37474F"/>
<path d="M125.294 77.0013C125.209 76.1368 125.07 75.2786 124.876 74.4317C124.853 74.2922 124.785 74.164 124.682 74.0671C124.579 73.9702 124.447 73.9099 124.306 73.8955C123.487 74.3373 123.494 74.924 124.192 75.6322C124.192 75.6322 124.482 76.772 124.573 77.3183C124.668 77.8173 124.713 78.3245 124.708 78.8325C124.704 78.9069 124.671 78.977 124.617 79.028C124.505 79.1521 124.411 79.2918 124.34 79.4428C124.266 79.5642 124.188 79.6081 124.209 79.6384C124.235 79.6698 124.272 79.6901 124.313 79.6951C124.353 79.7001 124.395 79.6895 124.428 79.6654C124.503 79.6147 124.571 79.5547 124.63 79.4867C124.607 79.6475 124.558 79.8035 124.485 79.9487C124.316 80.2859 124.343 80.4579 124.822 80.3601C125.112 80.2994 125.304 80.0667 125.382 79.3788C125.416 79.1251 125.432 78.8692 125.429 78.6133C125.375 77.9692 125.335 77.3993 125.294 77.0013Z" fill="#FFA8A7"/>
<path d="M121.581 86.7249L121.598 86.6406C121.537 86.6406 121.261 87.0925 121.008 87.2847C120.755 87.4769 120.471 87.6219 120.333 87.7096C120.195 87.7973 120.411 88.0941 120.832 88.1177C121.08 88.132 121.327 88.0746 121.544 87.9524C121.662 87.8411 121.746 87.6557 121.841 87.5747C121.935 87.4938 122.124 87.4264 122.178 87.3218C122.213 87.22 122.224 87.1117 122.212 87.0048C122.212 86.8935 122.212 86.7721 122.168 86.7755V86.8396C122.056 86.8953 121.932 86.922 121.807 86.9172C121.716 86.9138 121.53 86.8902 121.581 86.7249Z" fill="#263238"/>
<path d="M122.212 81.5042C122.212 81.5042 122.465 79.7203 122.532 79.4438C122.33 79.3334 122.143 79.1999 121.972 79.0459C122.089 79.2123 122.216 79.3711 122.353 79.5214L122.212 81.5042Z" fill="#263238"/>
<path d="M123.726 81.4434C123.605 81.7576 123.464 82.064 123.305 82.3606C123.305 82.3606 123.335 82.9339 123.332 83.0351L123.49 83.1733C123.494 82.9141 123.47 82.6552 123.419 82.4011C123.556 82.094 123.659 81.7729 123.726 81.4434Z" fill="#263238"/>
<path d="M123.423 73.7511C123.719 73.7846 124.014 73.833 124.306 73.8961C123.49 74.4693 124.192 75.6328 124.192 75.6328L123.757 76.8366C124.049 77.2199 124.286 77.6421 124.461 78.0911C124.232 78.3541 122.87 79.15 121.315 78.1484C121.315 78.1484 121.406 77.2717 121.534 76.6107C121.312 75.5383 121.248 75.1606 121.315 74.9077C121.497 74.1996 121.915 73.7477 122.394 73.7207L123.423 73.7511Z" fill="#F5F5F5"/>
<path d="M121.827 71.0879C121.672 71.1789 121.49 71.5735 121.49 72.3963C121.507 73.0944 121.733 73.2663 121.848 73.3169C122.027 73.3545 122.214 73.3487 122.391 73.3001V73.7115C122.391 73.7115 122.097 74.0487 122.117 74.2477C122.138 74.4466 122.542 74.4837 122.816 74.2983C123.016 74.143 123.188 73.9548 123.325 73.7418V72.7807C123.325 72.7807 123.453 72.9021 123.662 72.7167C123.747 72.6556 123.805 72.5635 123.824 72.4601C123.842 72.3567 123.819 72.2503 123.76 72.1636C123.724 72.1304 123.681 72.1061 123.634 72.0928C123.587 72.0794 123.538 72.0775 123.49 72.087C123.442 72.0966 123.398 72.1174 123.359 72.1477C123.321 72.1781 123.291 72.217 123.271 72.2614C122.992 72.2503 122.721 72.1691 122.482 72.0254C122.307 71.9315 122.156 71.7976 122.043 71.6348C121.929 71.4719 121.855 71.2845 121.827 71.0879Z" fill="#FFA8A7"/>
<path d="M122.276 72.2199C122.276 72.2431 122.285 72.2654 122.301 72.2819C122.318 72.2983 122.34 72.3075 122.363 72.3075C122.387 72.3075 122.409 72.2983 122.425 72.2819C122.442 72.2654 122.451 72.2431 122.451 72.2199C122.452 72.2079 122.45 72.1959 122.447 72.1845C122.443 72.1731 122.437 72.1625 122.429 72.1534C122.421 72.1444 122.412 72.1369 122.401 72.1315C122.39 72.1261 122.379 72.1229 122.367 72.1221C122.354 72.122 122.342 72.1246 122.33 72.1296C122.319 72.1346 122.308 72.1419 122.3 72.1511C122.291 72.1603 122.285 72.1711 122.281 72.1829C122.276 72.1948 122.275 72.2073 122.276 72.2199Z" fill="#263238"/>
<path d="M122.252 72.8135L122.05 72.8775C122.053 72.8912 122.06 72.904 122.068 72.9152C122.077 72.9264 122.087 72.9358 122.1 72.9427C122.112 72.9496 122.126 72.954 122.14 72.9556C122.154 72.9571 122.168 72.9558 122.181 72.9517C122.209 72.9425 122.232 72.9228 122.245 72.897C122.258 72.8712 122.261 72.8412 122.252 72.8135Z" fill="#F28F8F"/>
<path d="M121.558 71.9506L121.733 71.8292C121.726 71.8173 121.716 71.807 121.705 71.7989C121.693 71.7909 121.681 71.7853 121.667 71.7824C121.653 71.7796 121.639 71.7796 121.626 71.7824C121.612 71.7852 121.599 71.7908 121.588 71.7988C121.576 71.8066 121.565 71.8168 121.557 71.8288C121.549 71.8407 121.544 71.8541 121.541 71.8683C121.538 71.8824 121.538 71.897 121.541 71.9111C121.544 71.9253 121.549 71.9387 121.558 71.9506Z" fill="#263238"/>
<path d="M121.598 72.1567C121.597 72.1686 121.598 72.1806 121.602 72.192C121.606 72.2034 121.612 72.214 121.62 72.2231C121.628 72.2322 121.637 72.2396 121.648 72.245C121.659 72.2504 121.67 72.2536 121.682 72.2545C121.706 72.2545 121.728 72.2453 121.745 72.229C121.762 72.2126 121.772 72.1903 121.773 72.1668C121.773 72.1553 121.771 72.1439 121.767 72.1332C121.762 72.1226 121.756 72.1129 121.748 72.1048C121.739 72.0966 121.73 72.0902 121.719 72.0858C121.709 72.0814 121.697 72.0791 121.686 72.0791C121.674 72.0791 121.663 72.0814 121.652 72.0858C121.641 72.0902 121.632 72.0966 121.624 72.1048C121.615 72.1129 121.609 72.1226 121.605 72.1332C121.6 72.1439 121.598 72.1553 121.598 72.1668V72.1567Z" fill="#263238"/>
<path d="M122.013 72.1055L121.999 72.6349L121.719 72.5506L122.013 72.1055Z" fill="#F28F8F"/>
<path d="M122.397 73.2991C122.623 73.2722 123.072 73.1373 123.156 72.9619C123.128 73.0543 123.071 73.1356 122.994 73.1946C122.807 73.3048 122.607 73.3898 122.397 73.4475V73.2991Z" fill="#F28F8F"/>
<path d="M123.989 76.1963L123.375 77.0292L123.753 76.837L123.989 76.1963Z" fill="#E0E0E0"/>
<path d="M94.5423 90.6558C94.6935 89.8172 94.7365 88.9627 94.6704 88.1131C94.6688 88.0932 94.6609 88.0742 94.6478 88.0591C94.6347 88.0439 94.6171 88.0333 94.5976 88.0288C94.578 88.0243 94.5576 88.0261 94.5391 88.034C94.5207 88.0419 94.5053 88.0554 94.4951 88.0727L93.8442 89.2799C93.8442 89.2799 93.7667 90.1635 93.6857 90.7671C93.6264 91.3175 93.5135 91.8607 93.3485 92.3891C93.3194 92.4642 93.2644 92.5264 93.1934 92.5645C93.037 92.6555 92.895 92.7691 92.7719 92.9017C92.6572 93.0063 92.5628 93.0265 92.5763 93.0636C92.5935 93.1047 92.6258 93.1377 92.6665 93.1559C92.7072 93.174 92.7534 93.176 92.7955 93.1614C92.8892 93.1326 92.9787 93.0918 93.0619 93.04C92.9878 93.2005 92.8875 93.3475 92.7651 93.475C92.4852 93.7684 92.4616 93.9572 92.9742 94.0011C93.2946 94.028 93.5677 93.8493 93.8645 93.158C93.9783 92.9054 94.0741 92.6451 94.1511 92.379C94.3501 91.6911 94.458 91.0773 94.5423 90.6558Z" fill="#B16668"/>
<path d="M97.5874 100.233C97.5874 100.233 97.6279 100.233 97.7527 100.311C97.8943 100.399 98.0179 100.514 98.1169 100.648C98.1303 100.746 98.1228 100.846 98.0949 100.94C98.067 101.035 98.0193 101.123 97.955 101.198C97.8282 101.389 97.7613 101.613 97.7628 101.842C97.7519 101.99 97.7103 102.133 97.6407 102.264C97.571 102.395 97.4747 102.509 97.3581 102.601C97.149 102.746 96.8928 102.894 96.7747 102.857C96.6567 102.82 96.65 102.675 96.7983 102.034C96.9222 101.612 97.0102 101.18 97.0614 100.743L97.5874 100.233Z" fill="#263238"/>
<path d="M97.4965 100.111L97.6348 100.297C97.6566 100.325 97.6718 100.358 97.6794 100.393C97.687 100.428 97.6867 100.464 97.6786 100.499C97.658 100.624 97.5934 100.738 97.4965 100.819C97.4413 100.861 97.3732 100.881 97.3043 100.877C97.2569 100.873 97.2107 100.86 97.1688 100.837C97.127 100.814 97.0904 100.783 97.0615 100.745L96.9536 100.6L97.4965 100.111Z" fill="#B16668"/>
<path d="M94.1407 92.1162L95.6987 93.6742H95.6548L95.2974 96.4934C95.58 96.6847 95.8209 96.9314 96.0055 97.2184C96.3023 97.677 97.4826 100.112 97.4826 100.112C97.4826 100.112 97.3443 100.655 96.9396 100.601C96.9396 100.601 96.3124 99.8184 95.638 98.9618C94.8994 98.021 94.0834 97.0026 94.0395 96.8171C93.8136 95.8054 94.1407 92.1162 94.1407 92.1162Z" fill="#455A64"/>
<path d="M96.0365 97.2178C96.3333 97.6764 97.5136 100.111 97.5136 100.111C97.5136 100.111 97.3753 100.654 96.9706 100.6C96.9706 100.6 96.3434 99.8178 95.6689 98.9612L96.0365 97.2178Z" fill="#37474F"/>
<path d="M95.9111 101.848C95.7367 101.677 95.5405 101.529 95.3277 101.409C95.2244 101.402 95.1208 101.402 95.0175 101.409C94.9245 101.409 94.8317 101.399 94.741 101.379C94.5548 101.311 94.3744 101.229 94.2014 101.133C94.1279 101.088 94.0484 101.054 93.9653 101.032C93.8203 101.005 93.7057 101.001 93.6551 101.163C93.6394 101.212 93.6337 101.264 93.6382 101.315C93.6364 101.465 93.6703 101.613 93.7371 101.748C93.804 101.882 93.9019 101.998 94.0227 102.087C94.134 102.161 94.2823 102.219 94.4004 102.286C94.5801 102.36 94.7527 102.451 94.9163 102.556C95.1591 102.765 95.3851 102.971 95.7257 102.836C95.7934 102.817 95.8552 102.781 95.9053 102.731C95.9555 102.681 95.9922 102.62 96.0123 102.553C96.0595 102.374 95.8909 102.037 95.9111 101.848Z" fill="#263238"/>
<path d="M94.1576 91.874L97.4961 92.2112C97.587 93.1749 97.5036 94.147 97.2499 95.081C96.9801 96.2917 96.68 97.563 96.68 97.563C96.8241 98.0308 96.8346 98.5295 96.7104 99.0029C96.4507 99.8494 95.9685 102.099 95.9685 102.099C95.8149 101.775 95.5453 101.521 95.2131 101.387C95.2131 101.387 95.3345 100.203 95.4087 99.3469C95.4829 98.4903 95.5267 97.7754 95.5537 97.246C95.5975 96.4029 95.7189 93.6613 95.7189 93.6613H95.6751C95.6751 93.6613 94.3633 93.0408 94.1475 92.1033L94.1576 91.874Z" fill="#455A64"/>
<path d="M95.6988 93.6735C95.3216 93.4984 94.9709 93.2714 94.6567 92.999L95.4694 93.7578L95.3211 96.2971L95.6988 93.6735Z" fill="#37474F"/>
<path d="M95.3816 87.7422C94.8859 87.7422 94.2924 87.9007 94.0563 88.3559C93.8457 88.9341 93.7042 89.5352 93.6348 90.1466C93.6348 90.1466 93.8202 90.5479 94.5149 90.5007L95.3816 87.7422Z" fill="#263238"/>
<path d="M98.6021 91.4002C98.4639 89.9737 97.9479 88.9317 97.8872 88.5742L97.4691 90.3379C97.6076 90.8034 97.7202 91.2762 97.8063 91.7542C97.9089 92.2978 97.9585 92.8501 97.9547 93.4033C97.9485 93.4835 97.9138 93.5588 97.8569 93.6157C97.7331 93.7486 97.6307 93.8999 97.5534 94.0642C97.4725 94.1991 97.3881 94.2429 97.4117 94.2767C97.4401 94.3105 97.4801 94.3324 97.5238 94.338C97.5676 94.3436 97.6119 94.3326 97.6478 94.307C97.7295 94.2521 97.8042 94.1876 97.8704 94.1148C97.8474 94.289 97.7973 94.4585 97.722 94.6173C97.5399 94.9781 97.5702 95.1703 98.0592 95.0624C98.3762 94.995 98.5853 94.7454 98.6696 93.9968C98.7051 93.7217 98.722 93.4446 98.7202 93.1672C98.6999 92.4489 98.6426 91.8284 98.6021 91.4002Z" fill="#B16668"/>
<path d="M96.3971 87.7725C96.9839 87.9142 97.7865 88.1098 98.0192 88.737C98.2124 89.3441 98.3733 89.9609 98.5014 90.585C98.3733 90.7089 98.2173 90.8002 98.0465 90.8513C97.8757 90.9023 97.6952 90.9116 97.5201 90.8784L97.3852 90.4029L97.4965 92.2205C97.0379 92.723 95.1359 92.8511 94.1411 92.116C94.1411 92.116 94.3131 89.4182 94.3131 88.9157C94.3035 88.7679 94.3238 88.6196 94.3728 88.4798C94.4218 88.3399 94.4985 88.2114 94.5983 88.1019C94.6981 87.9923 94.8189 87.904 94.9536 87.8422C95.0882 87.7804 95.234 87.7464 95.3821 87.7422L96.3971 87.7725Z" fill="#37474F"/>
<path d="M97.3846 90.4024L97.0879 89.4717L97.4116 90.8644L97.3846 90.4024Z" fill="#263238"/>
<path d="M96.6159 85.1554C96.6687 85.1497 96.7222 85.1558 96.7723 85.1733C96.8225 85.1908 96.8681 85.2192 96.9059 85.2566C97.0307 85.3847 97.0037 85.6208 96.9059 86.1603L96.5215 86.2042L96.6159 85.1554Z" fill="#263238"/>
<path d="M94.3766 85.0003C94.293 85.0005 94.2103 84.9833 94.1338 84.9497C94.0158 84.8823 93.9854 85.0172 94.0495 85.1318C94.0923 85.2158 94.1561 85.2872 94.2347 85.3392C94.3133 85.3912 94.404 85.422 94.498 85.4286L94.6059 85.1284L94.3766 85.0003Z" fill="#263238"/>
<path d="M96.4375 86.2037C96.4948 86.2374 96.5758 86.1295 96.6466 86.0553C96.6741 86.0233 96.7093 85.9989 96.749 85.9844C96.7886 85.9699 96.8313 85.9659 96.8729 85.9726C96.9146 85.9794 96.9538 85.9968 96.9868 86.0231C97.0198 86.0493 97.0455 86.0837 97.0614 86.1227C97.176 86.3689 96.9096 86.696 96.7545 86.7972C96.7114 86.8347 96.6574 86.8575 96.6004 86.8624C96.5434 86.8672 96.4864 86.8538 96.4375 86.8242L96.3971 87.765C96.3273 87.9154 96.2215 88.0464 96.0892 88.1464C95.9569 88.2463 95.8021 88.3122 95.6383 88.3383C95.0853 88.4159 95.1999 87.9606 95.382 87.7347V87.3974C95.2447 87.4272 95.1034 87.434 94.9639 87.4177C94.8037 87.3017 94.6798 87.1427 94.6064 86.9591C94.3704 86.4926 94.3187 85.9545 94.4614 85.4517C94.657 84.6086 95.5641 84.5816 96.1037 84.9222C96.6432 85.2628 96.4375 86.2037 96.4375 86.2037Z" fill="#B16668"/>
<path d="M96.4371 86.3019C96.464 86.3019 96.5719 86.1198 96.6461 86.0557C96.7203 85.9917 96.6158 85.1554 96.6158 85.1554C96.6434 85.0687 96.6492 84.9767 96.6327 84.8872C96.6163 84.7978 96.578 84.7139 96.5214 84.6428C96.3258 84.4404 95.9514 84.4742 95.6749 84.4641C95.3368 84.4664 95.0018 84.3999 94.6902 84.2685C94.2991 84.0965 94.2687 84.0762 94.2215 84.2482C94.1832 84.3899 94.1781 84.5385 94.2068 84.6824C94.2355 84.8263 94.297 84.9616 94.3867 85.0778L94.5149 85.2869C94.6611 85.3739 94.827 85.4226 94.9971 85.4285C95.3583 85.426 95.7171 85.3715 96.0627 85.2666C96.1673 85.2666 96.1909 85.3543 96.2482 85.6376C96.3055 85.9208 96.3393 86.2985 96.4371 86.3019Z" fill="#263238"/>
<path d="M96.616 85.2199L96.9532 85.0344C96.9425 85.0111 96.9271 84.9903 96.908 84.9731C96.8889 84.956 96.8665 84.9429 96.8422 84.9347C96.818 84.9265 96.7922 84.9234 96.7667 84.9254C96.7411 84.9275 96.7163 84.9347 96.6936 84.9467C96.648 84.9735 96.6145 85.0169 96.6001 85.0678C96.5857 85.1186 96.5914 85.1731 96.616 85.2199Z" fill="#263238"/>
<path d="M95.3818 87.4017C95.6178 87.3563 95.8491 87.2897 96.0731 87.2028C96.1778 87.1486 96.2637 87.0639 96.3193 86.96C96.2926 87.0637 96.2456 87.1611 96.1811 87.2466C96.0495 87.4152 95.3818 87.5366 95.3818 87.5366V87.4017Z" fill="#9A4A4D"/>
<path d="M95.3619 86.188C95.3619 86.2157 95.3729 86.2423 95.3925 86.2619C95.4121 86.2815 95.4387 86.2925 95.4664 86.2925C95.4913 86.2881 95.5139 86.275 95.5302 86.2556C95.5464 86.2361 95.5553 86.2116 95.5553 86.1863C95.5553 86.161 95.5464 86.1365 95.5302 86.117C95.5139 86.0976 95.4913 86.0845 95.4664 86.0801C95.4524 86.0801 95.4385 86.0829 95.4256 86.0884C95.4127 86.0938 95.401 86.1018 95.3913 86.1119C95.3815 86.1219 95.3739 86.1339 95.3688 86.147C95.3638 86.16 95.3614 86.174 95.3619 86.188Z" fill="#263238"/>
<path d="M95.4766 85.8005L95.6958 85.9219C95.7105 85.8913 95.7132 85.8562 95.7032 85.8237C95.6932 85.7912 95.6712 85.7636 95.6418 85.7466C95.6276 85.7386 95.6118 85.7336 95.5955 85.732C95.5793 85.7304 95.5629 85.7322 95.5473 85.7373C95.5318 85.7423 95.5175 85.7506 95.5053 85.7615C95.4931 85.7724 95.4833 85.7857 95.4766 85.8005Z" fill="#263238"/>
<path d="M95.4289 86.8613L95.1929 86.949C95.2043 86.9806 95.2277 87.0064 95.258 87.0209C95.2882 87.0354 95.323 87.0374 95.3547 87.0266C95.3859 87.0138 95.411 86.9895 95.4248 86.9588C95.4386 86.928 95.4401 86.8931 95.4289 86.8613Z" fill="#9A4A4D"/>
<path d="M94.4513 85.8844L94.6536 85.7327C94.6442 85.7189 94.6321 85.7072 94.6181 85.6984C94.604 85.6895 94.5882 85.6836 94.5718 85.6811C94.5554 85.6786 94.5386 85.6794 94.5225 85.6837C94.5064 85.6879 94.4913 85.6954 94.4783 85.7057C94.4518 85.7264 94.4342 85.7564 94.4292 85.7897C94.4242 85.8229 94.4321 85.8568 94.4513 85.8844Z" fill="#263238"/>
<path d="M94.5152 86.1577C94.5152 86.1845 94.5259 86.2103 94.5448 86.2293C94.5638 86.2482 94.5895 86.2589 94.6164 86.2589C94.6432 86.2589 94.6689 86.2482 94.6879 86.2293C94.7069 86.2103 94.7175 86.1845 94.7175 86.1577C94.718 86.144 94.7157 86.1303 94.7109 86.1174C94.706 86.1046 94.6987 86.0928 94.6893 86.0828C94.6799 86.0728 94.6686 86.0647 94.6561 86.059C94.6436 86.0534 94.6301 86.0502 94.6164 86.0498C94.6026 86.0502 94.5891 86.0534 94.5766 86.059C94.5641 86.0647 94.5528 86.0728 94.5434 86.0828C94.534 86.0928 94.5267 86.1046 94.5219 86.1174C94.517 86.1303 94.5147 86.144 94.5152 86.1577Z" fill="#263238"/>
<path d="M94.9972 86.1436L95.0916 86.7539L94.7544 86.7135L94.9972 86.1436Z" fill="#9A4A4D"/>
<path d="M46.7307 85.0362C46.3049 85.0362 45.8967 84.8671 45.5956 84.566C45.2946 84.265 45.1255 83.8567 45.1255 83.431V83.3635C45.1255 83.0058 45.2676 82.6627 45.5206 82.4097C45.7735 82.1568 46.1166 82.0146 46.4744 82.0146H46.9634C47.3211 82.0146 47.6642 82.1568 47.9172 82.4097C48.1701 82.6627 48.3122 83.0058 48.3122 83.3635V83.431C48.3123 83.8526 48.1464 84.2574 47.8505 84.5578C47.5545 84.8581 47.1523 85.03 46.7307 85.0362Z" fill="#263238"/>
<path d="M47.9208 88.3283C47.7084 87.2525 47.3003 86.0655 47.3205 85.5293L47.6342 85.5495C47.8216 85.5616 47.9993 85.6369 48.1383 85.7631C48.2774 85.8893 48.3695 86.0589 48.3997 86.2442C48.511 86.9456 48.6829 88.0146 48.7369 88.453C48.8072 89.0003 48.928 89.5399 49.0977 90.065C49.1267 90.1404 49.1834 90.2019 49.2562 90.2369C49.4102 90.33 49.5508 90.4434 49.6744 90.5742C49.789 90.6787 49.8835 90.6989 49.87 90.736C49.8527 90.7771 49.8204 90.8101 49.7797 90.8283C49.739 90.8465 49.6929 90.8484 49.6508 90.8338C49.5576 90.8036 49.4683 90.7629 49.3844 90.7124C49.4584 90.8729 49.5587 91.0199 49.6811 91.1474C49.961 91.4408 49.9846 91.6297 49.472 91.6735C49.1348 91.7005 48.8785 91.5218 48.5818 90.8304C48.4679 90.5779 48.3722 90.3176 48.2951 90.0515C48.1299 89.3635 48.0051 88.7532 47.9208 88.3283Z" fill="#B16668"/>
<path d="M47.1899 85.5129C47.487 85.4844 47.7864 85.532 48.06 85.6512C48.1707 85.7154 48.2634 85.8066 48.3295 85.9162C48.3955 86.0259 48.4327 86.1505 48.4377 86.2784C48.5017 86.5954 48.6063 87.4284 48.6063 87.4284C48.6063 87.4284 48.4309 87.8128 47.6519 87.6543L47.1899 85.5129Z" fill="#263238"/>
<path d="M44.9674 97.9082C44.9674 97.9082 44.9269 97.9082 44.8022 97.9858C44.6605 98.0741 44.5369 98.1885 44.438 98.323C44.4247 98.4208 44.4323 98.5204 44.4602 98.6151C44.4881 98.7098 44.5357 98.7976 44.5998 98.8727C44.7266 99.0634 44.7936 99.2877 44.792 99.5168C44.8029 99.6644 44.8445 99.8082 44.9142 99.9389C44.9839 100.07 45.0801 100.184 45.1967 100.276C45.4058 100.421 45.6655 100.569 45.7801 100.532C45.8948 100.495 45.9049 100.35 45.7565 99.709C45.6327 99.2866 45.5447 98.8546 45.4935 98.4174L44.9674 97.9082Z" fill="#263238"/>
<path d="M45.0585 97.7881L44.9202 97.9736C44.8984 98.002 44.8832 98.0348 44.8756 98.0698C44.868 98.1048 44.8683 98.141 44.8763 98.1759C44.897 98.3009 44.9616 98.4145 45.0585 98.4963C45.1137 98.5376 45.1818 98.558 45.2507 98.5536C45.2981 98.55 45.3443 98.5365 45.3861 98.5138C45.428 98.4911 45.4646 98.4599 45.4935 98.4221L45.6014 98.2771L45.0585 97.7881Z" fill="#B16668"/>
<path d="M48.3356 89.8457L47.5296 90.1492L46.8552 91.3497H46.899L47.2565 94.1689C46.9739 94.3603 46.733 94.6069 46.5483 94.8939C46.2516 95.3526 45.0713 97.7873 45.0713 97.7873C45.0713 97.7873 45.2096 98.3302 45.6142 98.2763C45.6142 98.2763 46.2415 97.4939 46.9159 96.6374C47.4911 95.955 48.0249 95.2389 48.5143 94.4926C48.8246 93.4 48.3356 89.8457 48.3356 89.8457Z" fill="#9269AD"/>
<path d="M46.5351 94.8936C46.2384 95.3522 45.0581 97.7869 45.0581 97.7869C45.0581 97.7869 45.1964 98.3299 45.601 98.2759C45.601 98.2759 46.2283 97.4935 46.9027 96.637L46.5351 94.8936Z" fill="#9269AD"/>
<path opacity="0.2" d="M46.5351 94.8936C46.2384 95.3522 45.0581 97.7869 45.0581 97.7869C45.0581 97.7869 45.1964 98.3299 45.601 98.2759C45.601 98.2759 46.2283 97.4935 46.9027 96.637L46.5351 94.8936Z" fill="black"/>
<path d="M46.6334 99.5343C46.8274 99.3877 47.0408 99.2685 47.2674 99.1802C47.3712 99.1827 47.4749 99.1917 47.5776 99.2072C47.6695 99.2173 47.7622 99.2173 47.8541 99.2072C48.0484 99.1652 48.239 99.1077 48.424 99.0352C48.503 98.9995 48.5873 98.9767 48.6736 98.9678C48.8186 98.9678 48.9332 98.9678 48.9636 99.1364C48.9721 99.1877 48.9721 99.2401 48.9636 99.2915C48.9475 99.441 48.896 99.5844 48.8133 99.7099C48.7306 99.8354 48.6191 99.9394 48.4881 100.013C48.3701 100.07 48.215 100.111 48.0902 100.158C47.9015 100.208 47.7175 100.275 47.5405 100.357C47.2741 100.529 47.0212 100.694 46.7042 100.526C46.6393 100.499 46.5826 100.455 46.5394 100.4C46.4963 100.344 46.4683 100.278 46.458 100.209C46.4142 100.013 46.63 99.713 46.6334 99.5343Z" fill="#263238"/>
<path d="M48.2383 89.6973L45.1156 89.8962C44.893 90.6078 44.8964 91.2451 45.1426 92.6277C45.3202 93.518 45.5637 94.3938 45.871 95.248C45.7287 95.7176 45.7217 96.2178 45.8507 96.6913C46.107 97.5377 46.596 99.6791 46.596 99.6791C46.8231 99.4675 47.0871 99.2995 47.375 99.1834C47.375 99.1834 47.2232 97.8918 47.1491 97.0352C47.0749 96.1787 47.031 95.4638 47.004 94.9343C46.9602 94.0913 46.8388 91.3497 46.8388 91.3497H46.8826C46.8826 91.3497 48.0258 90.9315 48.2315 90.0008L48.2383 89.6973Z" fill="#9269AD"/>
<path opacity="0.2" d="M46.8423 91.3502C47.219 91.1745 47.5697 90.9475 47.8843 90.6758L47.075 91.4345L47.22 93.9738L46.8423 91.3502Z" fill="black"/>
<path d="M44.043 89.0739C44.159 88.1235 44.3325 87.1809 44.5623 86.2514C44.5871 86.1139 44.6539 85.9875 44.7536 85.8897C44.8532 85.7918 44.9808 85.7273 45.1187 85.7051C46.0056 86.1839 45.9989 86.8213 45.2435 87.5868C45.2435 87.5868 44.9265 88.8278 44.8287 89.4314C44.7259 89.975 44.6762 90.5272 44.6803 91.0804C44.6865 91.1606 44.7212 91.236 44.7781 91.2929C44.9019 91.4258 45.0043 91.5771 45.0816 91.7414C45.1625 91.8763 45.2469 91.9201 45.2233 91.9538C45.1949 91.9876 45.1549 92.0096 45.1112 92.0152C45.0674 92.0208 45.0231 92.0097 44.9872 91.9842C44.9055 91.9293 44.8308 91.8648 44.7646 91.792C44.7911 91.9656 44.8446 92.134 44.9231 92.291C45.1052 92.6519 45.0749 92.8407 44.5859 92.7362C44.2689 92.6687 44.0598 92.4192 43.9755 91.6706C43.94 91.3955 43.9231 91.1183 43.9249 90.841C43.9452 90.1261 44.0025 89.5056 44.043 89.0739Z" fill="#B16668"/>
<path d="M46.0769 85.5456L45.1191 85.7041C46.006 86.328 45.2439 87.5858 45.2439 87.5858L45.716 88.8976C45.4818 89.2128 45.2817 89.5519 45.1191 89.9093C45.4092 90.1622 47.1425 90.7591 48.3363 89.8587C48.3363 89.8587 48.2688 89.3832 48.1272 88.6649C48.37 87.4981 48.4374 87.0867 48.3666 86.8136C48.1676 86.0447 47.7124 85.5557 47.1931 85.5254L46.0769 85.5456Z" fill="#455A64"/>
<path d="M47.8134 82.6533C47.982 82.7545 48.1911 83.1794 48.1708 84.073C48.154 84.8318 47.9078 85.0206 47.783 85.0847C47.5876 85.124 47.3858 85.1182 47.1929 85.0678V85.513C47.1929 85.513 47.5099 85.8839 47.4896 86.093C47.4694 86.3021 47.031 86.3527 46.7309 86.147C46.5136 85.98 46.3265 85.7769 46.1778 85.5467V84.5013C46.1778 84.5013 46.0429 84.6328 45.8103 84.4339C45.7177 84.3674 45.6549 84.2673 45.6354 84.1551C45.6158 84.0428 45.6411 83.9274 45.7057 83.8336C45.7446 83.7992 45.7909 83.7743 45.8411 83.7608C45.8912 83.7473 45.9437 83.7455 45.9946 83.7556C46.0455 83.7658 46.0934 83.7875 46.1346 83.8192C46.1757 83.8508 46.209 83.8915 46.2318 83.9381C46.5353 83.9258 46.8309 83.8377 47.0917 83.6819C47.2847 83.5796 47.4507 83.4331 47.5761 83.2543C47.7016 83.0755 47.7829 82.8696 47.8134 82.6533Z" fill="#B16668"/>
<path d="M47.3207 83.8845C47.3206 83.9029 47.3152 83.9209 47.3051 83.9362C47.295 83.9516 47.2806 83.9636 47.2638 83.9709C47.2469 83.9782 47.2283 83.9804 47.2102 83.9773C47.1921 83.9742 47.1753 83.9658 47.1618 83.9533C47.1484 83.9408 47.1389 83.9246 47.1345 83.9067C47.1302 83.8889 47.1311 83.8701 47.1372 83.8528C47.1434 83.8355 47.1544 83.8203 47.169 83.8092C47.1836 83.798 47.2012 83.7914 47.2195 83.7901C47.2324 83.7896 47.2452 83.7917 47.2572 83.7962C47.2692 83.8007 47.2803 83.8076 47.2897 83.8163C47.2991 83.8251 47.3066 83.8356 47.312 83.8473C47.3173 83.859 47.3202 83.8717 47.3207 83.8845Z" fill="#263238"/>
<path d="M47.3481 84.5283L47.5673 84.5958C47.5634 84.6108 47.5566 84.6249 47.5471 84.6372C47.5376 84.6495 47.5257 84.6597 47.5122 84.6673C47.4986 84.6749 47.4836 84.6796 47.4682 84.6812C47.4527 84.6828 47.4371 84.6813 47.4223 84.6767C47.3929 84.6667 47.3686 84.6455 47.3547 84.6178C47.3409 84.59 47.3385 84.5578 47.3481 84.5283Z" fill="#9A4A4D"/>
<path d="M48.1034 83.5899L47.9111 83.4584C47.9186 83.445 47.9289 83.4334 47.9413 83.4243C47.9536 83.4152 47.9678 83.4089 47.9828 83.4057C47.9978 83.4025 48.0133 83.4025 48.0282 83.4058C48.0432 83.4091 48.0573 83.4155 48.0696 83.4246C48.0956 83.4425 48.1136 83.4696 48.1199 83.5005C48.1262 83.5313 48.1202 83.5633 48.1034 83.5899Z" fill="#263238"/>
<path d="M48.0591 83.8268C48.0618 83.8409 48.0613 83.8555 48.0577 83.8694C48.0541 83.8833 48.0475 83.8963 48.0383 83.9073C48.0291 83.9184 48.0176 83.9273 48.0046 83.9334C47.9916 83.9395 47.9774 83.9427 47.963 83.9427C47.9487 83.9427 47.9345 83.9395 47.9214 83.9334C47.9084 83.9273 47.8969 83.9184 47.8878 83.9073C47.8786 83.8963 47.872 83.8833 47.8684 83.8694C47.8648 83.8555 47.8643 83.8409 47.8669 83.8268C47.866 83.8141 47.8677 83.8014 47.8718 83.7894C47.8759 83.7774 47.8824 83.7663 47.8909 83.7568C47.8994 83.7474 47.9097 83.7398 47.9213 83.7344C47.9328 83.729 47.9453 83.7261 47.958 83.7256C47.9714 83.7252 47.9847 83.7275 47.9972 83.7324C48.0097 83.7373 48.0211 83.7447 48.0306 83.7542C48.04 83.7637 48.0475 83.7751 48.0524 83.7875C48.0573 83.8 48.0596 83.8134 48.0591 83.8268Z" fill="#263238"/>
<path d="M47.6079 83.7598L47.6248 84.333L47.9249 84.242L47.6079 83.7598Z" fill="#9A4A4D"/>
<path d="M47.189 85.0579C46.9429 85.0242 46.4438 84.8792 46.3662 84.6836C46.3961 84.7845 46.4576 84.8731 46.5416 84.9365C46.7442 85.0561 46.962 85.148 47.189 85.2097V85.0579Z" fill="#9A4A4D"/>
<path d="M45.4629 88.2002L46.1306 89.104L45.7158 88.8982L45.4629 88.2002Z" fill="#263238"/>
<path d="M45.6786 81.8504C45.8052 81.9222 45.9067 82.031 45.9696 82.1622C46.0324 82.2935 46.0535 82.4408 46.0299 82.5844C46.0064 82.728 45.9394 82.861 45.838 82.9653C45.7366 83.0697 45.6057 83.1404 45.4628 83.168C45.3199 83.1957 45.172 83.1788 45.039 83.1198C44.9061 83.0607 44.7944 82.9623 44.719 82.8379C44.6437 82.7134 44.6083 82.5688 44.6177 82.4236C44.6271 82.2784 44.6807 82.1395 44.7715 82.0258C44.872 81.8866 45.0217 81.7909 45.1903 81.7584C45.3588 81.7258 45.5335 81.7587 45.6786 81.8504Z" fill="#263238"/>
<path d="M45.1157 85.7051C44.9775 85.7388 44.6234 85.7051 44.4413 86.4065C44.2592 87.1079 44.1445 87.7824 44.1445 87.7824C44.2673 87.9229 44.4283 88.0248 44.6079 88.0757C44.7874 88.1266 44.9779 88.1242 45.1562 88.069C45.1562 88.069 45.3855 87.3676 45.5339 86.9056C45.6823 86.4436 45.6013 85.8737 45.1157 85.7051Z" fill="#263238"/>
<path d="M21.8131 74.2226C21.672 73.4374 21.6312 72.6374 21.6917 71.8418C21.6925 71.8226 21.6996 71.8041 21.712 71.7893C21.7243 71.7745 21.7413 71.7642 21.7601 71.7599C21.7789 71.7557 21.7986 71.7578 21.8161 71.7659C21.8336 71.774 21.848 71.7877 21.8569 71.8047L22.4673 72.9344C22.4673 72.9344 22.5381 73.764 22.6157 74.3305C22.6691 74.8456 22.7741 75.354 22.9293 75.8481C22.9564 75.9187 23.0078 75.9773 23.0743 76.0133C23.2212 76.0995 23.3543 76.2075 23.4688 76.3337C23.5768 76.4314 23.6644 76.4517 23.6543 76.4854C23.6372 76.5232 23.6068 76.5534 23.5689 76.5702C23.5309 76.587 23.4881 76.5893 23.4486 76.5765C23.3603 76.5492 23.2754 76.5119 23.1957 76.4652C23.267 76.614 23.3614 76.7506 23.4756 76.8698C23.7386 77.1464 23.7622 77.3251 23.28 77.3656C22.9765 77.3925 22.7236 77.2239 22.4437 76.5765C22.338 76.3386 22.2479 76.0942 22.1739 75.8447C22.0087 75.1938 21.894 74.6206 21.8131 74.2226Z" fill="#FFA8A7"/>
<path d="M21.0273 71.4951C21.4893 71.4951 22.039 71.6435 22.2683 72.0684C22.4654 72.6131 22.5978 73.179 22.6629 73.7545C22.6629 73.7545 22.4875 74.1322 21.8401 74.0917L21.0273 71.4951Z" fill="#9269AD"/>
<path opacity="0.2" d="M21.0273 71.4951C21.4893 71.4951 22.039 71.6435 22.2683 72.0684C22.4654 72.6131 22.5978 73.179 22.6629 73.7545C22.6629 73.7545 22.4875 74.1322 21.8401 74.0917L21.0273 71.4951Z" fill="black"/>
<path d="M17.3346 82.8801C17.2199 82.8228 17.1457 82.9678 17.0412 83.0858C16.9504 83.1707 16.8811 83.2758 16.8389 83.3927C16.8412 83.4848 16.8636 83.5754 16.9043 83.658C16.9451 83.7407 17.0033 83.8136 17.0749 83.8716C17.1592 83.9236 17.2324 83.9918 17.2903 84.0723C17.3482 84.1527 17.3896 84.2438 17.4121 84.3403C17.4243 84.4618 17.4712 84.5773 17.5471 84.6729C17.623 84.7686 17.7248 84.8404 17.8404 84.8798C17.9729 84.9353 18.115 84.9639 18.2586 84.9639C18.4022 84.9639 18.5443 84.9353 18.6767 84.8798C18.8386 84.7753 18.6767 84.6607 18.4643 84.3369C18.1709 83.9154 17.9416 83.6119 17.9416 83.2173L17.3346 82.8801Z" fill="#263238"/>
<path d="M17.5712 82.5371L17.3284 82.8912C17.3025 82.9274 17.2841 82.9684 17.2741 83.0119C17.2642 83.0553 17.2629 83.1002 17.2705 83.1441C17.278 83.188 17.2941 83.23 17.318 83.2676C17.3418 83.3052 17.3729 83.3377 17.4093 83.3633C17.4828 83.4072 17.5693 83.4238 17.6538 83.4102C17.7383 83.3967 17.8153 83.3538 17.8713 83.2891L18.2524 82.8777L17.5712 82.5371Z" fill="#FFA8A7"/>
<path d="M22.0286 75.5928C22.0286 76.048 21.9139 77.8792 21.6003 78.6885C21.2867 79.4978 21.108 80.0037 21.0102 80.1723C20.9124 80.3409 18.073 83.1061 18.073 83.1061C17.9377 83.0947 17.8099 83.0394 17.7088 82.9487C17.6078 82.8581 17.5391 82.7369 17.5132 82.6036C17.5132 82.6036 18.6766 80.6241 18.9295 80.2195C19.2617 79.8259 19.6463 79.4798 20.0727 79.1909L19.9918 75.6467L22.0286 75.5928Z" fill="#37474F"/>
<path d="M21.4053 85.2489L22.0039 85.1133L21.8056 84.2385L21.2071 84.3741L21.4053 85.2489Z" fill="#FFA8A7"/>
<path d="M22.0287 75.5928H19.1488C19.087 76.014 19.0509 76.4385 19.0409 76.8641C19.0173 78.1118 20.1807 80.378 20.1807 80.378C20.123 80.8822 20.1481 81.3925 20.2549 81.8887C20.523 82.7974 20.8393 83.6912 21.2025 84.5663C21.3182 84.5835 21.4362 84.5755 21.5485 84.5429C21.6609 84.5103 21.7648 84.4539 21.8533 84.3774C21.8533 84.3774 21.4689 80.9614 21.3643 80.0846C21.2531 79.137 20.9664 77.407 20.9664 77.407C21.1564 77.2171 21.3291 77.0106 21.4824 76.7899C21.7488 76.435 21.9352 76.0266 22.0287 75.5928Z" fill="#37474F"/>
<path d="M18.0064 74.9216C18.1379 73.5896 18.6202 72.6116 18.6809 72.2744L19.0754 73.9268C18.9379 74.3641 18.8253 74.8088 18.7382 75.2588C18.6409 75.7678 18.5934 76.2851 18.5965 76.8033C18.6031 76.8779 18.6367 76.9474 18.691 76.9989C18.8091 77.1234 18.907 77.2656 18.981 77.4204C19.0585 77.5452 19.1361 77.5891 19.1159 77.616C19.0894 77.6482 19.0518 77.6692 19.0105 77.6748C18.9693 77.6805 18.9274 77.6703 18.8933 77.6464C18.817 77.5938 18.7468 77.5327 18.6842 77.4643C18.7081 77.6275 18.7582 77.7858 18.8326 77.933C19.0046 78.2702 18.9776 78.4523 18.4954 78.3512C18.1986 78.2871 18.003 78.0544 17.9255 77.3395C17.8912 77.0813 17.8754 76.821 17.8783 76.5605C17.9154 75.9097 17.9693 75.3263 18.0064 74.9216Z" fill="#FFA8A7"/>
<path d="M20.0762 71.5221C19.5232 71.657 18.7712 71.829 18.552 72.4259C18.3724 72.9957 18.2216 73.5742 18.1001 74.1592C18.2209 74.2746 18.3672 74.3599 18.5272 74.4079C18.6872 74.456 18.8563 74.4655 19.0207 74.4357L19.1489 73.9872V75.5924C19.5805 76.0645 21.0845 76.2837 22.0287 75.5924V72.5945C22.0379 72.4551 22.0187 72.3153 21.9722 72.1835C21.9257 72.0518 21.853 71.9309 21.7584 71.8281C21.6638 71.7253 21.5493 71.6428 21.4219 71.5856C21.2945 71.5283 21.1567 71.4976 21.0171 71.4951L20.0762 71.5221Z" fill="#9269AD"/>
<path opacity="0.2" d="M19.1494 73.9882L19.4259 73.1182L19.1494 74.3794V73.9882Z" fill="black"/>
<path d="M22.1303 69.5055C22.1323 69.6767 22.0834 69.8446 21.9898 69.9879C21.8962 70.1311 21.762 70.2434 21.6045 70.3103C21.4469 70.3772 21.273 70.3957 21.1049 70.3635C20.9368 70.3314 20.782 70.25 20.6603 70.1297C20.5385 70.0093 20.4553 69.8555 20.4212 69.6878C20.387 69.5201 20.4035 69.346 20.4685 69.1876C20.5336 69.0293 20.6442 68.8939 20.7864 68.7986C20.9286 68.7033 21.0959 68.6524 21.267 68.6523C21.4943 68.6523 21.7123 68.7419 21.8739 68.9016C22.0355 69.0613 22.1277 69.2783 22.1303 69.5055Z" fill="#263238"/>
<path d="M19.8675 69.0711C19.8184 69.0661 19.7688 69.072 19.7222 69.0883C19.6755 69.1046 19.6331 69.1309 19.5978 69.1655C19.4797 69.2869 19.5067 69.5027 19.5978 70.0119L19.9586 70.0557L19.8675 69.0711Z" fill="#263238"/>
<path d="M20.0362 70.0551C19.9856 70.0854 19.9081 69.9843 19.8406 69.9135C19.8145 69.8842 19.7814 69.862 19.7445 69.849C19.7075 69.8359 19.6678 69.8324 19.6291 69.8388C19.5904 69.8452 19.554 69.8613 19.5231 69.8855C19.4923 69.9098 19.4681 69.9414 19.4528 69.9775C19.3449 70.2068 19.5911 70.5137 19.7395 70.6149C19.7794 70.6507 19.8299 70.6727 19.8834 70.6775C19.9368 70.6824 19.9904 70.6699 20.0362 70.6419L20.0767 71.522C20.1413 71.6633 20.2397 71.7864 20.3632 71.8805C20.4867 71.9746 20.6315 72.0368 20.7849 72.0616C21.3042 72.1324 21.1963 71.7041 21.0277 71.495V71.1747C21.1572 71.2025 21.2905 71.2093 21.4222 71.1949C21.5722 71.0848 21.6889 70.9354 21.7594 70.7633C21.9799 70.3259 22.0292 69.8221 21.8977 69.3503C21.7122 68.5612 20.8624 68.5376 20.3566 68.8546C19.8507 69.1716 20.0362 70.0551 20.0362 70.0551Z" fill="#FFA8A7"/>
<path d="M20.0363 70.143C20.0127 70.143 19.9081 69.9744 19.8407 69.9137C19.7732 69.853 19.8677 69.0707 19.8677 69.0707C19.8428 68.9895 19.8381 68.9034 19.854 68.82C19.8698 68.7365 19.9058 68.6582 19.9587 68.5918C20.1408 68.3996 20.4949 68.4333 20.7512 68.4232C21.138 68.4035 21.5258 68.4125 21.9112 68.4502C21.9763 68.4486 22.0394 68.4728 22.0866 68.5176C22.1023 68.5437 22.1123 68.5729 22.1158 68.6031C22.1193 68.6334 22.1162 68.664 22.1068 68.693C22.071 68.8624 21.9814 69.0156 21.8513 69.1299C21.7213 69.2441 21.5577 69.3133 21.3852 69.327C21.0424 69.3258 20.7016 69.2747 20.3735 69.1752C20.2757 69.1752 20.2555 69.2561 20.2015 69.5124C20.1476 69.7687 20.1273 70.143 20.0363 70.143Z" fill="#263238"/>
<path d="M19.8704 69.1273L19.5332 68.9553C19.5436 68.9338 19.5582 68.9147 19.5761 68.8989C19.594 68.8832 19.6149 68.8712 19.6375 68.8637C19.6602 68.8561 19.6841 68.8532 19.7079 68.855C19.7316 68.8569 19.7548 68.8634 19.776 68.8744C19.8218 68.8957 19.8574 68.9341 19.8751 68.9815C19.8928 69.0288 19.8911 69.0812 19.8704 69.1273Z" fill="#263238"/>
<path d="M21.0242 71.1755C20.8044 71.1331 20.5888 71.0711 20.3801 70.9901C20.2808 70.9395 20.1995 70.8594 20.1475 70.7607C20.1723 70.8588 20.2171 70.9506 20.279 71.0305C20.4004 71.189 21.0242 71.3037 21.0242 71.3037V71.1755Z" fill="#F28F8F"/>
<path d="M21.0411 70.0358C21.0437 70.0499 21.0432 70.0645 21.0396 70.0784C21.036 70.0923 21.0294 70.1052 21.0202 70.1163C21.0111 70.1274 20.9996 70.1363 20.9865 70.1424C20.9735 70.1485 20.9593 70.1517 20.945 70.1517C20.9306 70.1517 20.9164 70.1485 20.9034 70.1424C20.8904 70.1363 20.8789 70.1274 20.8697 70.1163C20.8605 70.1052 20.8539 70.0923 20.8503 70.0784C20.8467 70.0645 20.8462 70.0499 20.8489 70.0358C20.8462 70.0217 20.8467 70.0071 20.8503 69.9932C20.8539 69.9793 20.8605 69.9663 20.8697 69.9553C20.8789 69.9442 20.8904 69.9353 20.9034 69.9292C20.9164 69.9231 20.9306 69.9199 20.945 69.9199C20.9593 69.9199 20.9735 69.9231 20.9865 69.9292C20.9996 69.9353 21.0111 69.9442 21.0202 69.9553C21.0294 69.9663 21.036 69.9793 21.0396 69.9932C21.0432 70.0071 21.0437 70.0217 21.0411 70.0358Z" fill="#263238"/>
<path d="M20.9396 69.6634L20.7339 69.7781C20.7191 69.7497 20.7157 69.7168 20.7245 69.686C20.7333 69.6553 20.7536 69.6291 20.7811 69.6128C20.7948 69.6053 20.8098 69.6007 20.8253 69.5992C20.8408 69.5977 20.8564 69.5993 20.8712 69.6041C20.8861 69.6088 20.8998 69.6165 20.9115 69.6267C20.9233 69.6369 20.9328 69.6494 20.9396 69.6634Z" fill="#263238"/>
<path d="M20.9839 70.6758L21.2031 70.7567C21.1982 70.7717 21.1903 70.7855 21.18 70.7973C21.1696 70.8092 21.157 70.8189 21.1429 70.8258C21.1287 70.8327 21.1133 70.8367 21.0976 70.8376C21.0819 70.8385 21.0662 70.8362 21.0513 70.8309C21.0366 70.8253 21.0231 70.8168 21.0117 70.806C21.0003 70.7951 20.9912 70.782 20.9849 70.7676C20.9786 70.7531 20.9753 70.7375 20.9751 70.7218C20.9749 70.706 20.9779 70.6904 20.9839 70.6758Z" fill="#F28F8F"/>
<path d="M21.8973 69.7554L21.7085 69.6104C21.7172 69.5974 21.7286 69.5863 21.7418 69.5778C21.755 69.5693 21.7698 69.5636 21.7853 69.5611C21.8008 69.5585 21.8166 69.5592 21.8318 69.5631C21.847 69.5669 21.8613 69.5738 21.8737 69.5834C21.8979 69.6043 21.9136 69.6333 21.9179 69.665C21.9223 69.6966 21.915 69.7288 21.8973 69.7554Z" fill="#263238"/>
<path d="M21.8467 70.0016C21.8494 70.0157 21.8489 70.0303 21.8453 70.0442C21.8417 70.0581 21.8351 70.0711 21.8259 70.0821C21.8167 70.0932 21.8052 70.1021 21.7922 70.1082C21.7792 70.1143 21.765 70.1175 21.7506 70.1175C21.7363 70.1175 21.7221 70.1143 21.709 70.1082C21.696 70.1021 21.6845 70.0932 21.6754 70.0821C21.6662 70.0711 21.6596 70.0581 21.656 70.0442C21.6523 70.0303 21.6519 70.0157 21.6545 70.0016C21.6519 69.9875 21.6523 69.973 21.656 69.959C21.6596 69.9451 21.6662 69.9322 21.6754 69.9211C21.6845 69.91 21.696 69.9011 21.709 69.895C21.7221 69.8889 21.7363 69.8857 21.7506 69.8857C21.765 69.8857 21.7792 69.8889 21.7922 69.895C21.8052 69.9011 21.8167 69.91 21.8259 69.9211C21.8351 69.9322 21.8417 69.9451 21.8453 69.959C21.8489 69.973 21.8494 69.9875 21.8467 70.0016Z" fill="#263238"/>
<path d="M21.3879 69.998L21.2969 70.568L21.6139 70.5309L21.3879 69.998Z" fill="#F28F8F"/>
<path d="M21.9347 84.8191L21.9145 84.7314C21.9785 84.7314 22.2517 85.1901 22.5147 85.3857C22.7778 85.5812 23.061 85.7229 23.1892 85.8207C23.3173 85.9185 23.1116 86.2119 22.68 86.2355C22.4282 86.2504 22.1774 86.1918 21.9583 86.0669C21.8369 85.9556 21.7492 85.7667 21.6548 85.6824C21.5604 85.5981 21.3682 85.5307 21.3176 85.4261C21.2767 85.3187 21.2639 85.2026 21.2805 85.0889C21.2805 84.9776 21.2805 84.8528 21.3243 84.8562V84.9203C21.437 84.9773 21.5623 85.0051 21.6885 85.0012C21.7964 85.0113 21.9853 84.9877 21.9347 84.8191Z" fill="#263238"/>
<path d="M21.2903 79.5041C21.2903 79.5041 21.0341 77.6899 20.9531 77.4066C21.1583 77.2962 21.3487 77.1603 21.5197 77.002C21.401 77.172 21.2715 77.3342 21.1319 77.4876L21.2903 79.5041Z" fill="#263238"/>
<path d="M19.7495 79.4434C19.8735 79.7635 20.0177 80.0755 20.1812 80.3775C20.1812 80.3775 20.1474 80.9609 20.1542 81.0789L19.9923 81.2172C19.9884 80.9535 20.0121 80.6901 20.0631 80.4314C19.9233 80.1143 19.8181 79.7831 19.7495 79.4434Z" fill="#263238"/>
</svg>
