<svg width="17" height="22" viewBox="0 0 17 22" fill="none" xmlns="http://www.w3.org/2000/svg">
<path d="M7.8487 0.421234C7.20169 0.5777 6.58005 1.06401 6.30095 1.63068L6.16139 1.91824H5.3114C4.13579 1.91824 4.10196 1.93938 4.10196 2.74709V3.18688H3.03629C2.24128 3.18688 1.89874 3.2038 1.69999 3.25032C0.888053 3.44484 0.211441 4.12145 0.0465171 4.91224C0.0126865 5.07294 0 7.34804 0 12.7186C0 20.1529 0 20.3094 0.0845765 20.5758C0.296018 21.2566 0.883824 21.7683 1.66193 21.9417C1.93257 22.0009 2.66839 22.0051 8.64794 21.9967L15.3295 21.984L15.6128 21.8741C16.133 21.6711 16.5897 21.2989 16.7884 20.9099C17.0126 20.4659 16.9999 20.9183 16.9999 12.7017C16.9999 4.40055 17.0126 4.90379 16.7588 4.37095C16.6108 4.06225 16.1245 3.58016 15.8073 3.42793C15.3718 3.22071 15.1307 3.18688 13.9678 3.18688H12.8979V2.74709C12.8979 2.23117 12.8641 2.11699 12.678 2.00281C12.5511 1.92669 12.4623 1.91824 11.6631 1.91824H10.7877L10.6524 1.63068C10.4663 1.24585 10.0181 0.797599 9.63326 0.611531C9.12157 0.370488 8.38576 0.29014 7.8487 0.421234ZM9.04968 1.45307C9.47256 1.66874 9.71361 1.9563 9.84047 2.38341C9.98848 2.89932 10.0646 2.93315 11.0753 2.93315H11.8407V3.96922V5.00528H8.49993H5.15916V3.97344V2.93738L5.93727 2.9247C6.87184 2.90778 6.89298 2.89932 7.06636 2.44261C7.22706 2.01127 7.29049 1.90555 7.5273 1.69411C7.83601 1.41501 8.0982 1.32197 8.52108 1.33889C8.77058 1.35157 8.91013 1.38118 9.04968 1.45307ZM4.11042 4.92916C4.1231 5.60577 4.13156 5.6692 4.21614 5.79184C4.26688 5.86373 4.36415 5.9483 4.42758 5.97368C4.51638 6.00751 5.60742 6.02019 8.55068 6.01174L12.5511 5.99905L12.6653 5.89333C12.8683 5.70726 12.8979 5.57194 12.8979 4.85304V4.19334L13.9889 4.21026L15.0758 4.22295L15.3168 4.34135C15.5748 4.46822 15.7185 4.612 15.8708 4.89533L15.9638 5.06871L15.9765 12.5749C15.985 18.4022 15.9765 20.1233 15.9342 20.2713C15.8708 20.5124 15.6044 20.783 15.3253 20.8887C15.1265 20.9649 14.8939 20.9691 8.60988 20.9818C1.53083 20.9945 1.82262 21.0029 1.44203 20.7619C1.24327 20.635 1.12487 20.4785 1.06143 20.2502C1.02338 20.1233 1.01492 18.1781 1.02338 12.5749C1.03606 5.33935 1.04029 5.06448 1.11641 4.9207C1.31939 4.53588 1.59004 4.31598 1.94949 4.24832C2.05098 4.22717 2.57535 4.21026 3.11664 4.20603L4.0935 4.2018L4.11042 4.92916Z" fill="#9269AD"/>
<path d="M5.94149 7.64345C5.87383 7.67728 5.44249 8.05788 4.99 8.48922C4.53752 8.92056 4.1527 9.27578 4.14001 9.27578C4.12309 9.27578 3.9624 9.11931 3.78056 8.92479C3.36613 8.48922 3.28156 8.43001 3.0532 8.43001C2.74027 8.43001 2.53729 8.70912 2.60072 9.05165C2.62186 9.17852 2.74027 9.3223 3.2435 9.82975C3.5818 10.1723 3.91165 10.4768 3.98354 10.5064C4.23304 10.6079 4.34722 10.5317 5.47632 9.46185C6.50392 8.48922 6.68153 8.29046 6.68153 8.11285C6.68153 7.96484 6.53352 7.74072 6.38129 7.66037C6.21213 7.57156 6.11487 7.56733 5.94149 7.64345Z" fill="#9269AD"/>
<path d="M7.75575 8.92127C7.5866 9.00162 7.48511 9.18346 7.48511 9.40336C7.48511 9.6444 7.68386 9.84738 7.95451 9.88967C8.056 9.90236 9.47265 9.91081 11.1008 9.90236C14.3231 9.88967 14.1836 9.89813 14.3358 9.6444C14.4923 9.3949 14.4246 9.12002 14.1709 8.95087L14.0271 8.85361H10.957C8.30973 8.85361 7.86993 8.8663 7.75575 8.92127Z" fill="#9269AD"/>
<path d="M5.89921 11.7798C5.85269 11.8052 5.44249 12.1858 4.98578 12.6256L4.15693 13.4206L3.76365 13.0188C3.35346 12.6002 3.1843 12.5029 2.9644 12.5537C2.70645 12.6086 2.52883 12.9173 2.5965 13.1922C2.6261 13.3064 3.73828 14.4989 3.89897 14.592C4.02161 14.6596 4.26688 14.6596 4.38106 14.592C4.56713 14.4862 6.5885 12.5241 6.63925 12.4014C6.71114 12.228 6.63502 11.9828 6.46587 11.839C6.32632 11.7206 6.05567 11.691 5.89921 11.7798Z" fill="#9269AD"/>
<path d="M7.75559 13.0408C7.40883 13.1804 7.39614 13.7724 7.73867 13.95C7.92474 14.0473 13.9381 14.0473 14.1411 13.95C14.3948 13.8274 14.4921 13.5144 14.3568 13.2522C14.2215 12.9901 14.3483 12.9985 10.9441 13.0027C9.23991 13.0027 7.80211 13.0197 7.75559 13.0408Z" fill="#9269AD"/>
<path d="M5.94149 15.8942C5.87383 15.9238 5.44249 16.3044 4.99 16.7358C4.53752 17.1671 4.1527 17.5223 4.14001 17.5223C4.12732 17.5223 3.96663 17.3659 3.78056 17.1713C3.35768 16.7315 3.27733 16.6766 3.0532 16.6766C2.74027 16.6766 2.53729 16.9557 2.60072 17.2982C2.62186 17.4251 2.74027 17.5688 3.2435 18.0763C3.5818 18.4188 3.91165 18.7233 3.98354 18.7529C4.23727 18.8586 4.34722 18.7783 5.47632 17.7084C6.50392 16.7358 6.68153 16.537 6.68153 16.3594C6.68153 16.2114 6.53352 15.9873 6.38128 15.9069C6.21213 15.8181 6.11487 15.8139 5.94149 15.8942Z" fill="#9269AD"/>
<path d="M7.79803 17.141C7.75151 17.1579 7.65848 17.234 7.59928 17.3101C7.36246 17.5892 7.50201 18.0121 7.85724 18.1136C8.09405 18.177 13.8875 18.1686 14.0821 18.1009C14.1624 18.0713 14.2681 17.9867 14.3231 17.9064C14.4923 17.6527 14.4331 17.3736 14.1709 17.1959L14.0271 17.0987L10.957 17.1029C9.26966 17.1029 7.84878 17.1198 7.79803 17.141Z" fill="#9269AD"/>
</svg>
